Belanosima-Regular.ufo
<glyph name="exclam" format="2">
  <advance width="475"/>
  <unicode hex="0021"/>
  <outline>
    <contour>
      <point x="121" y="1566" type="curve" smooth="yes"/>
      <point x="121" y="1194"/>
      <point x="124" y="821"/>
      <point x="124" y="449" type="curve" smooth="yes"/>
      <point x="124" y="422"/>
      <point x="138" y="408"/>
      <point x="165" y="408" type="curve" smooth="yes"/>
      <point x="301" y="408" type="line" smooth="yes"/>
      <point x="328" y="408"/>
      <point x="342" y="422"/>
      <point x="342" y="449" type="curve" smooth="yes"/>
      <point x="342" y="821"/>
      <point x="345" y="1194"/>
      <point x="345" y="1566" type="curve" smooth="yes"/>
      <point x="345" y="1593"/>
      <point x="331" y="1607"/>
      <point x="304" y="1607" type="curve" smooth="yes"/>
      <point x="162" y="1607" type="line" smooth="yes"/>
      <point x="135" y="1607"/>
      <point x="121" y="1593"/>
    </contour>
    <contour>
      <point x="76" y="121" type="curve" smooth="yes"/>
      <point x="76" y="31"/>
      <point x="181" y="-11"/>
      <point x="257" y="-11" type="curve" smooth="yes"/>
      <point x="340" y="-11"/>
      <point x="400" y="34"/>
      <point x="400" y="121" type="curve" smooth="yes"/>
      <point x="400" y="204"/>
      <point x="349" y="256"/>
      <point x="266" y="256" type="curve" smooth="yes"/>
      <point x="193" y="256"/>
      <point x="76" y="208"/>
    </contour>
  </outline>
</glyph>
<glyph name="quotedbl" format="2">
  <advance width="621"/>
  <unicode hex="0022"/>
  <outline>
    <contour>
      <point x="253" y="1543" type="curve" smooth="yes"/>
      <point x="123" y="1543" type="line" smooth="yes"/>
      <point x="96" y="1543"/>
      <point x="82" y="1528"/>
      <point x="82" y="1501" type="curve" smooth="yes"/>
      <point x="82" y="1350"/>
      <point x="91" y="1200"/>
      <point x="91" y="1049" type="curve" smooth="yes"/>
      <point x="91" y="1023"/>
      <point x="106" y="1008"/>
      <point x="132" y="1008" type="curve" smooth="yes"/>
      <point x="247" y="1008" type="line" smooth="yes"/>
      <point x="275" y="1008"/>
      <point x="285" y="1022"/>
      <point x="287" y="1048" type="curve" smooth="yes"/>
      <point x="292" y="1101"/>
      <point x="289" y="1155"/>
      <point x="289" y="1208" type="curve" smooth="yes"/>
      <point x="289" y="1306"/>
      <point x="294" y="1403"/>
      <point x="294" y="1501" type="curve" smooth="yes"/>
      <point x="294" y="1528"/>
      <point x="280" y="1543"/>
    </contour>
    <contour>
      <point x="524" y="1543" type="curve" smooth="yes"/>
      <point x="397" y="1543" type="line" smooth="yes"/>
      <point x="370" y="1543"/>
      <point x="355" y="1528"/>
      <point x="355" y="1501" type="curve" smooth="yes"/>
      <point x="355" y="1350"/>
      <point x="353" y="1200"/>
      <point x="353" y="1049" type="curve" smooth="yes"/>
      <point x="353" y="1024"/>
      <point x="369" y="1008"/>
      <point x="394" y="1008" type="curve" smooth="yes"/>
      <point x="509" y="1008" type="line" smooth="yes"/>
      <point x="537" y="1008"/>
      <point x="548" y="1021"/>
      <point x="551" y="1048" type="curve" smooth="yes"/>
      <point x="557" y="1105"/>
      <point x="553" y="1165"/>
      <point x="555" y="1223" type="curve" smooth="yes"/>
      <point x="558" y="1315"/>
      <point x="565" y="1408"/>
      <point x="565" y="1500" type="curve" smooth="yes"/>
      <point x="565" y="1528"/>
      <point x="553" y="1543"/>
    </contour>
  </outline>
</glyph>
<glyph name="numbersign" format="2">
  <advance width="1360"/>
  <unicode hex="0023"/>
  <outline>
    <contour>
      <point x="580" y="1377" type="curve" smooth="yes"/>
      <point x="445" y="1377" type="line" smooth="yes"/>
      <point x="421" y="1377"/>
      <point x="408" y="1365"/>
      <point x="404" y="1341" type="curve" smooth="yes"/>
      <point x="390" y="1256"/>
      <point x="379" y="1170"/>
      <point x="367" y="1085" type="curve" smooth="yes"/>
      <point x="363" y="1056"/>
      <point x="360" y="1025"/>
      <point x="354" y="996" type="curve"/>
      <point x="353" y="989"/>
      <point x="350" y="986"/>
      <point x="342" y="986" type="curve" smooth="yes"/>
      <point x="157" y="986" type="line" smooth="yes"/>
      <point x="132" y="986"/>
      <point x="120" y="973"/>
      <point x="117" y="949" type="curve" smooth="yes"/>
      <point x="111" y="905"/>
      <point x="104" y="855"/>
      <point x="104" y="811" type="curve" smooth="yes"/>
      <point x="104" y="784"/>
      <point x="120" y="774"/>
      <point x="145" y="774" type="curve" smooth="yes"/>
      <point x="316" y="774" type="line" smooth="yes"/>
      <point x="323" y="774"/>
      <point x="328" y="771"/>
      <point x="328" y="763" type="curve" smooth="yes"/>
      <point x="328" y="754"/>
      <point x="305" y="616"/>
      <point x="302" y="605" type="curve" smooth="yes"/>
      <point x="300" y="598"/>
      <point x="297" y="595"/>
      <point x="290" y="595" type="curve" smooth="yes"/>
      <point x="104" y="595" type="line" smooth="yes"/>
      <point x="79" y="595"/>
      <point x="67" y="583"/>
      <point x="63" y="558" type="curve" smooth="yes"/>
      <point x="57" y="520"/>
      <point x="44" y="452"/>
      <point x="44" y="416" type="curve" smooth="yes"/>
      <point x="44" y="390"/>
      <point x="62" y="381"/>
      <point x="86" y="381" type="curve" smooth="yes"/>
      <point x="257" y="381" type="line" smooth="yes"/>
      <point x="268" y="381"/>
      <point x="269" y="376"/>
      <point x="269" y="367" type="curve" smooth="yes"/>
      <point x="269" y="338"/>
      <point x="260" y="303"/>
      <point x="255" y="274" type="curve" smooth="yes"/>
      <point x="243" y="199"/>
      <point x="229" y="123"/>
      <point x="217" y="48" type="curve"/>
      <point x="216" y="44"/>
      <point x="216" y="39"/>
      <point x="216" y="35" type="curve" smooth="yes"/>
      <point x="216" y="9"/>
      <point x="233" y="0"/>
      <point x="257" y="0" type="curve" smooth="yes"/>
      <point x="395" y="0" type="line" smooth="yes"/>
      <point x="419" y="0"/>
      <point x="432" y="11"/>
      <point x="436" y="35" type="curve" smooth="yes"/>
      <point x="450" y="117"/>
      <point x="462" y="201"/>
      <point x="475" y="284" type="curve" smooth="yes"/>
      <point x="479" y="312"/>
      <point x="482" y="342"/>
      <point x="488" y="370" type="curve"/>
      <point x="490" y="377"/>
      <point x="492" y="381"/>
      <point x="500" y="381" type="curve" smooth="yes"/>
      <point x="725" y="381" type="line" smooth="yes"/>
      <point x="736" y="381"/>
      <point x="737" y="376"/>
      <point x="737" y="367" type="curve" smooth="yes"/>
      <point x="737" y="336"/>
      <point x="727" y="294"/>
      <point x="722" y="263" type="curve" smooth="yes"/>
      <point x="711" y="191"/>
      <point x="700" y="118"/>
      <point x="690" y="46" type="curve"/>
      <point x="690" y="42"/>
      <point x="690" y="40"/>
      <point x="690" y="36" type="curve" smooth="yes"/>
      <point x="690" y="10"/>
      <point x="707" y="0"/>
      <point x="731" y="0" type="curve" smooth="yes"/>
      <point x="868" y="0" type="line" smooth="yes"/>
      <point x="893" y="0"/>
      <point x="905" y="12"/>
      <point x="909" y="36" type="curve" smooth="yes"/>
      <point x="922" y="118"/>
      <point x="931" y="201"/>
      <point x="942" y="284" type="curve" smooth="yes"/>
      <point x="946" y="312"/>
      <point x="948" y="342"/>
      <point x="954" y="370" type="curve"/>
      <point x="955" y="377"/>
      <point x="958" y="381"/>
      <point x="966" y="381" type="curve" smooth="yes"/>
      <point x="1176" y="381" type="line" smooth="yes"/>
      <point x="1202" y="381"/>
      <point x="1214" y="394"/>
      <point x="1217" y="419" type="curve" smooth="yes"/>
      <point x="1222" y="460"/>
      <point x="1233" y="520"/>
      <point x="1233" y="559" type="curve" smooth="yes"/>
      <point x="1233" y="585"/>
      <point x="1217" y="595"/>
      <point x="1192" y="595" type="curve" smooth="yes"/>
      <point x="996" y="595" type="line" smooth="yes"/>
      <point x="985" y="595"/>
      <point x="983" y="600"/>
      <point x="983" y="609" type="curve" smooth="yes"/>
      <point x="983" y="623"/>
      <point x="1004" y="749"/>
      <point x="1009" y="764" type="curve"/>
      <point x="1011" y="771"/>
      <point x="1014" y="774"/>
      <point x="1021" y="774" type="curve" smooth="yes"/>
      <point x="1233" y="774" type="line" smooth="yes"/>
      <point x="1258" y="774"/>
      <point x="1271" y="786"/>
      <point x="1274" y="811" type="curve" smooth="yes"/>
      <point x="1279" y="855"/>
      <point x="1286" y="904"/>
      <point x="1286" y="948" type="curve" smooth="yes"/>
      <point x="1286" y="975"/>
      <point x="1270" y="986"/>
      <point x="1245" y="986" type="curve" smooth="yes"/>
      <point x="1050" y="986" type="line" smooth="yes"/>
      <point x="1039" y="986"/>
      <point x="1038" y="990"/>
      <point x="1038" y="1000" type="curve" smooth="yes"/>
      <point x="1038" y="1026"/>
      <point x="1049" y="1068"/>
      <point x="1053" y="1095" type="curve" smooth="yes"/>
      <point x="1066" y="1173"/>
      <point x="1080" y="1250"/>
      <point x="1093" y="1328" type="curve"/>
      <point x="1094" y="1333"/>
      <point x="1094" y="1337"/>
      <point x="1094" y="1342" type="curve" smooth="yes"/>
      <point x="1094" y="1368"/>
      <point x="1077" y="1377"/>
      <point x="1053" y="1377" type="curve" smooth="yes"/>
      <point x="916" y="1377" type="line" smooth="yes"/>
      <point x="892" y="1377"/>
      <point x="879" y="1365"/>
      <point x="875" y="1342" type="curve" smooth="yes"/>
      <point x="860" y="1257"/>
      <point x="848" y="1170"/>
      <point x="835" y="1085" type="curve" smooth="yes"/>
      <point x="830" y="1056"/>
      <point x="827" y="1025"/>
      <point x="821" y="996" type="curve"/>
      <point x="820" y="989"/>
      <point x="817" y="986"/>
      <point x="809" y="986" type="curve" smooth="yes"/>
      <point x="582" y="986" type="line" smooth="yes"/>
      <point x="571" y="986"/>
      <point x="570" y="991"/>
      <point x="570" y="1000" type="curve" smooth="yes"/>
      <point x="570" y="1028"/>
      <point x="581" y="1066"/>
      <point x="585" y="1095" type="curve" smooth="yes"/>
      <point x="597" y="1173"/>
      <point x="609" y="1252"/>
      <point x="621" y="1330" type="curve"/>
      <point x="622" y="1334"/>
      <point x="622" y="1337"/>
      <point x="622" y="1341" type="curve" smooth="yes"/>
      <point x="622" y="1367"/>
      <point x="604" y="1377"/>
    </contour>
    <contour>
      <point x="545" y="774" type="curve"/>
      <point x="794" y="774" type="line"/>
      <point x="785" y="714"/>
      <point x="775" y="654"/>
      <point x="765" y="595" type="curve"/>
      <point x="514" y="595" type="line"/>
      <point x="526" y="654"/>
      <point x="536" y="714"/>
    </contour>
  </outline>
</glyph>
<glyph name="dollar" format="2">
  <advance width="881"/>
  <unicode hex="0024"/>
  <outline>
    <contour>
      <point x="452" y="-144" type="curve" smooth="yes"/>
      <point x="532" y="-144"/>
      <point x="467" y="-19"/>
      <point x="504" y="-12" type="curve" smooth="yes"/>
      <point x="548" y="-4"/>
      <point x="588" y="4"/>
      <point x="629" y="23" type="curve" smooth="yes"/>
      <point x="790" y="98"/>
      <point x="855" y="270"/>
      <point x="855" y="439" type="curve" smooth="yes"/>
      <point x="855" y="660"/>
      <point x="763" y="789"/>
      <point x="565" y="881" type="curve"/>
      <point x="559" y="888" type="line"/>
      <point x="559" y="1024"/>
      <point x="560" y="1161"/>
      <point x="560" y="1297" type="curve" smooth="yes"/>
      <point x="560" y="1303"/>
      <point x="562" y="1309"/>
      <point x="569" y="1309" type="curve" smooth="yes"/>
      <point x="622" y="1309"/>
      <point x="740" y="1228"/>
      <point x="766" y="1228" type="curve" smooth="yes"/>
      <point x="783" y="1228"/>
      <point x="792" y="1242"/>
      <point x="799" y="1255" type="curve"/>
      <point x="810" y="1274"/>
      <point x="864" y="1385"/>
      <point x="864" y="1400" type="curve" smooth="yes"/>
      <point x="864" y="1413"/>
      <point x="857" y="1421"/>
      <point x="847" y="1429" type="curve" smooth="yes"/>
      <point x="793" y="1474"/>
      <point x="708" y="1512"/>
      <point x="641" y="1529" type="curve" smooth="yes"/>
      <point x="618" y="1535"/>
      <point x="596" y="1537"/>
      <point x="573" y="1541" type="curve"/>
      <point x="565" y="1543"/>
      <point x="562" y="1546"/>
      <point x="562" y="1554" type="curve" smooth="yes"/>
      <point x="562" y="1582"/>
      <point x="563" y="1611"/>
      <point x="563" y="1639" type="curve" smooth="yes"/>
      <point x="563" y="1695"/>
      <point x="497" y="1680"/>
      <point x="460" y="1680" type="curve" smooth="yes"/>
      <point x="379" y="1680"/>
      <point x="446" y="1549"/>
      <point x="408" y="1541" type="curve" smooth="yes"/>
      <point x="369" y="1533"/>
      <point x="333" y="1525"/>
      <point x="297" y="1507" type="curve" smooth="yes"/>
      <point x="151" y="1437"/>
      <point x="86" y="1285"/>
      <point x="86" y="1130" type="curve" smooth="yes"/>
      <point x="86" y="930"/>
      <point x="171" y="808"/>
      <point x="344" y="713" type="curve"/>
      <point x="350" y="710"/>
      <point x="353" y="709"/>
      <point x="353" y="701" type="curve" smooth="yes"/>
      <point x="353" y="545"/>
      <point x="352" y="390"/>
      <point x="352" y="234" type="curve" smooth="yes"/>
      <point x="352" y="227"/>
      <point x="350" y="222"/>
      <point x="342" y="222" type="curve" smooth="yes"/>
      <point x="304" y="222"/>
      <point x="202" y="289"/>
      <point x="169" y="313" type="curve"/>
      <point x="160" y="320"/>
      <point x="149" y="327"/>
      <point x="137" y="327" type="curve" smooth="yes"/>
      <point x="121" y="327"/>
      <point x="111" y="313"/>
      <point x="104" y="301" type="curve" smooth="yes"/>
      <point x="92" y="281"/>
      <point x="31" y="171"/>
      <point x="31" y="156" type="curve" smooth="yes"/>
      <point x="31" y="142"/>
      <point x="38" y="134"/>
      <point x="48" y="126" type="curve" smooth="yes"/>
      <point x="106" y="78"/>
      <point x="199" y="35"/>
      <point x="270" y="12" type="curve"/>
      <point x="294" y="5"/>
      <point x="318" y="1"/>
      <point x="341" y="-6" type="curve" smooth="yes" name=".hr01"/>
      <point x="348" y="-8"/>
      <point x="351" y="-12"/>
      <point x="351" y="-19" type="curve" smooth="yes"/>
      <point x="351" y="-47"/>
      <point x="350" y="-75"/>
      <point x="350" y="-103" type="curve" smooth="yes"/>
      <point x="350" y="-158"/>
      <point x="415" y="-144"/>
    </contour>
    <contour>
      <point x="492" y="630" type="curve"/>
      <point x="564" y="578"/>
      <point x="605" y="504"/>
      <point x="605" y="415" type="curve" smooth="yes"/>
      <point x="605" y="333"/>
      <point x="573" y="256"/>
      <point x="493" y="223" type="curve"/>
      <point x="492" y="359"/>
      <point x="492" y="494"/>
    </contour>
    <contour>
      <point x="419" y="971" type="line"/>
      <point x="368" y="1014"/>
      <point x="334" y="1069"/>
      <point x="334" y="1137" type="curve" smooth="yes"/>
      <point x="334" y="1201"/>
      <point x="357" y="1272"/>
      <point x="419" y="1301" type="curve"/>
    </contour>
  </outline>
</glyph>
<glyph name="percent" format="2">
  <advance width="1507"/>
  <unicode hex="0025"/>
  <outline>
    <contour>
      <point x="367" y="591" type="curve" smooth="yes"/>
      <point x="583" y="591"/>
      <point x="664" y="782"/>
      <point x="664" y="970" type="curve" smooth="yes"/>
      <point x="664" y="1164"/>
      <point x="576" y="1349"/>
      <point x="357" y="1349" type="curve" smooth="yes"/>
      <point x="147" y="1349"/>
      <point x="68" y="1182"/>
      <point x="68" y="996" type="curve" smooth="yes"/>
      <point x="68" y="800"/>
      <point x="135" y="591"/>
    </contour>
    <contour>
      <point x="271" y="998" type="curve" smooth="yes"/>
      <point x="271" y="1061"/>
      <point x="274" y="1173"/>
      <point x="361" y="1173" type="curve" smooth="yes"/>
      <point x="455" y="1173"/>
      <point x="459" y="1037"/>
      <point x="459" y="970" type="curve" smooth="yes"/>
      <point x="459" y="907"/>
      <point x="457" y="765"/>
      <point x="367" y="765" type="curve" smooth="yes"/>
      <point x="270" y="765"/>
      <point x="271" y="931"/>
    </contour>
    <contour>
      <point x="1167" y="-46" type="curve" smooth="yes"/>
      <point x="1376" y="-46"/>
      <point x="1445" y="121"/>
      <point x="1445" y="304" type="curve" smooth="yes"/>
      <point x="1445" y="496"/>
      <point x="1380" y="713"/>
      <point x="1150" y="713" type="curve" smooth="yes"/>
      <point x="941" y="713"/>
      <point x="847" y="536"/>
      <point x="847" y="348" type="curve" smooth="yes"/>
      <point x="847" y="143"/>
      <point x="936" y="-46"/>
    </contour>
    <contour>
      <point x="1049" y="352" type="curve" smooth="yes"/>
      <point x="1049" y="416"/>
      <point x="1051" y="538"/>
      <point x="1141" y="538" type="curve" smooth="yes"/>
      <point x="1242" y="538"/>
      <point x="1238" y="376"/>
      <point x="1238" y="307" type="curve" smooth="yes"/>
      <point x="1238" y="246"/>
      <point x="1233" y="129"/>
      <point x="1149" y="129" type="curve" smooth="yes"/>
      <point x="1055" y="129"/>
      <point x="1049" y="286"/>
    </contour>
    <contour>
      <point x="1263" y="1350" type="curve" smooth="yes"/>
      <point x="1126" y="1350" type="line" smooth="yes"/>
      <point x="1112" y="1350"/>
      <point x="1101" y="1343"/>
      <point x="1092" y="1332" type="curve" smooth="yes"/>
      <point x="1045" y="1276"/>
      <point x="995" y="1190"/>
      <point x="953" y="1127" type="curve" smooth="yes"/>
      <point x="772" y="855"/>
      <point x="596" y="580"/>
      <point x="413" y="309" type="curve" smooth="yes"/>
      <point x="357" y="227"/>
      <point x="300" y="146"/>
      <point x="244" y="64" type="curve"/>
      <point x="236" y="53"/>
      <point x="227" y="41"/>
      <point x="227" y="26" type="curve" smooth="yes"/>
      <point x="227" y="1"/>
      <point x="258" y="-1"/>
      <point x="275" y="-1" type="curve" smooth="yes"/>
      <point x="410" y="-3" type="line" smooth="yes"/>
      <point x="426" y="-3"/>
      <point x="434" y="3"/>
      <point x="444" y="15" type="curve" smooth="yes"/>
      <point x="485" y="65"/>
      <point x="520" y="124"/>
      <point x="557" y="178" type="curve" smooth="yes"/>
      <point x="640" y="300"/>
      <point x="720" y="425"/>
      <point x="801" y="548" type="curve" smooth="yes"/>
      <point x="963" y="795"/>
      <point x="1127" y="1042"/>
      <point x="1294" y="1286" type="curve"/>
      <point x="1301" y="1297"/>
      <point x="1311" y="1310"/>
      <point x="1311" y="1324" type="curve" smooth="yes"/>
      <point x="1311" y="1349"/>
      <point x="1280" y="1350"/>
    </contour>
  </outline>
</glyph>
<glyph name="ampersand" format="2">
  <advance width="1409"/>
  <unicode hex="0026"/>
  <outline>
    <contour>
      <point x="1089" y="387" type="curve"/>
      <point x="1088" y="398" type="line"/>
      <point x="1109" y="454"/>
      <point x="1268" y="870"/>
      <point x="1268" y="889" type="curve" smooth="yes"/>
      <point x="1268" y="914"/>
      <point x="1244" y="919"/>
      <point x="1224" y="919" type="curve" smooth="yes"/>
      <point x="1089" y="919" type="line" smooth="yes"/>
      <point x="1068" y="919"/>
      <point x="1059" y="910"/>
      <point x="1051" y="892" type="curve"/>
      <point x="1041" y="871"/>
      <point x="1034" y="848"/>
      <point x="1026" y="826" type="curve" smooth="yes"/>
      <point x="1000" y="756"/>
      <point x="976" y="684"/>
      <point x="948" y="615" type="curve"/>
      <point x="946" y="611"/>
      <point x="944" y="603"/>
      <point x="938" y="603" type="curve" smooth="yes"/>
      <point x="933" y="603"/>
      <point x="930" y="609"/>
      <point x="927" y="612" type="curve"/>
      <point x="871" y="686"/>
      <point x="819" y="763"/>
      <point x="765" y="838" type="curve" smooth="yes"/>
      <point x="714" y="909"/>
      <point x="661" y="978"/>
      <point x="612" y="1050" type="curve" smooth="yes"/>
      <point x="579" y="1098"/>
      <point x="544" y="1173"/>
      <point x="544" y="1233" type="curve" smooth="yes"/>
      <point x="544" y="1321"/>
      <point x="609" y="1387"/>
      <point x="697" y="1387" type="curve" smooth="yes"/>
      <point x="817" y="1387"/>
      <point x="908" y="1263"/>
      <point x="938" y="1263" type="curve" smooth="yes"/>
      <point x="952" y="1263"/>
      <point x="961" y="1273"/>
      <point x="969" y="1283" type="curve" smooth="yes"/>
      <point x="985" y="1302"/>
      <point x="1057" y="1395"/>
      <point x="1057" y="1414" type="curve" smooth="yes"/>
      <point x="1057" y="1424"/>
      <point x="1052" y="1432"/>
      <point x="1046" y="1439" type="curve" smooth="yes"/>
      <point x="952" y="1547"/>
      <point x="802" y="1603"/>
      <point x="661" y="1603" type="curve" smooth="yes"/>
      <point x="455" y="1603"/>
      <point x="290" y="1461"/>
      <point x="290" y="1250" type="curve" smooth="yes"/>
      <point x="290" y="1145"/>
      <point x="347" y="1026"/>
      <point x="407" y="942" type="curve" smooth="yes"/>
      <point x="412" y="935"/>
      <point x="435" y="905"/>
      <point x="435" y="898" type="curve" smooth="yes"/>
      <point x="435" y="892"/>
      <point x="429" y="890"/>
      <point x="425" y="888" type="curve"/>
      <point x="387" y="873"/>
      <point x="351" y="858"/>
      <point x="316" y="837" type="curve" smooth="yes"/>
      <point x="172" y="750"/>
      <point x="69" y="598"/>
      <point x="69" y="427" type="curve" smooth="yes"/>
      <point x="69" y="144"/>
      <point x="299" y="-23"/>
      <point x="566" y="-23" type="curve" smooth="yes"/>
      <point x="722" y="-23"/>
      <point x="856" y="30"/>
      <point x="960" y="148" type="curve"/>
      <point x="963" y="151"/>
      <point x="966" y="155"/>
      <point x="970" y="155" type="curve" smooth="yes"/>
      <point x="980" y="155"/>
      <point x="1063" y="33"/>
      <point x="1077" y="16" type="curve"/>
      <point x="1087" y="5"/>
      <point x="1095" y="0"/>
      <point x="1110" y="0" type="curve" smooth="yes"/>
      <point x="1294" y="0" type="line" smooth="yes"/>
      <point x="1311" y="0"/>
      <point x="1345" y="1"/>
      <point x="1345" y="25" type="curve" smooth="yes"/>
      <point x="1345" y="40"/>
      <point x="1334" y="55"/>
      <point x="1326" y="66" type="curve" smooth="yes"/>
      <point x="1250" y="175"/>
      <point x="1167" y="280"/>
    </contour>
    <contour>
      <point x="841" y="339" type="curve"/>
      <point x="787" y="247"/>
      <point x="695" y="206"/>
      <point x="591" y="206" type="curve" smooth="yes"/>
      <point x="446" y="206"/>
      <point x="322" y="301"/>
      <point x="322" y="453" type="curve" smooth="yes"/>
      <point x="322" y="587"/>
      <point x="434" y="708"/>
      <point x="567" y="719" type="curve"/>
      <point x="658" y="592"/>
      <point x="750" y="465"/>
    </contour>
  </outline>
</glyph>
<glyph name="quotesingle" format="2">
  <advance width="352"/>
  <unicode hex="0027"/>
  <outline>
    <contour>
      <point x="252" y="1542" type="curve" smooth="yes"/>
      <point x="107" y="1542" type="line" smooth="yes"/>
      <point x="79" y="1542"/>
      <point x="66" y="1527"/>
      <point x="66" y="1500" type="curve" smooth="yes"/>
      <point x="66" y="1350"/>
      <point x="68" y="1200"/>
      <point x="68" y="1050" type="curve" smooth="yes"/>
      <point x="68" y="1023"/>
      <point x="82" y="1009"/>
      <point x="109" y="1009" type="curve" smooth="yes"/>
      <point x="239" y="1009" type="line" smooth="yes"/>
      <point x="268" y="1009"/>
      <point x="278" y="1023"/>
      <point x="280" y="1050" type="curve" smooth="yes"/>
      <point x="285" y="1112"/>
      <point x="283" y="1176"/>
      <point x="285" y="1238" type="curve" smooth="yes"/>
      <point x="288" y="1325"/>
      <point x="293" y="1413"/>
      <point x="293" y="1500" type="curve" smooth="yes"/>
      <point x="293" y="1528"/>
      <point x="281" y="1542"/>
    </contour>
  </outline>
</glyph>
<glyph name="parenleft" format="2">
  <advance width="719"/>
  <unicode hex="0028"/>
  <outline>
    <contour>
      <point x="103" y="622" type="curve" smooth="yes"/>
      <point x="103" y="290"/>
      <point x="212" y="-85"/>
      <point x="443" y="-331" type="curve"/>
      <point x="450" y="-339"/>
      <point x="460" y="-345"/>
      <point x="471" y="-345" type="curve" smooth="yes"/>
      <point x="488" y="-345"/>
      <point x="591" y="-289"/>
      <point x="611" y="-277" type="curve" smooth="yes"/>
      <point x="623" y="-270"/>
      <point x="638" y="-260"/>
      <point x="638" y="-244" type="curve" smooth="yes"/>
      <point x="638" y="-232"/>
      <point x="630" y="-221"/>
      <point x="623" y="-212" type="curve" smooth="yes"/>
      <point x="593" y="-174"/>
      <point x="565" y="-135"/>
      <point x="539" y="-94" type="curve" smooth="yes"/>
      <point x="407" y="119"/>
      <point x="348" y="374"/>
      <point x="348" y="623" type="curve" smooth="yes"/>
      <point x="348" y="872"/>
      <point x="406" y="1126"/>
      <point x="537" y="1339" type="curve" smooth="yes"/>
      <point x="562" y="1380"/>
      <point x="592" y="1418"/>
      <point x="621" y="1456" type="curve" smooth="yes"/>
      <point x="628" y="1465"/>
      <point x="635" y="1476"/>
      <point x="635" y="1488" type="curve" smooth="yes"/>
      <point x="635" y="1504"/>
      <point x="620" y="1514"/>
      <point x="608" y="1521" type="curve" smooth="yes"/>
      <point x="589" y="1532"/>
      <point x="486" y="1588"/>
      <point x="470" y="1588" type="curve" smooth="yes"/>
      <point x="459" y="1588"/>
      <point x="449" y="1582"/>
      <point x="442" y="1574" type="curve"/>
      <point x="214" y="1330"/>
      <point x="103" y="951"/>
    </contour>
  </outline>
</glyph>
<glyph name="parenright" format="2">
  <advance width="719"/>
  <unicode hex="0029"/>
  <outline>
    <contour>
      <point x="616" y="622" type="curve" smooth="yes"/>
      <point x="616" y="953"/>
      <point x="506" y="1326"/>
      <point x="279" y="1574" type="curve" smooth="yes"/>
      <point x="272" y="1582"/>
      <point x="263" y="1588"/>
      <point x="252" y="1588" type="curve" smooth="yes"/>
      <point x="236" y="1588"/>
      <point x="130" y="1530"/>
      <point x="111" y="1519" type="curve" smooth="yes"/>
      <point x="99" y="1512"/>
      <point x="85" y="1502"/>
      <point x="85" y="1487" type="curve" smooth="yes"/>
      <point x="85" y="1474"/>
      <point x="93" y="1464"/>
      <point x="100" y="1455" type="curve" smooth="yes"/>
      <point x="291" y="1211"/>
      <point x="372" y="936"/>
      <point x="372" y="628" type="curve" smooth="yes"/>
      <point x="372" y="380"/>
      <point x="312" y="120"/>
      <point x="181" y="-93" type="curve" smooth="yes"/>
      <point x="156" y="-135"/>
      <point x="127" y="-173"/>
      <point x="97" y="-212" type="curve" smooth="yes"/>
      <point x="90" y="-221"/>
      <point x="82" y="-232"/>
      <point x="82" y="-244" type="curve" smooth="yes"/>
      <point x="82" y="-260"/>
      <point x="97" y="-270"/>
      <point x="110" y="-277" type="curve" smooth="yes"/>
      <point x="133" y="-289"/>
      <point x="229" y="-345"/>
      <point x="250" y="-345" type="curve" smooth="yes"/>
      <point x="262" y="-345"/>
      <point x="270" y="-339"/>
      <point x="278" y="-331" type="curve"/>
      <point x="509" y="-83"/>
      <point x="616" y="289"/>
    </contour>
  </outline>
</glyph>
<glyph name="asterisk" format="2">
  <advance width="729"/>
  <unicode hex="002A"/>
  <outline>
    <contour>
      <point x="444" y="1076" type="curve"/>
      <point x="481" y="1062"/>
      <point x="574" y="1005"/>
      <point x="604" y="1005" type="curve" smooth="yes"/>
      <point x="632" y="1005"/>
      <point x="677" y="1088"/>
      <point x="677" y="1113" type="curve" smooth="yes"/>
      <point x="677" y="1152"/>
      <point x="528" y="1184"/>
      <point x="528" y="1211" type="curve" smooth="yes"/>
      <point x="528" y="1225"/>
      <point x="642" y="1272"/>
      <point x="660" y="1282" type="curve" smooth="yes"/>
      <point x="675" y="1290"/>
      <point x="685" y="1300"/>
      <point x="685" y="1318" type="curve" smooth="yes"/>
      <point x="685" y="1334"/>
      <point x="659" y="1375"/>
      <point x="651" y="1390" type="curve"/>
      <point x="645" y="1402"/>
      <point x="633" y="1413"/>
      <point x="619" y="1413" type="curve" smooth="yes"/>
      <point x="585" y="1413"/>
      <point x="468" y="1338"/>
      <point x="447" y="1342" type="curve"/>
      <point x="439" y="1347"/>
      <point x="444" y="1462"/>
      <point x="444" y="1480" type="curve" smooth="yes"/>
      <point x="444" y="1502"/>
      <point x="430" y="1517"/>
      <point x="408" y="1517" type="curve" smooth="yes"/>
      <point x="264" y="1517"/>
      <point x="292" y="1523"/>
      <point x="292" y="1356" type="curve" smooth="yes"/>
      <point x="292" y="1351"/>
      <point x="292" y="1345"/>
      <point x="287" y="1342" type="curve"/>
      <point x="244" y="1347"/>
      <point x="157" y="1414"/>
      <point x="117" y="1414" type="curve" smooth="yes"/>
      <point x="89" y="1414"/>
      <point x="53" y="1338"/>
      <point x="53" y="1314" type="curve" smooth="yes"/>
      <point x="53" y="1275"/>
      <point x="203" y="1238"/>
      <point x="203" y="1213" type="curve" smooth="yes"/>
      <point x="203" y="1188"/>
      <point x="57" y="1155"/>
      <point x="57" y="1118" type="curve" smooth="yes"/>
      <point x="57" y="1097"/>
      <point x="104" y="1008"/>
      <point x="126" y="1008" type="curve" smooth="yes"/>
      <point x="159" y="1008"/>
      <point x="247" y="1063"/>
      <point x="285" y="1077" type="curve"/>
      <point x="291" y="1076"/>
      <point x="294" y="1069"/>
      <point x="294" y="1063" type="curve" smooth="yes"/>
      <point x="294" y="956" type="line" smooth="yes"/>
      <point x="294" y="921"/>
      <point x="320" y="913"/>
      <point x="350" y="913" type="curve" smooth="yes"/>
      <point x="365" y="913"/>
      <point x="379" y="915"/>
      <point x="394" y="915" type="curve" smooth="yes"/>
      <point x="470" y="916"/>
      <point x="414" y="1061"/>
    </contour>
  </outline>
</glyph>
<glyph name="plus" format="2">
  <advance width="827"/>
  <unicode hex="002B"/>
  <outline>
    <contour>
      <point x="110" y="430" type="curve" smooth="yes"/>
      <point x="110" y="425" type="line" smooth="yes"/>
      <point x="110" y="401"/>
      <point x="127" y="389"/>
      <point x="150" y="389" type="curve" smooth="yes"/>
      <point x="291" y="389" type="line" smooth="yes"/>
      <point x="306" y="389"/>
      <point x="304" y="372"/>
      <point x="304" y="362" type="curve" smooth="yes"/>
      <point x="304" y="343"/>
      <point x="302" y="323"/>
      <point x="302" y="304" type="curve" smooth="yes"/>
      <point x="302" y="145" type="line" smooth="yes"/>
      <point x="302" y="121"/>
      <point x="320" y="109"/>
      <point x="342" y="109" type="curve" smooth="yes"/>
      <point x="474" y="109" type="line" smooth="yes"/>
      <point x="501" y="109"/>
      <point x="514" y="124"/>
      <point x="514" y="150" type="curve" smooth="yes"/>
      <point x="514" y="226"/>
      <point x="513" y="303"/>
      <point x="513" y="379" type="curve" smooth="yes"/>
      <point x="513" y="384"/>
      <point x="519" y="389"/>
      <point x="524" y="389" type="curve" smooth="yes"/>
      <point x="665" y="389" type="line" smooth="yes"/>
      <point x="688" y="389"/>
      <point x="706" y="400"/>
      <point x="706" y="425" type="curve" smooth="yes"/>
      <point x="706" y="470"/>
      <point x="705" y="514"/>
      <point x="705" y="559" type="curve" smooth="yes"/>
      <point x="705" y="586"/>
      <point x="692" y="600"/>
      <point x="665" y="600" type="curve" smooth="yes"/>
      <point x="524" y="600" type="line" smooth="yes"/>
      <point x="516" y="600"/>
      <point x="511" y="605"/>
      <point x="511" y="613" type="curve" smooth="yes"/>
      <point x="511" y="844" type="line" smooth="yes"/>
      <point x="511" y="867"/>
      <point x="493" y="880"/>
      <point x="471" y="880" type="curve" smooth="yes"/>
      <point x="344" y="880" type="line" smooth="yes"/>
      <point x="318" y="880"/>
      <point x="304" y="865"/>
      <point x="304" y="839" type="curve" smooth="yes"/>
      <point x="304" y="610" type="line" smooth="yes"/>
      <point x="304" y="603"/>
      <point x="298" y="600"/>
      <point x="292" y="600" type="curve" smooth="yes"/>
      <point x="146" y="600" type="line" smooth="yes"/>
      <point x="122" y="600"/>
      <point x="112" y="582"/>
      <point x="111" y="560" type="curve" smooth="yes"/>
      <point x="109" y="517"/>
      <point x="110" y="473"/>
    </contour>
  </outline>
</glyph>
<glyph name="comma" format="2">
  <advance width="440"/>
  <unicode hex="002C"/>
  <outline>
    <contour>
      <point x="349" y="187" type="curve" smooth="yes"/>
      <point x="222" y="187" type="line" smooth="yes"/>
      <point x="204" y="187"/>
      <point x="193" y="179"/>
      <point x="185" y="163" type="curve" smooth="yes"/>
      <point x="157" y="110"/>
      <point x="133" y="54"/>
      <point x="107" y="0" type="curve" smooth="yes"/>
      <point x="75" y="-66"/>
      <point x="42" y="-132"/>
      <point x="11" y="-198" type="curve" smooth="yes"/>
      <point x="6" y="-208"/>
      <point x="1" y="-219"/>
      <point x="1" y="-230" type="curve" smooth="yes"/>
      <point x="1" y="-255"/>
      <point x="28" y="-258"/>
      <point x="47" y="-258" type="curve" smooth="yes"/>
      <point x="157" y="-258" type="line" smooth="yes"/>
      <point x="174" y="-258"/>
      <point x="185" y="-250"/>
      <point x="193" y="-236" type="curve" smooth="yes"/>
      <point x="224" y="-183"/>
      <point x="252" y="-127"/>
      <point x="281" y="-73" type="curve" smooth="yes"/>
      <point x="316" y="-7"/>
      <point x="352" y="60"/>
      <point x="385" y="127" type="curve" smooth="yes"/>
      <point x="390" y="137"/>
      <point x="395" y="148"/>
      <point x="395" y="159" type="curve" smooth="yes"/>
      <point x="395" y="184"/>
      <point x="368" y="187"/>
    </contour>
  </outline>
</glyph>
<glyph name="period" format="2">
  <advance width="440"/>
  <unicode hex="002E"/>
  <outline>
    <contour>
      <point x="78" y="132" type="curve" smooth="yes"/>
      <point x="78" y="55"/>
      <point x="144" y="0"/>
      <point x="218" y="0" type="curve" smooth="yes"/>
      <point x="294" y="0"/>
      <point x="362" y="56"/>
      <point x="362" y="135" type="curve" smooth="yes"/>
      <point x="362" y="207"/>
      <point x="291" y="267"/>
      <point x="221" y="267" type="curve" smooth="yes"/>
      <point x="149" y="267"/>
      <point x="78" y="207"/>
    </contour>
  </outline>
</glyph>
<glyph name="slash" format="2">
  <advance width="586"/>
  <unicode hex="002F"/>
  <outline>
    <contour>
      <point x="594" y="1577" type="curve" smooth="yes"/>
      <point x="465" y="1577" type="line" smooth="yes"/>
      <point x="444" y="1577"/>
      <point x="433" y="1567"/>
      <point x="426" y="1548" type="curve" smooth="yes"/>
      <point x="403" y="1484"/>
      <point x="386" y="1416"/>
      <point x="367" y="1350" type="curve" smooth="yes"/>
      <point x="333" y="1235"/>
      <point x="299" y="1119"/>
      <point x="266" y="1003" type="curve" smooth="yes"/>
      <point x="170" y="673"/>
      <point x="74" y="343"/>
      <point x="-26" y="14" type="curve" smooth="yes"/>
      <point x="-28" y="7"/>
      <point x="-30" y="0"/>
      <point x="-30" y="-8" type="curve" smooth="yes"/>
      <point x="-30" y="-33"/>
      <point x="-8" y="-39"/>
      <point x="13" y="-39" type="curve" smooth="yes"/>
      <point x="141" y="-39" type="line" smooth="yes"/>
      <point x="162" y="-39"/>
      <point x="173" y="-29"/>
      <point x="180" y="-10" type="curve" smooth="yes"/>
      <point x="203" y="54"/>
      <point x="219" y="123"/>
      <point x="238" y="188" type="curve" smooth="yes"/>
      <point x="272" y="303"/>
      <point x="305" y="419"/>
      <point x="339" y="535" type="curve" smooth="yes"/>
      <point x="434" y="865"/>
      <point x="531" y="1195"/>
      <point x="633" y="1524" type="curve" smooth="yes"/>
      <point x="635" y="1531"/>
      <point x="637" y="1538"/>
      <point x="637" y="1545" type="curve" smooth="yes"/>
      <point x="637" y="1571"/>
      <point x="615" y="1577"/>
    </contour>
  </outline>
</glyph>
<glyph name="zero" format="2">
  <advance width="1223"/>
  <unicode hex="0030"/>
  <outline>
    <contour>
      <point x="608" y="-1" type="curve" smooth="yes"/>
      <point x="979" y="-1"/>
      <point x="1167" y="236"/>
      <point x="1167" y="594" type="curve" smooth="yes"/>
      <point x="1167" y="967"/>
      <point x="994" y="1204"/>
      <point x="603" y="1204" type="curve" smooth="yes"/>
      <point x="208" y="1204"/>
      <point x="56" y="962"/>
      <point x="56" y="593" type="curve" smooth="yes"/>
      <point x="56" y="236"/>
      <point x="235" y="-1"/>
    </contour>
    <contour>
      <point x="612" y="244" type="curve" smooth="yes"/>
      <point x="395" y="244"/>
      <point x="289" y="391"/>
      <point x="289" y="597" type="curve" smooth="yes"/>
      <point x="289" y="806"/>
      <point x="387" y="958"/>
      <point x="611" y="958" type="curve" smooth="yes"/>
      <point x="832" y="958"/>
      <point x="935" y="811"/>
      <point x="935" y="602" type="curve" smooth="yes"/>
      <point x="935" y="395"/>
      <point x="832" y="244"/>
    </contour>
  </outline>
</glyph>
<glyph name="one" format="2">
  <advance width="573"/>
  <unicode hex="0031"/>
  <outline>
    <contour>
      <point x="34" y="1148" type="curve" smooth="yes"/>
      <point x="34" y="1093"/>
      <point x="35" y="1039"/>
      <point x="35" y="984" type="curve" smooth="yes"/>
      <point x="35" y="899"/>
      <point x="202" y="974"/>
      <point x="202" y="931" type="curve" smooth="yes"/>
      <point x="202" y="634"/>
      <point x="200" y="338"/>
      <point x="200" y="41" type="curve" smooth="yes"/>
      <point x="200" y="14"/>
      <point x="214" y="0"/>
      <point x="241" y="0" type="curve" smooth="yes"/>
      <point x="408" y="0" type="line" smooth="yes"/>
      <point x="436" y="0"/>
      <point x="449" y="14"/>
      <point x="449" y="41" type="curve" smooth="yes"/>
      <point x="449" y="410"/>
      <point x="447" y="779"/>
      <point x="447" y="1148" type="curve" smooth="yes"/>
      <point x="447" y="1175"/>
      <point x="434" y="1189"/>
      <point x="406" y="1189" type="curve" smooth="yes"/>
      <point x="75" y="1189" type="line" smooth="yes"/>
      <point x="47" y="1189"/>
      <point x="34" y="1175"/>
    </contour>
  </outline>
</glyph>
<glyph name="two" format="2">
  <advance width="993"/>
  <unicode hex="0032"/>
  <outline>
    <contour>
      <point x="172" y="0" type="curve" smooth="yes"/>
      <point x="886" y="0" type="line" smooth="yes"/>
      <point x="915" y="0"/>
      <point x="927" y="14"/>
      <point x="927" y="42" type="curve" smooth="yes"/>
      <point x="927" y="84"/>
      <point x="929" y="157"/>
      <point x="925" y="196" type="curve" smooth="yes"/>
      <point x="922" y="223"/>
      <point x="913" y="236"/>
      <point x="884" y="236" type="curve" smooth="yes"/>
      <point x="592" y="236" type="line" smooth="yes"/>
      <point x="588" y="236"/>
      <point x="575" y="236"/>
      <point x="575" y="243" type="curve" smooth="yes"/>
      <point x="575" y="264"/>
      <point x="905" y="550"/>
      <point x="905" y="808" type="curve" smooth="yes"/>
      <point x="905" y="1050"/>
      <point x="711" y="1206"/>
      <point x="479" y="1206" type="curve" smooth="yes"/>
      <point x="243" y="1206"/>
      <point x="54" y="1059"/>
      <point x="54" y="812" type="curve" smooth="yes"/>
      <point x="54" y="706"/>
      <point x="99" y="579"/>
      <point x="181" y="508" type="curve" smooth="yes"/>
      <point x="188" y="502"/>
      <point x="196" y="497"/>
      <point x="205" y="497" type="curve" smooth="yes"/>
      <point x="217" y="497"/>
      <point x="226" y="505"/>
      <point x="234" y="513" type="curve"/>
      <point x="252" y="532"/>
      <point x="328" y="617"/>
      <point x="328" y="639" type="curve" smooth="yes"/>
      <point x="328" y="666"/>
      <point x="274" y="707"/>
      <point x="274" y="787" type="curve" smooth="yes"/>
      <point x="274" y="906"/>
      <point x="357" y="968"/>
      <point x="470" y="968" type="curve" smooth="yes"/>
      <point x="585" y="968"/>
      <point x="662" y="883"/>
      <point x="662" y="770" type="curve" smooth="yes"/>
      <point x="662" y="739"/>
      <point x="651" y="701"/>
      <point x="641" y="671" type="curve" smooth="yes"/>
      <point x="561" y="441"/>
      <point x="310" y="239"/>
      <point x="143" y="67" type="curve" smooth="yes"/>
      <point x="133" y="57"/>
      <point x="116" y="40"/>
      <point x="116" y="24" type="curve" smooth="yes"/>
      <point x="116" y="1"/>
      <point x="157" y="0"/>
    </contour>
  </outline>
</glyph>
<glyph name="three" format="2">
  <advance width="965"/>
  <unicode hex="0033"/>
  <outline>
    <contour>
      <point x="772" y="1192" type="curve" smooth="yes"/>
      <point x="168" y="1192" type="line" smooth="yes"/>
      <point x="140" y="1192"/>
      <point x="126" y="1178"/>
      <point x="126" y="1150" type="curve" smooth="yes"/>
      <point x="126" y="1106"/>
      <point x="126" y="1061"/>
      <point x="128" y="1017" type="curve"/>
      <point x="130" y="990"/>
      <point x="139" y="977"/>
      <point x="168" y="977" type="curve" smooth="yes"/>
      <point x="492" y="977" type="line" smooth="yes"/>
      <point x="497" y="977"/>
      <point x="507" y="976"/>
      <point x="507" y="969" type="curve" smooth="yes"/>
      <point x="507" y="954"/>
      <point x="236" y="583"/>
      <point x="236" y="570" type="curve" smooth="yes"/>
      <point x="236" y="569"/>
      <point x="240" y="565"/>
      <point x="242" y="565" type="curve" smooth="yes"/>
      <point x="245" y="565" type="line"/>
      <point x="284" y="571"/>
      <point x="322" y="578"/>
      <point x="362" y="578" type="curve" smooth="yes"/>
      <point x="463" y="578"/>
      <point x="626" y="544"/>
      <point x="626" y="414" type="curve" smooth="yes"/>
      <point x="626" y="290"/>
      <point x="485" y="254"/>
      <point x="385" y="254" type="curve" smooth="yes"/>
      <point x="278" y="254"/>
      <point x="216" y="327"/>
      <point x="189" y="327" type="curve" smooth="yes"/>
      <point x="172" y="327"/>
      <point x="162" y="311"/>
      <point x="154" y="298" type="curve" smooth="yes"/>
      <point x="140" y="275"/>
      <point x="64" y="145"/>
      <point x="64" y="128" type="curve" smooth="yes"/>
      <point x="64" y="116"/>
      <point x="70" y="108"/>
      <point x="79" y="101" type="curve"/>
      <point x="163" y="27"/>
      <point x="311" y="-14"/>
      <point x="421" y="-14" type="curve" smooth="yes"/>
      <point x="668" y="-14"/>
      <point x="881" y="136"/>
      <point x="881" y="399" type="curve" smooth="yes"/>
      <point x="881" y="602"/>
      <point x="770" y="723"/>
      <point x="575" y="763" type="curve" smooth="yes"/>
      <point x="570" y="764"/>
      <point x="563" y="765"/>
      <point x="563" y="772" type="curve" smooth="yes"/>
      <point x="563" y="783"/>
      <point x="780" y="1090"/>
      <point x="806" y="1128" type="curve"/>
      <point x="813" y="1139"/>
      <point x="822" y="1153"/>
      <point x="822" y="1166" type="curve" smooth="yes"/>
      <point x="822" y="1190"/>
      <point x="789" y="1192"/>
    </contour>
  </outline>
</glyph>
<glyph name="four" format="2">
  <advance width="1024"/>
  <unicode hex="0034"/>
  <outline>
    <contour>
      <point x="608" y="0" type="curve" smooth="yes"/>
      <point x="775" y="0" type="line" smooth="yes"/>
      <point x="802" y="0"/>
      <point x="815" y="15"/>
      <point x="815" y="41" type="curve" smooth="yes"/>
      <point x="815" y="110"/>
      <point x="810" y="179"/>
      <point x="810" y="248" type="curve" smooth="yes"/>
      <point x="810" y="264"/>
      <point x="831" y="266"/>
      <point x="842" y="266" type="curve" smooth="yes"/>
      <point x="864" y="266"/>
      <point x="886" y="262"/>
      <point x="907" y="262" type="curve" smooth="yes"/>
      <point x="938" y="262"/>
      <point x="960" y="271"/>
      <point x="960" y="306" type="curve" smooth="yes"/>
      <point x="960" y="343"/>
      <point x="960" y="379"/>
      <point x="958" y="416" type="curve" smooth="yes"/>
      <point x="957" y="443"/>
      <point x="945" y="456"/>
      <point x="917" y="456" type="curve" smooth="yes"/>
      <point x="818" y="456" type="line" smooth="yes"/>
      <point x="811" y="456"/>
      <point x="807" y="463"/>
      <point x="806" y="469" type="curve"/>
      <point x="803" y="494"/>
      <point x="805" y="522"/>
      <point x="805" y="547" type="curve" smooth="yes"/>
      <point x="805" y="606"/>
      <point x="805" y="664"/>
      <point x="805" y="723" type="curve" smooth="yes"/>
      <point x="805" y="869"/>
      <point x="810" y="1015"/>
      <point x="810" y="1161" type="curve" smooth="yes"/>
      <point x="810" y="1188"/>
      <point x="796" y="1202"/>
      <point x="769" y="1202" type="curve" smooth="yes"/>
      <point x="589" y="1202" type="line" smooth="yes"/>
      <point x="572" y="1202"/>
      <point x="563" y="1196"/>
      <point x="554" y="1182" type="curve" smooth="yes"/>
      <point x="483" y="1077"/>
      <point x="427" y="960"/>
      <point x="365" y="850" type="curve" smooth="yes"/>
      <point x="266" y="674"/>
      <point x="161" y="501"/>
      <point x="61" y="326" type="curve" smooth="yes"/>
      <point x="55" y="315"/>
      <point x="48" y="304"/>
      <point x="48" y="291" type="curve" smooth="yes"/>
      <point x="48" y="265"/>
      <point x="76" y="264"/>
      <point x="95" y="264" type="curve" smooth="yes"/>
      <point x="554" y="264" type="line" smooth="yes"/>
      <point x="564" y="264"/>
      <point x="565" y="256" name=".hr01"/>
      <point x="565" y="248" type="curve" smooth="yes"/>
      <point x="567" y="41" type="line" smooth="yes"/>
      <point x="567" y="13"/>
      <point x="580" y="0"/>
    </contour>
    <contour>
      <point x="334" y="456" type="line"/>
      <point x="412" y="575"/>
      <point x="488" y="695"/>
      <point x="565" y="815" type="curve"/>
      <point x="565" y="456" type="line"/>
    </contour>
  </outline>
</glyph>
<glyph name="five" format="2">
  <advance width="975"/>
  <unicode hex="0035"/>
  <outline>
    <contour>
      <point x="454" y="-14" type="curve" smooth="yes"/>
      <point x="684" y="-14"/>
      <point x="903" y="145"/>
      <point x="903" y="389" type="curve" smooth="yes"/>
      <point x="903" y="632"/>
      <point x="700" y="760"/>
      <point x="476" y="760" type="curve" smooth="yes"/>
      <point x="442" y="760"/>
      <point x="406" y="753"/>
      <point x="375" y="753" type="curve" smooth="yes"/>
      <point x="366" y="753"/>
      <point x="361" y="754"/>
      <point x="361" y="765" type="curve" smooth="yes"/>
      <point x="360" y="954" type="line" smooth="yes"/>
      <point x="360" y="962"/>
      <point x="365" y="967"/>
      <point x="373" y="967" type="curve" smooth="yes"/>
      <point x="769" y="967" type="line" smooth="yes"/>
      <point x="798" y="967"/>
      <point x="809" y="980"/>
      <point x="810" y="1007" type="curve" smooth="yes"/>
      <point x="812" y="1053"/>
      <point x="811" y="1101"/>
      <point x="811" y="1148" type="curve" smooth="yes"/>
      <point x="811" y="1176"/>
      <point x="798" y="1189"/>
      <point x="770" y="1189" type="curve" smooth="yes"/>
      <point x="189" y="1189" type="line" smooth="yes"/>
      <point x="161" y="1189"/>
      <point x="148" y="1176"/>
      <point x="148" y="1148" type="curve" smooth="yes"/>
      <point x="148" y="963"/>
      <point x="150" y="777"/>
      <point x="150" y="592" type="curve" smooth="yes"/>
      <point x="150" y="571"/>
      <point x="154" y="545"/>
      <point x="180" y="545" type="curve" smooth="yes"/>
      <point x="191" y="545"/>
      <point x="201" y="548"/>
      <point x="211" y="552" type="curve"/>
      <point x="271" y="574"/>
      <point x="330" y="591"/>
      <point x="395" y="591" type="curve" smooth="yes"/>
      <point x="512" y="591"/>
      <point x="651" y="557"/>
      <point x="651" y="414" type="curve" smooth="yes"/>
      <point x="651" y="285"/>
      <point x="510" y="233"/>
      <point x="402" y="233" type="curve" smooth="yes"/>
      <point x="332" y="233"/>
      <point x="272" y="245"/>
      <point x="208" y="275" type="curve" smooth="yes"/>
      <point x="200" y="279"/>
      <point x="192" y="283"/>
      <point x="182" y="283" type="curve" smooth="yes"/>
      <point x="166" y="283"/>
      <point x="157" y="274"/>
      <point x="148" y="262" type="curve" smooth="yes"/>
      <point x="133" y="242"/>
      <point x="66" y="146"/>
      <point x="66" y="127" type="curve" smooth="yes"/>
      <point x="66" y="114"/>
      <point x="73" y="106"/>
      <point x="82" y="99" type="curve" smooth="yes"/>
      <point x="175" y="23"/>
      <point x="336" y="-14"/>
    </contour>
  </outline>
</glyph>
<glyph name="six" format="2">
  <advance width="1051"/>
  <unicode hex="0036"/>
  <outline>
    <contour>
      <point x="532" y="-14" type="curve" smooth="yes"/>
      <point x="778" y="-14"/>
      <point x="1005" y="132"/>
      <point x="1005" y="397" type="curve" smooth="yes"/>
      <point x="1005" y="636"/>
      <point x="833" y="783"/>
      <point x="600" y="783" type="curve" smooth="yes"/>
      <point x="533" y="783"/>
      <point x="473" y="769"/>
      <point x="414" y="736" type="curve" smooth="yes"/>
      <point x="407" y="732"/>
      <point x="384" y="718"/>
      <point x="375" y="718" type="curve" smooth="yes"/>
      <point x="373" y="718"/>
      <point x="372" y="718"/>
      <point x="372" y="720" type="curve" smooth="yes"/>
      <point x="372" y="728"/>
      <point x="390" y="751"/>
      <point x="393" y="756" type="curve"/>
      <point x="461" y="852"/>
      <point x="561" y="927"/>
      <point x="665" y="981" type="curve" smooth="yes"/>
      <point x="688" y="993"/>
      <point x="712" y="1003"/>
      <point x="735" y="1014" type="curve" smooth="yes"/>
      <point x="749" y="1021"/>
      <point x="768" y="1029"/>
      <point x="768" y="1048" type="curve" smooth="yes"/>
      <point x="768" y="1061"/>
      <point x="759" y="1072"/>
      <point x="751" y="1081" type="curve"/>
      <point x="719" y="1120"/>
      <point x="686" y="1160"/>
      <point x="651" y="1196" type="curve" smooth="yes"/>
      <point x="643" y="1204"/>
      <point x="634" y="1211"/>
      <point x="622" y="1211" type="curve" smooth="yes"/>
      <point x="614" y="1211"/>
      <point x="607" y="1209"/>
      <point x="600" y="1205" type="curve" smooth="yes"/>
      <point x="327" y="1053"/>
      <point x="47" y="799"/>
      <point x="47" y="463" type="curve" smooth="yes"/>
      <point x="47" y="177"/>
      <point x="249" y="-14"/>
    </contour>
    <contour>
      <point x="520" y="216" type="line"/>
      <point x="420" y="216"/>
      <point x="297" y="271"/>
      <point x="297" y="386" type="curve" smooth="yes"/>
      <point x="297" y="513"/>
      <point x="407" y="568"/>
      <point x="522" y="568" type="curve" smooth="yes"/>
      <point x="625" y="568"/>
      <point x="752" y="522"/>
      <point x="752" y="399" type="curve" smooth="yes"/>
      <point x="752" y="281"/>
      <point x="636" y="215"/>
      <point x="529" y="215" type="curve"/>
    </contour>
  </outline>
</glyph>
<glyph name="seven" format="2">
  <advance width="903"/>
  <unicode hex="0037"/>
  <outline>
    <contour>
      <point x="819" y="1192" type="curve" smooth="yes"/>
      <point x="97" y="1192" type="line" smooth="yes"/>
      <point x="71" y="1192"/>
      <point x="56" y="1178"/>
      <point x="56" y="1151" type="curve" smooth="yes"/>
      <point x="59" y="965" type="line" smooth="yes"/>
      <point x="59" y="937"/>
      <point x="72" y="924"/>
      <point x="100" y="924" type="curve" smooth="yes"/>
      <point x="501" y="924" type="line" smooth="yes"/>
      <point x="507" y="924"/>
      <point x="515" y="922"/>
      <point x="515" y="914" type="curve" smooth="yes"/>
      <point x="515" y="912"/>
      <point x="514" y="909"/>
      <point x="513" y="907" type="curve"/>
      <point x="400" y="622"/>
      <point x="277" y="340"/>
      <point x="159" y="57" type="curve" smooth="yes"/>
      <point x="155" y="48"/>
      <point x="152" y="39"/>
      <point x="152" y="29" type="curve" smooth="yes"/>
      <point x="152" y="4"/>
      <point x="177" y="0"/>
      <point x="196" y="0" type="curve" smooth="yes"/>
      <point x="385" y="0" type="line" smooth="yes"/>
      <point x="404" y="0"/>
      <point x="415" y="9"/>
      <point x="423" y="26" type="curve" smooth="yes"/>
      <point x="444" y="72"/>
      <point x="461" y="122"/>
      <point x="479" y="169" type="curve" smooth="yes"/>
      <point x="512" y="253"/>
      <point x="544" y="336"/>
      <point x="577" y="420" type="curve" smooth="yes"/>
      <point x="669" y="659"/>
      <point x="763" y="897"/>
      <point x="857" y="1136" type="curve" smooth="yes"/>
      <point x="860" y="1144"/>
      <point x="863" y="1153"/>
      <point x="863" y="1162" type="curve" smooth="yes"/>
      <point x="863" y="1187"/>
      <point x="839" y="1192"/>
    </contour>
  </outline>
</glyph>
<glyph name="eight" format="2">
  <advance width="938"/>
  <unicode hex="0038"/>
  <outline>
    <contour>
      <point x="26" y="391" type="curve" smooth="yes"/>
      <point x="26" y="155"/>
      <point x="235" y="-14"/>
      <point x="462" y="-14" type="curve" smooth="yes"/>
      <point x="691" y="-14"/>
      <point x="913" y="145"/>
      <point x="913" y="389" type="curve" smooth="yes"/>
      <point x="913" y="536"/>
      <point x="833" y="642"/>
      <point x="708" y="710" type="curve"/>
      <point x="704" y="712"/>
      <point x="697" y="716"/>
      <point x="697" y="721" type="curve" smooth="yes"/>
      <point x="697" y="726"/>
      <point x="703" y="730"/>
      <point x="706" y="733" type="curve"/>
      <point x="781" y="791"/>
      <point x="808" y="844"/>
      <point x="808" y="940" type="curve" smooth="yes"/>
      <point x="808" y="1109"/>
      <point x="629" y="1206"/>
      <point x="478" y="1206" type="curve" smooth="yes"/>
      <point x="306" y="1206"/>
      <point x="139" y="1112"/>
      <point x="139" y="922" type="curve" smooth="yes"/>
      <point x="139" y="839"/>
      <point x="167" y="784"/>
      <point x="231" y="733" type="curve"/>
      <point x="235" y="730"/>
      <point x="240" y="727"/>
      <point x="240" y="721" type="curve" smooth="yes"/>
      <point x="240" y="716"/>
      <point x="234" y="712"/>
      <point x="230" y="710" type="curve"/>
      <point x="106" y="640"/>
      <point x="26" y="539"/>
    </contour>
    <contour>
      <point x="267" y="397" type="curve" smooth="yes"/>
      <point x="267" y="509"/>
      <point x="357" y="580"/>
      <point x="465" y="580" type="curve" smooth="yes"/>
      <point x="570" y="580"/>
      <point x="668" y="514"/>
      <point x="668" y="401" type="curve" smooth="yes"/>
      <point x="668" y="286"/>
      <point x="571" y="221"/>
      <point x="464" y="221" type="curve" smooth="yes"/>
      <point x="360" y="221"/>
      <point x="267" y="286"/>
    </contour>
    <contour>
      <point x="325" y="902" type="curve" smooth="yes"/>
      <point x="325" y="985"/>
      <point x="387" y="1033"/>
      <point x="466" y="1033" type="curve" smooth="yes"/>
      <point x="546" y="1033"/>
      <point x="604" y="984"/>
      <point x="604" y="902" type="curve" smooth="yes"/>
      <point x="604" y="824"/>
      <point x="541" y="779"/>
      <point x="468" y="779" type="curve" smooth="yes"/>
      <point x="395" y="779"/>
      <point x="325" y="822"/>
    </contour>
  </outline>
</glyph>
<glyph name="nine" format="2">
  <advance width="1051"/>
  <unicode hex="0039"/>
  <outline>
    <contour>
      <point x="464" y="395" type="curve" smooth="yes"/>
      <point x="509" y="395"/>
      <point x="553" y="401"/>
      <point x="596" y="415" type="curve"/>
      <point x="607" y="418"/>
      <point x="634" y="428"/>
      <point x="646" y="428" type="curve" smooth="yes"/>
      <point x="648" y="428"/>
      <point x="651" y="429"/>
      <point x="651" y="426" type="curve" smooth="yes"/>
      <point x="651" y="418"/>
      <point x="616" y="388"/>
      <point x="613" y="385" type="curve"/>
      <point x="530" y="310"/>
      <point x="429" y="254"/>
      <point x="328" y="209" type="curve" smooth="yes"/>
      <point x="303" y="198"/>
      <point x="276" y="189"/>
      <point x="251" y="177" type="curve"/>
      <point x="237" y="171"/>
      <point x="218" y="162"/>
      <point x="218" y="144" type="curve" smooth="yes"/>
      <point x="218" y="131"/>
      <point x="227" y="120"/>
      <point x="235" y="111" type="curve"/>
      <point x="267" y="72"/>
      <point x="301" y="32"/>
      <point x="336" y="-5" type="curve"/>
      <point x="344" y="-14"/>
      <point x="353" y="-21"/>
      <point x="365" y="-21" type="curve" smooth="yes"/>
      <point x="373" y="-21"/>
      <point x="380" y="-18"/>
      <point x="387" y="-14" type="curve" smooth="yes"/>
      <point x="690" y="149"/>
      <point x="1023" y="375"/>
      <point x="1023" y="758" type="curve" smooth="yes"/>
      <point x="1023" y="1030"/>
      <point x="788" y="1202"/>
      <point x="531" y="1202" type="curve" smooth="yes"/>
      <point x="282" y="1202"/>
      <point x="48" y="1047"/>
      <point x="48" y="779" type="curve" smooth="yes"/>
      <point x="48" y="545"/>
      <point x="240" y="395"/>
    </contour>
    <contour>
      <point x="286" y="780" type="curve" smooth="yes"/>
      <point x="286" y="913"/>
      <point x="415" y="974"/>
      <point x="532" y="974" type="curve" smooth="yes"/>
      <point x="632" y="974"/>
      <point x="773" y="918"/>
      <point x="773" y="799" type="curve" smooth="yes"/>
      <point x="773" y="786"/>
      <point x="773" y="771"/>
      <point x="772" y="758" type="curve" smooth="yes"/>
      <point x="765" y="641"/>
      <point x="634" y="588"/>
      <point x="533" y="588" type="curve" smooth="yes"/>
      <point x="416" y="588"/>
      <point x="286" y="645"/>
    </contour>
  </outline>
</glyph>
<glyph name="colon" format="2">
  <advance width="410"/>
  <unicode hex="003A"/>
  <outline>
    <contour>
      <point x="59" y="718" type="curve" smooth="yes"/>
      <point x="59" y="642"/>
      <point x="127" y="587"/>
      <point x="200" y="587" type="curve" smooth="yes"/>
      <point x="274" y="587"/>
      <point x="343" y="641"/>
      <point x="343" y="718" type="curve" smooth="yes"/>
      <point x="343" y="792"/>
      <point x="274" y="851"/>
      <point x="202" y="851" type="curve" smooth="yes"/>
      <point x="131" y="851"/>
      <point x="59" y="792"/>
    </contour>
    <contour>
      <point x="57" y="132" type="curve" smooth="yes"/>
      <point x="57" y="55"/>
      <point x="124" y="0"/>
      <point x="198" y="0" type="curve" smooth="yes"/>
      <point x="274" y="0"/>
      <point x="345" y="57"/>
      <point x="345" y="136" type="curve" smooth="yes"/>
      <point x="345" y="210"/>
      <point x="272" y="266"/>
      <point x="201" y="266" type="curve" smooth="yes"/>
      <point x="129" y="266"/>
      <point x="57" y="207"/>
    </contour>
  </outline>
</glyph>
<glyph name="semicolon" format="2">
  <advance width="410"/>
  <unicode hex="003B"/>
  <outline>
    <contour>
      <point x="139" y="667" type="curve" smooth="yes"/>
      <point x="139" y="595"/>
      <point x="206" y="535"/>
      <point x="277" y="535" type="curve" smooth="yes"/>
      <point x="349" y="535"/>
      <point x="392" y="601"/>
      <point x="392" y="667" type="curve" smooth="yes"/>
      <point x="392" y="734"/>
      <point x="348" y="799"/>
      <point x="276" y="799" type="curve" smooth="yes"/>
      <point x="209" y="799"/>
      <point x="139" y="736"/>
    </contour>
    <contour>
      <point x="291" y="186" type="curve" smooth="yes"/>
      <point x="170" y="186" type="line" smooth="yes"/>
      <point x="150" y="186"/>
      <point x="140" y="178"/>
      <point x="132" y="160" type="curve" smooth="yes"/>
      <point x="114" y="119"/>
      <point x="-22" y="-211"/>
      <point x="-22" y="-229" type="curve" smooth="yes"/>
      <point x="-22" y="-254"/>
      <point x="3" y="-258"/>
      <point x="23" y="-258" type="curve" smooth="yes"/>
      <point x="131" y="-258" type="line" smooth="yes"/>
      <point x="150" y="-258"/>
      <point x="161" y="-250"/>
      <point x="169" y="-234" type="curve" smooth="yes"/>
      <point x="190" y="-192"/>
      <point x="335" y="135"/>
      <point x="335" y="157" type="curve" smooth="yes"/>
      <point x="335" y="181"/>
      <point x="311" y="186"/>
    </contour>
  </outline>
</glyph>
<glyph name="less" format="2">
  <advance width="729"/>
  <unicode hex="003C"/>
  <outline>
    <contour>
      <point x="706" y="799" type="curve" smooth="yes"/>
      <point x="706" y="969" type="line" smooth="yes"/>
      <point x="706" y="986"/>
      <point x="705" y="1016"/>
      <point x="682" y="1016" type="curve" smooth="yes"/>
      <point x="667" y="1016"/>
      <point x="655" y="1007"/>
      <point x="643" y="999" type="curve" smooth="yes"/>
      <point x="528" y="919"/>
      <point x="419" y="832"/>
      <point x="307" y="748" type="curve" smooth="yes"/>
      <point x="215" y="679"/>
      <point x="120" y="614"/>
      <point x="31" y="541" type="curve" smooth="yes"/>
      <point x="21" y="533"/>
      <point x="9" y="523"/>
      <point x="9" y="508" type="curve" smooth="yes"/>
      <point x="9" y="494"/>
      <point x="21" y="483"/>
      <point x="31" y="475" type="curve" smooth="yes"/>
      <point x="119" y="402"/>
      <point x="216" y="336"/>
      <point x="308" y="268" type="curve" smooth="yes"/>
      <point x="422" y="184"/>
      <point x="534" y="96"/>
      <point x="652" y="17" type="curve" smooth="yes"/>
      <point x="664" y="9"/>
      <point x="677" y="0"/>
      <point x="692" y="0" type="curve" smooth="yes"/>
      <point x="715" y="0"/>
      <point x="716" y="30"/>
      <point x="716" y="47" type="curve" smooth="yes"/>
      <point x="716" y="104"/>
      <point x="718" y="165"/>
      <point x="711" y="221" type="curve" smooth="yes"/>
      <point x="709" y="235"/>
      <point x="706" y="240"/>
      <point x="697" y="250" type="curve" smooth="yes"/>
      <point x="667" y="283"/>
      <point x="432" y="492"/>
      <point x="432" y="509" type="curve" smooth="yes"/>
      <point x="432" y="525"/>
      <point x="664" y="736"/>
      <point x="693" y="769" type="curve" smooth="yes"/>
      <point x="701" y="778"/>
      <point x="706" y="787"/>
    </contour>
  </outline>
</glyph>
<glyph name="equal" format="2">
  <advance width="893"/>
  <unicode hex="003D"/>
  <outline>
    <contour>
      <point x="30" y="806" type="curve" smooth="yes"/>
      <point x="30" y="669" type="line" smooth="yes"/>
      <point x="30" y="645"/>
      <point x="47" y="633"/>
      <point x="70" y="633" type="curve" smooth="yes"/>
      <point x="823" y="633" type="line" smooth="yes"/>
      <point x="846" y="633"/>
      <point x="863" y="645"/>
      <point x="863" y="669" type="curve" smooth="yes"/>
      <point x="863" y="806" type="line" smooth="yes"/>
      <point x="863" y="832"/>
      <point x="849" y="847"/>
      <point x="823" y="847" type="curve" smooth="yes"/>
      <point x="70" y="847" type="line" smooth="yes"/>
      <point x="44" y="847"/>
      <point x="30" y="832"/>
    </contour>
    <contour>
      <point x="24" y="256" type="curve" smooth="yes"/>
      <point x="24" y="230"/>
      <point x="39" y="219"/>
      <point x="64" y="219" type="curve" smooth="yes"/>
      <point x="829" y="219" type="line" smooth="yes"/>
      <point x="848" y="219"/>
      <point x="869" y="227"/>
      <point x="869" y="249" type="curve" smooth="yes"/>
      <point x="869" y="297"/>
      <point x="867" y="345"/>
      <point x="867" y="393" type="curve" smooth="yes"/>
      <point x="867" y="419"/>
      <point x="851" y="432"/>
      <point x="826" y="432" type="curve" smooth="yes"/>
      <point x="67" y="432" type="line" smooth="yes"/>
      <point x="42" y="432"/>
      <point x="26" y="419"/>
      <point x="26" y="393" type="curve" smooth="yes"/>
      <point x="26" y="347"/>
      <point x="24" y="302"/>
    </contour>
  </outline>
</glyph>
<glyph name="greater" format="2">
  <advance width="729"/>
  <unicode hex="003E"/>
  <outline>
    <contour>
      <point x="13" y="51" type="curve" smooth="yes"/>
      <point x="13" y="34"/>
      <point x="13" y="0"/>
      <point x="38" y="0" type="curve" smooth="yes"/>
      <point x="52" y="0"/>
      <point x="67" y="10"/>
      <point x="78" y="18" type="curve"/>
      <point x="195" y="98"/>
      <point x="309" y="185"/>
      <point x="423" y="269" type="curve" smooth="yes"/>
      <point x="517" y="338"/>
      <point x="615" y="405"/>
      <point x="706" y="477" type="curve" smooth="yes"/>
      <point x="716" y="485"/>
      <point x="728" y="495"/>
      <point x="728" y="510" type="curve" smooth="yes"/>
      <point x="728" y="525"/>
      <point x="715" y="535"/>
      <point x="705" y="543" type="curve" smooth="yes"/>
      <point x="614" y="615"/>
      <point x="517" y="680"/>
      <point x="424" y="749" type="curve" smooth="yes"/>
      <point x="310" y="832"/>
      <point x="199" y="920"/>
      <point x="83" y="1000" type="curve" smooth="yes"/>
      <point x="72" y="1008"/>
      <point x="57" y="1017"/>
      <point x="43" y="1017" type="curve" smooth="yes"/>
      <point x="19" y="1017"/>
      <point x="18" y="983"/>
      <point x="18" y="966" type="curve" smooth="yes"/>
      <point x="18" y="911"/>
      <point x="18" y="855"/>
      <point x="18" y="800" type="curve" smooth="yes"/>
      <point x="18" y="787"/>
      <point x="23" y="780"/>
      <point x="31" y="771" type="curve" smooth="yes"/>
      <point x="59" y="741"/>
      <point x="301" y="520"/>
      <point x="301" y="510" type="curve" smooth="yes"/>
      <point x="301" y="499"/>
      <point x="57" y="280"/>
      <point x="28" y="250" type="curve"/>
      <point x="19" y="240"/>
      <point x="16" y="233"/>
      <point x="15" y="220" type="curve" smooth="yes"/>
      <point x="11" y="165"/>
      <point x="13" y="106"/>
    </contour>
  </outline>
</glyph>
<glyph name="question" format="2">
  <advance width="815"/>
  <unicode hex="003F"/>
  <outline>
    <contour>
      <point x="301" y="403" type="curve" smooth="yes"/>
      <point x="460" y="403" type="line" smooth="yes"/>
      <point x="503" y="403"/>
      <point x="494" y="447"/>
      <point x="494" y="476" type="curve" smooth="yes"/>
      <point x="494" y="806"/>
      <point x="787" y="803"/>
      <point x="787" y="1171" type="curve" smooth="yes"/>
      <point x="787" y="1406"/>
      <point x="664" y="1569"/>
      <point x="418" y="1569" type="curve" smooth="yes"/>
      <point x="224" y="1569"/>
      <point x="84" y="1438"/>
      <point x="26" y="1260" type="curve"/>
      <point x="24" y="1255"/>
      <point x="24" y="1250"/>
      <point x="24" y="1245" type="curve" smooth="yes"/>
      <point x="24" y="1229"/>
      <point x="34" y="1219"/>
      <point x="47" y="1213" type="curve"/>
      <point x="71" y="1201"/>
      <point x="169" y="1148"/>
      <point x="191" y="1148" type="curve" smooth="yes"/>
      <point x="211" y="1148"/>
      <point x="219" y="1163"/>
      <point x="226" y="1179" type="curve" smooth="yes"/>
      <point x="263" y="1258"/>
      <point x="299" y="1339"/>
      <point x="401" y="1339" type="curve" smooth="yes"/>
      <point x="488" y="1339"/>
      <point x="537" y="1228"/>
      <point x="537" y="1154" type="curve" smooth="yes"/>
      <point x="537" y="891"/>
      <point x="261" y="899"/>
      <point x="261" y="525" type="curve" smooth="yes"/>
      <point x="260" y="444" type="line" smooth="yes"/>
      <point x="260" y="417"/>
      <point x="274" y="403"/>
    </contour>
    <contour>
      <point x="376" y="-10" type="curve" smooth="yes"/>
      <point x="456" y="-10"/>
      <point x="513" y="39"/>
      <point x="513" y="121" type="curve" smooth="yes"/>
      <point x="513" y="198"/>
      <point x="460" y="256"/>
      <point x="382" y="256" type="curve" smooth="yes"/>
      <point x="307" y="256"/>
      <point x="236" y="199"/>
      <point x="236" y="121" type="curve" smooth="yes"/>
      <point x="236" y="39"/>
      <point x="297" y="-10"/>
    </contour>
  </outline>
</glyph>
<glyph name="at" format="2">
  <advance width="1272"/>
  <unicode hex="0040"/>
  <outline>
    <contour>
      <point x="616" y="-472" type="curve" smooth="yes"/>
      <point x="775" y="-472"/>
      <point x="975" y="-410"/>
      <point x="1094" y="-302" type="curve" smooth="yes"/>
      <point x="1102" y="-295"/>
      <point x="1109" y="-285"/>
      <point x="1109" y="-274" type="curve" smooth="yes"/>
      <point x="1109" y="-255"/>
      <point x="1059" y="-190"/>
      <point x="1046" y="-173" type="curve" smooth="yes"/>
      <point x="1038" y="-162"/>
      <point x="1029" y="-152"/>
      <point x="1014" y="-152" type="curve" smooth="yes"/>
      <point x="1003" y="-152"/>
      <point x="995" y="-157"/>
      <point x="986" y="-163" type="curve" smooth="yes"/>
      <point x="883" y="-231"/>
      <point x="779" y="-279"/>
      <point x="652" y="-279" type="curve" smooth="yes"/>
      <point x="286" y="-279"/>
      <point x="128" y="10"/>
      <point x="128" y="341" type="curve" smooth="yes"/>
      <point x="128" y="350"/>
      <point x="128" y="359"/>
      <point x="128" y="367" type="curve"/>
      <point x="148" y="803"/>
      <point x="352" y="1202"/>
      <point x="841" y="1202" type="curve" smooth="yes"/>
      <point x="1189" y="1202"/>
      <point x="1331" y="937"/>
      <point x="1331" y="622" type="curve" smooth="yes"/>
      <point x="1331" y="513"/>
      <point x="1301" y="307"/>
      <point x="1215" y="233" type="curve"/>
      <point x="1205" y="225"/>
      <point x="1179" y="208"/>
      <point x="1166" y="208" type="curve" smooth="yes"/>
      <point x="1121" y="208"/>
      <point x="1115" y="272"/>
      <point x="1115" y="304" type="curve" smooth="yes"/>
      <point x="1115" y="314"/>
      <point x="1116" y="325"/>
      <point x="1117" y="335" type="curve" smooth="yes"/>
      <point x="1133" y="507"/>
      <point x="1152" y="679"/>
      <point x="1171" y="851" type="curve"/>
      <point x="1172" y="860" type="line"/>
      <point x="1172" y="887"/>
      <point x="1156" y="897"/>
      <point x="1131" y="897" type="curve" smooth="yes"/>
      <point x="987" y="897" type="line" smooth="yes"/>
      <point x="926" y="897"/>
      <point x="947" y="790"/>
      <point x="925" y="790" type="curve" smooth="yes"/>
      <point x="919" y="790"/>
      <point x="913" y="802"/>
      <point x="911" y="806" type="curve"/>
      <point x="859" y="897"/>
      <point x="802" y="937"/>
      <point x="694" y="937" type="curve" smooth="yes"/>
      <point x="397" y="937"/>
      <point x="274" y="633"/>
      <point x="274" y="379" type="curve" smooth="yes"/>
      <point x="274" y="183"/>
      <point x="373" y="-23"/>
      <point x="596" y="-23" type="curve" smooth="yes"/>
      <point x="756" y="-23"/>
      <point x="878" y="146"/>
      <point x="886" y="146" type="curve" smooth="yes"/>
      <point x="892" y="146"/>
      <point x="895" y="138"/>
      <point x="897" y="134" type="curve" smooth="yes"/>
      <point x="944" y="37"/>
      <point x="1021" y="-17"/>
      <point x="1131" y="-17" type="curve" smooth="yes"/>
      <point x="1430" y="-17"/>
      <point x="1545" y="379"/>
      <point x="1545" y="619" type="curve" smooth="yes"/>
      <point x="1545" y="1043"/>
      <point x="1339" y="1395"/>
      <point x="876" y="1395" type="curve" smooth="yes"/>
      <point x="253" y="1395"/>
      <point x="-82" y="904"/>
      <point x="-82" y="319" type="curve" smooth="yes"/>
      <point x="-82" y="-111"/>
      <point x="152" y="-472"/>
    </contour>
    <contour>
      <point x="691" y="178" type="curve" smooth="yes"/>
      <point x="571" y="178"/>
      <point x="523" y="322"/>
      <point x="523" y="421" type="curve" smooth="yes"/>
      <point x="523" y="543"/>
      <point x="583" y="737"/>
      <point x="734" y="737" type="curve" smooth="yes"/>
      <point x="814" y="737"/>
      <point x="866" y="675"/>
      <point x="889" y="604" type="curve" smooth="yes"/>
      <point x="892" y="595"/>
      <point x="899" y="567"/>
      <point x="899" y="558" type="curve" smooth="yes"/>
      <point x="899" y="546"/>
      <point x="878" y="372"/>
      <point x="875" y="361" type="curve" smooth="yes"/>
      <point x="870" y="343"/>
      <point x="858" y="321"/>
      <point x="850" y="305" type="curve" smooth="yes"/>
      <point x="817" y="239"/>
      <point x="772" y="178"/>
    </contour>
  </outline>
</glyph>
<glyph name="A" format="2">
  <advance width="1350"/>
  <unicode hex="0041"/>
  <anchor x="675" y="0" name="bottom"/>
  <anchor x="1221" y="20" name="ogonek"/>
  <anchor x="675" y="1469" name="top"/>
  <outline>
    <contour>
      <point x="80" y="0" type="curve" smooth="yes"/>
      <point x="240" y="0" type="line" smooth="yes"/>
      <point x="259" y="0"/>
      <point x="268" y="8"/>
      <point x="278" y="24" type="curve" smooth="yes"/>
      <point x="291" y="45"/>
      <point x="300" y="70"/>
      <point x="310" y="92" type="curve" smooth="yes"/>
      <point x="341" y="160"/>
      <point x="367" y="232"/>
      <point x="401" y="298" type="curve" smooth="yes"/>
      <point x="403" y="302"/>
      <point x="407" y="306"/>
      <point x="412" y="306" type="curve" smooth="yes"/>
      <point x="901" y="306" type="line" smooth="yes"/>
      <point x="906" y="306"/>
      <point x="910" y="302"/>
      <point x="912" y="298" type="curve" smooth="yes"/>
      <point x="945" y="232"/>
      <point x="970" y="161"/>
      <point x="999" y="93" type="curve" smooth="yes"/>
      <point x="1009" y="71"/>
      <point x="1017" y="46"/>
      <point x="1029" y="25" type="curve" smooth="yes"/>
      <point x="1039" y="8"/>
      <point x="1048" y="0"/>
      <point x="1068" y="0" type="curve" smooth="yes"/>
      <point x="1270" y="0" type="line" smooth="yes"/>
      <point x="1289" y="0"/>
      <point x="1315" y="3"/>
      <point x="1315" y="28" type="curve" smooth="yes"/>
      <point x="1315" y="38"/>
      <point x="1309" y="50"/>
      <point x="1305" y="59" type="curve" smooth="yes"/>
      <point x="1186" y="312"/>
      <point x="1067" y="564"/>
      <point x="957" y="821" type="curve" smooth="yes"/>
      <point x="896" y="964"/>
      <point x="837" y="1107"/>
      <point x="775" y="1249" type="curve" smooth="yes"/>
      <point x="746" y="1317"/>
      <point x="718" y="1386"/>
      <point x="685" y="1452" type="curve" smooth="yes"/>
      <point x="683" y="1456"/>
      <point x="679" y="1458"/>
      <point x="675" y="1458" type="curve" smooth="yes"/>
      <point x="671" y="1458"/>
      <point x="667" y="1456"/>
      <point x="665" y="1452" type="curve" smooth="yes"/>
      <point x="632" y="1386"/>
      <point x="604" y="1317"/>
      <point x="575" y="1249" type="curve" smooth="yes"/>
      <point x="513" y="1107"/>
      <point x="454" y="964"/>
      <point x="393" y="821" type="curve" smooth="yes"/>
      <point x="283" y="564"/>
      <point x="164" y="312"/>
      <point x="45" y="59" type="curve" smooth="yes"/>
      <point x="41" y="50"/>
      <point x="35" y="38"/>
      <point x="35" y="28" type="curve" smooth="yes"/>
      <point x="35" y="3"/>
      <point x="61" y="0"/>
    </contour>
    <contour>
      <point x="495" y="514" type="line"/>
      <point x="551" y="647"/>
      <point x="607" y="780"/>
      <point x="662" y="913" type="curve"/>
      <point x="716" y="780"/>
      <point x="769" y="647"/>
      <point x="822" y="514" type="curve"/>
    </contour>
  </outline>
</glyph>
<glyph name="B" format="2">
  <advance width="1251"/>
  <unicode hex="0042"/>
  <anchor x="619" y="0" name="bottom"/>
  <anchor x="619" y="1402" name="top"/>
  <outline>
    <contour>
      <point x="128" y="1360" type="curve" smooth="yes"/>
      <point x="128" y="1286"/>
      <point x="134" y="1211"/>
      <point x="136" y="1136" type="curve" smooth="yes"/>
      <point x="140" y="996"/>
      <point x="142" y="857"/>
      <point x="142" y="717" type="curve" smooth="yes"/>
      <point x="142" y="568"/>
      <point x="142" y="417"/>
      <point x="136" y="268" type="curve" smooth="yes"/>
      <point x="133" y="193"/>
      <point x="126" y="117"/>
      <point x="126" y="42" type="curve" smooth="yes"/>
      <point x="126" y="14"/>
      <point x="137" y="0" name=".hr01"/>
      <point x="166" y="0" type="curve" smooth="yes"/>
      <point x="632" y="0" type="line" smooth="yes"/>
      <point x="887" y="0"/>
      <point x="1169" y="93"/>
      <point x="1169" y="395" type="curve" smooth="yes"/>
      <point x="1169" y="650"/>
      <point x="926" y="710"/>
      <point x="920" y="737" type="curve"/>
      <point x="927" y="763"/>
      <point x="1092" y="822"/>
      <point x="1092" y="1054" type="curve" smooth="yes"/>
      <point x="1092" y="1339"/>
      <point x="801" y="1402"/>
      <point x="572" y="1402" type="curve" smooth="yes"/>
      <point x="168" y="1402" type="line" smooth="yes"/>
      <point x="139" y="1402"/>
      <point x="128" y="1388"/>
    </contour>
    <contour>
      <point x="385" y="234" type="line"/>
      <point x="386" y="348"/>
      <point x="387" y="462"/>
      <point x="387" y="576" type="curve"/>
      <point x="602" y="576" type="line" smooth="yes"/>
      <point x="712" y="576"/>
      <point x="914" y="558"/>
      <point x="914" y="409" type="curve" smooth="yes"/>
      <point x="914" y="264"/>
      <point x="739" y="234"/>
      <point x="626" y="234" type="curve" smooth="yes"/>
    </contour>
    <contour>
      <point x="387" y="816" type="line"/>
      <point x="387" y="931"/>
      <point x="387" y="1045"/>
      <point x="385" y="1160" type="curve"/>
      <point x="591" y="1160" type="line" smooth="yes"/>
      <point x="699" y="1160"/>
      <point x="837" y="1129"/>
      <point x="837" y="995" type="curve" smooth="yes"/>
      <point x="837" y="871"/>
      <point x="726" y="816"/>
      <point x="616" y="816" type="curve" smooth="yes"/>
    </contour>
  </outline>
</glyph>
<glyph name="C" format="2">
  <advance width="1214"/>
  <unicode hex="0043"/>
  <anchor x="701" y="0" name="bottom"/>
  <anchor x="684" y="1438" name="top"/>
  <outline>
    <contour>
      <point x="1027" y="315" type="curve" smooth="yes"/>
      <point x="1014" y="315"/>
      <point x="1003" y="308"/>
      <point x="993" y="301" type="curve"/>
      <point x="916" y="251"/>
      <point x="839" y="226"/>
      <point x="746" y="226" type="curve" smooth="yes"/>
      <point x="469" y="226"/>
      <point x="337" y="449"/>
      <point x="337" y="703" type="curve" smooth="yes"/>
      <point x="337" y="928"/>
      <point x="480" y="1176"/>
      <point x="729" y="1176" type="curve" smooth="yes"/>
      <point x="821" y="1176"/>
      <point x="896" y="1145"/>
      <point x="972" y="1097" type="curve" smooth="yes"/>
      <point x="982" y="1091"/>
      <point x="992" y="1084"/>
      <point x="1004" y="1084" type="curve" smooth="yes"/>
      <point x="1022" y="1084"/>
      <point x="1031" y="1101"/>
      <point x="1038" y="1115" type="curve" smooth="yes"/>
      <point x="1049" y="1136"/>
      <point x="1110" y="1273"/>
      <point x="1110" y="1287" type="curve" smooth="yes"/>
      <point x="1110" y="1302"/>
      <point x="1102" y="1309"/>
      <point x="1090" y="1317" type="curve" smooth="yes"/>
      <point x="988" y="1384"/>
      <point x="838" y="1417"/>
      <point x="717" y="1417" type="curve" smooth="yes"/>
      <point x="305" y="1417"/>
      <point x="75" y="1088"/>
      <point x="75" y="701" type="curve" smooth="yes"/>
      <point x="75" y="297"/>
      <point x="327" y="-15"/>
      <point x="747" y="-15" type="curve" smooth="yes"/>
      <point x="865" y="-15"/>
      <point x="1024" y="22"/>
      <point x="1119" y="94" type="curve"/>
      <point x="1129" y="102"/>
      <point x="1136" y="110"/>
      <point x="1136" y="123" type="curve" smooth="yes"/>
      <point x="1136" y="139"/>
      <point x="1074" y="264"/>
      <point x="1062" y="285" type="curve" smooth="yes"/>
      <point x="1054" y="299"/>
      <point x="1045" y="315"/>
    </contour>
  </outline>
</glyph>
<glyph name="D" format="2">
  <advance width="1393"/>
  <unicode hex="0044"/>
  <anchor x="701" y="0" name="bottom"/>
  <anchor x="251" y="701" name="center"/>
  <anchor x="549" y="1402" name="top"/>
  <outline>
    <contour>
      <point x="166" y="0" type="curve" smooth="yes"/>
      <point x="611" y="0" type="line" smooth="yes"/>
      <point x="1016" y="0"/>
      <point x="1305" y="269"/>
      <point x="1305" y="679" type="curve" smooth="yes"/>
      <point x="1305" y="1148"/>
      <point x="996" y="1402"/>
      <point x="542" y="1402" type="curve" smooth="yes"/>
      <point x="168" y="1402" type="line" smooth="yes"/>
      <point x="139" y="1402"/>
      <point x="128" y="1388"/>
      <point x="128" y="1360" type="curve" smooth="yes"/>
      <point x="128" y="1293"/>
      <point x="134" y="1224"/>
      <point x="137" y="1157" type="curve" smooth="yes"/>
      <point x="143" y="1010"/>
      <point x="145" y="862"/>
      <point x="145" y="714" type="curve" smooth="yes"/>
      <point x="145" y="560"/>
      <point x="142" y="407"/>
      <point x="136" y="253" type="curve" smooth="yes"/>
      <point x="133" y="183"/>
      <point x="126" y="112"/>
      <point x="126" y="42" type="curve" smooth="yes"/>
      <point x="126" y="14"/>
      <point x="137" y="0"/>
    </contour>
    <contour>
      <point x="385" y="242" type="line"/>
      <point x="389" y="406"/>
      <point x="391" y="571"/>
      <point x="391" y="735" type="curve" smooth="yes"/>
      <point x="391" y="877"/>
      <point x="389" y="1019"/>
      <point x="387" y="1161" type="curve"/>
      <point x="617" y="1161" type="line" smooth="yes"/>
      <point x="883" y="1161"/>
      <point x="1050" y="963"/>
      <point x="1050" y="705" type="curve" smooth="yes"/>
      <point x="1050" y="400"/>
      <point x="866" y="242"/>
      <point x="568" y="242" type="curve" smooth="yes"/>
    </contour>
  </outline>
</glyph>
<glyph name="E" format="2">
  <advance width="1102"/>
  <unicode hex="0045"/>
  <anchor x="565" y="0" name="bottom"/>
  <anchor x="918" y="20" name="ogonek"/>
  <anchor x="565" y="1435" name="top"/>
  <anchor x="37" y="1402" name="topleft"/>
  <outline>
    <contour>
      <point x="126" y="1360" type="curve" smooth="yes"/>
      <point x="126" y="1147"/>
      <point x="132" y="934"/>
      <point x="132" y="720" type="curve" smooth="yes"/>
      <point x="132" y="567"/>
      <point x="131" y="414"/>
      <point x="129" y="261" type="curve" smooth="yes"/>
      <point x="128" y="188"/>
      <point x="125" y="115"/>
      <point x="125" y="42" type="curve" smooth="yes"/>
      <point x="125" y="14"/>
      <point x="137" y="0"/>
      <point x="166" y="0" type="curve" smooth="yes"/>
      <point x="988" y="0" type="line" smooth="yes"/>
      <point x="1017" y="0"/>
      <point x="1029" y="14"/>
      <point x="1029" y="42" type="curve" smooth="yes"/>
      <point x="1029" y="94"/>
      <point x="1029" y="149"/>
      <point x="1026" y="201" type="curve" smooth="yes" name=".hr01"/>
      <point x="1024" y="228"/>
      <point x="1013" y="241"/>
      <point x="985" y="241" type="curve" smooth="yes"/>
      <point x="393" y="241" type="line" smooth="yes"/>
      <point x="385" y="241"/>
      <point x="381" y="245"/>
      <point x="381" y="253" type="curve" smooth="yes"/>
      <point x="381" y="363"/>
      <point x="382" y="473"/>
      <point x="382" y="583" type="curve" smooth="yes"/>
      <point x="382" y="591"/>
      <point x="386" y="595"/>
      <point x="394" y="595" type="curve" smooth="yes"/>
      <point x="886" y="595" type="line" smooth="yes"/>
      <point x="913" y="595"/>
      <point x="927" y="609"/>
      <point x="927" y="636" type="curve" smooth="yes"/>
      <point x="927" y="773" type="line" smooth="yes"/>
      <point x="927" y="800"/>
      <point x="913" y="814"/>
      <point x="886" y="814" type="curve" smooth="yes"/>
      <point x="394" y="814" type="line" smooth="yes"/>
      <point x="386" y="814"/>
      <point x="382" y="818"/>
      <point x="382" y="826" type="curve" smooth="yes"/>
      <point x="382" y="934"/>
      <point x="381" y="1041"/>
      <point x="381" y="1149" type="curve" smooth="yes"/>
      <point x="381" y="1157"/>
      <point x="385" y="1161"/>
      <point x="393" y="1161" type="curve" smooth="yes"/>
      <point x="961" y="1161" type="line" smooth="yes"/>
      <point x="989" y="1161"/>
      <point x="1000" y="1174"/>
      <point x="1002" y="1201" type="curve" smooth="yes"/>
      <point x="1005" y="1253"/>
      <point x="1004" y="1308"/>
      <point x="1004" y="1360" type="curve" smooth="yes"/>
      <point x="1004" y="1388"/>
      <point x="992" y="1402"/>
      <point x="963" y="1402" type="curve" smooth="yes"/>
      <point x="167" y="1402" type="line" smooth="yes"/>
      <point x="138" y="1402"/>
      <point x="126" y="1388"/>
    </contour>
  </outline>
</glyph>
<glyph name="F" format="2">
  <advance width="1092"/>
  <unicode hex="0046"/>
  <anchor x="553" y="0" name="bottom"/>
  <anchor x="553" y="1402" name="top"/>
  <outline>
    <contour>
      <point x="140" y="720" type="curve" smooth="yes"/>
      <point x="140" y="567"/>
      <point x="138" y="415"/>
      <point x="134" y="262" type="curve" smooth="yes"/>
      <point x="132" y="189"/>
      <point x="126" y="115"/>
      <point x="126" y="42" type="curve" smooth="yes"/>
      <point x="126" y="14"/>
      <point x="137" y="0"/>
      <point x="166" y="0" type="curve" smooth="yes"/>
      <point x="338" y="0" type="line" smooth="yes"/>
      <point x="368" y="0"/>
      <point x="377" y="13"/>
      <point x="379" y="41" type="curve" smooth="yes"/>
      <point x="384" y="96"/>
      <point x="382" y="152"/>
      <point x="383" y="207" type="curve" smooth="yes"/>
      <point x="385" y="321"/>
      <point x="385" y="436"/>
      <point x="385" y="550" type="curve" smooth="yes"/>
      <point x="385" y="552"/>
      <point x="385" y="554"/>
      <point x="385" y="556" type="curve"/>
      <point x="386" y="565"/>
      <point x="393" y="565"/>
      <point x="400" y="565" type="curve" smooth="yes"/>
      <point x="895" y="565" type="line" smooth="yes"/>
      <point x="921" y="565"/>
      <point x="935" y="580"/>
      <point x="935" y="606" type="curve" smooth="yes" name=".hr01"/>
      <point x="935" y="763" type="line" smooth="yes"/>
      <point x="935" y="790"/>
      <point x="922" y="804"/>
      <point x="895" y="804" type="curve" smooth="yes"/>
      <point x="400" y="804" type="line" smooth="yes"/>
      <point x="398" y="804"/>
      <point x="396" y="804"/>
      <point x="394" y="804" type="curve"/>
      <point x="385" y="805"/>
      <point x="385" y="812"/>
      <point x="385" y="819" type="curve" smooth="yes"/>
      <point x="385" y="930"/>
      <point x="383" y="1040"/>
      <point x="383" y="1151" type="curve" smooth="yes"/>
      <point x="383" y="1159"/>
      <point x="392" y="1160"/>
      <point x="398" y="1160" type="curve" smooth="yes"/>
      <point x="983" y="1160" type="line" smooth="yes"/>
      <point x="1011" y="1160"/>
      <point x="1021" y="1174"/>
      <point x="1024" y="1200" type="curve" smooth="yes"/>
      <point x="1030" y="1254"/>
      <point x="1029" y="1311"/>
      <point x="1029" y="1365" type="curve" smooth="yes"/>
      <point x="1029" y="1391"/>
      <point x="1014" y="1402"/>
      <point x="989" y="1402" type="curve" smooth="yes"/>
      <point x="168" y="1402" type="line" smooth="yes"/>
      <point x="143" y="1402"/>
      <point x="128" y="1391"/>
      <point x="128" y="1365" type="curve" smooth="yes"/>
      <point x="128" y="1150"/>
      <point x="140" y="935"/>
    </contour>
  </outline>
</glyph>
<glyph name="G" format="2">
  <advance width="1382"/>
  <unicode hex="0047"/>
  <anchor x="704" y="0" name="bottom"/>
  <anchor x="758" y="1402" name="top"/>
  <outline>
    <contour>
      <point x="1283" y="152" type="curve" smooth="yes"/>
      <point x="1283" y="262"/>
      <point x="1276" y="373"/>
      <point x="1273" y="483" type="curve" smooth="yes"/>
      <point x="1271" y="528"/>
      <point x="1270" y="573"/>
      <point x="1270" y="619" type="curve"/>
      <point x="1269" y="637"/>
      <point x="1271" y="658"/>
      <point x="1269" y="677" type="curve" smooth="yes"/>
      <point x="1266" y="704"/>
      <point x="1260" y="718"/>
      <point x="1229" y="718" type="curve" smooth="yes"/>
      <point x="816" y="718" type="line" smooth="yes"/>
      <point x="790" y="718"/>
      <point x="775" y="704"/>
      <point x="775" y="677" type="curve" smooth="yes"/>
      <point x="775" y="579" type="line" smooth="yes"/>
      <point x="775" y="554"/>
      <point x="791" y="538"/>
      <point x="816" y="538" type="curve" smooth="yes"/>
      <point x="1049" y="538" type="line" smooth="yes"/>
      <point x="1056" y="538"/>
      <point x="1059" y="532"/>
      <point x="1059" y="526" type="curve" smooth="yes"/>
      <point x="1059" y="451"/>
      <point x="1062" y="375"/>
      <point x="1062" y="300" type="curve" smooth="yes"/>
      <point x="1062" y="294"/>
      <point x="1057" y="290"/>
      <point x="1052" y="288" type="curve" smooth="yes"/>
      <point x="967" y="252"/>
      <point x="885" y="236"/>
      <point x="793" y="236" type="curve" smooth="yes"/>
      <point x="515" y="236"/>
      <point x="343" y="409"/>
      <point x="343" y="687" type="curve" smooth="yes"/>
      <point x="343" y="990"/>
      <point x="530" y="1165"/>
      <point x="830" y="1165" type="curve" smooth="yes"/>
      <point x="928" y="1165"/>
      <point x="1020" y="1143"/>
      <point x="1111" y="1107" type="curve" smooth="yes"/>
      <point x="1119" y="1104"/>
      <point x="1127" y="1101"/>
      <point x="1135" y="1101" type="curve" smooth="yes"/>
      <point x="1156" y="1101"/>
      <point x="1163" y="1118"/>
      <point x="1169" y="1134" type="curve" smooth="yes"/>
      <point x="1178" y="1157"/>
      <point x="1222" y="1290"/>
      <point x="1222" y="1307" type="curve" smooth="yes"/>
      <point x="1222" y="1320"/>
      <point x="1209" y="1330"/>
      <point x="1199" y="1336" type="curve"/>
      <point x="1095" y="1393"/>
      <point x="926" y="1416"/>
      <point x="808" y="1416" type="curve" smooth="yes"/>
      <point x="348" y="1416"/>
      <point x="88" y="1114"/>
      <point x="88" y="665" type="curve" smooth="yes"/>
      <point x="88" y="230"/>
      <point x="395" y="-15"/>
      <point x="814" y="-15" type="curve" smooth="yes"/>
      <point x="938" y="-15"/>
      <point x="1172" y="39"/>
      <point x="1268" y="120" type="curve" smooth="yes"/>
      <point x="1279" y="129"/>
      <point x="1283" y="138"/>
    </contour>
  </outline>
</glyph>
<glyph name="H" format="2">
  <advance width="1466"/>
  <unicode hex="0048"/>
  <anchor x="734" y="0" name="bottom"/>
  <anchor x="734" y="701" name="center"/>
  <anchor x="734" y="1402" name="top"/>
  <anchor x="3" y="1402" name="topleft"/>
  <outline>
    <contour>
      <point x="1299" y="1402" type="curve" smooth="yes"/>
      <point x="1127" y="1402" type="line" smooth="yes"/>
      <point x="1097" y="1402"/>
      <point x="1090" y="1389"/>
      <point x="1086" y="1362" type="curve" smooth="yes"/>
      <point x="1081" y="1326"/>
      <point x="1085" y="1234"/>
      <point x="1084" y="1192" type="curve" smooth="yes"/>
      <point x="1083" y="1073"/>
      <point x="1082" y="954"/>
      <point x="1082" y="835" type="curve" smooth="yes"/>
      <point x="1082" y="827"/>
      <point x="1077" y="823"/>
      <point x="1069" y="823" type="curve" smooth="yes"/>
      <point x="398" y="823" type="line" smooth="yes"/>
      <point x="390" y="823"/>
      <point x="385" y="827"/>
      <point x="385" y="835" type="curve" smooth="yes"/>
      <point x="385" y="954"/>
      <point x="384" y="1073"/>
      <point x="383" y="1192" type="curve" smooth="yes"/>
      <point x="382" y="1234"/>
      <point x="386" y="1326"/>
      <point x="381" y="1362" type="curve" smooth="yes"/>
      <point x="377" y="1389"/>
      <point x="370" y="1402"/>
      <point x="340" y="1402" type="curve" smooth="yes"/>
      <point x="167" y="1402" type="line" smooth="yes"/>
      <point x="138" y="1402"/>
      <point x="126" y="1388"/>
      <point x="126" y="1360" type="curve" smooth="yes"/>
      <point x="126" y="1292"/>
      <point x="130" y="1224"/>
      <point x="131" y="1156" type="curve" smooth="yes"/>
      <point x="134" y="1013"/>
      <point x="135" y="869"/>
      <point x="135" y="726" type="curve" smooth="yes"/>
      <point x="135" y="572"/>
      <point x="134" y="417"/>
      <point x="131" y="263" type="curve" smooth="yes"/>
      <point x="129" y="189"/>
      <point x="125" y="115"/>
      <point x="125" y="42" type="curve" smooth="yes"/>
      <point x="125" y="14"/>
      <point x="137" y="0"/>
      <point x="166" y="0" type="curve" smooth="yes"/>
      <point x="339" y="0" type="line" smooth="yes"/>
      <point x="369" y="0"/>
      <point x="376" y="13"/>
      <point x="380" y="40" type="curve" smooth="yes"/>
      <point x="385" y="75"/>
      <point x="382" y="170"/>
      <point x="382" y="212" type="curve" smooth="yes"/>
      <point x="384" y="332"/>
      <point x="385" y="452"/>
      <point x="385" y="572" type="curve" smooth="yes"/>
      <point x="385" y="580"/>
      <point x="389" y="584"/>
      <point x="397" y="584" type="curve" smooth="yes"/>
      <point x="1069" y="584" type="line" smooth="yes"/>
      <point x="1077" y="584"/>
      <point x="1082" y="580"/>
      <point x="1082" y="572" type="curve" smooth="yes"/>
      <point x="1082" y="452"/>
      <point x="1083" y="332"/>
      <point x="1085" y="212" type="curve" smooth="yes"/>
      <point x="1085" y="170"/>
      <point x="1082" y="75"/>
      <point x="1087" y="40" type="curve" smooth="yes"/>
      <point x="1091" y="13"/>
      <point x="1098" y="0"/>
      <point x="1128" y="0" type="curve" smooth="yes"/>
      <point x="1300" y="0" type="line" smooth="yes"/>
      <point x="1329" y="0"/>
      <point x="1341" y="14"/>
      <point x="1341" y="42" type="curve" smooth="yes"/>
      <point x="1341" y="115"/>
      <point x="1337" y="189"/>
      <point x="1335" y="263" type="curve" smooth="yes"/>
      <point x="1332" y="417"/>
      <point x="1331" y="572"/>
      <point x="1331" y="726" type="curve" smooth="yes"/>
      <point x="1331" y="869"/>
      <point x="1332" y="1013"/>
      <point x="1335" y="1156" type="curve" smooth="yes"/>
      <point x="1336" y="1224"/>
      <point x="1340" y="1292"/>
      <point x="1340" y="1360" type="curve" smooth="yes"/>
      <point x="1340" y="1388"/>
      <point x="1328" y="1402"/>
    </contour>
  </outline>
</glyph>
<glyph name="I" format="2">
  <advance width="485"/>
  <unicode hex="0049"/>
  <anchor x="244" y="0" name="bottom"/>
  <anchor x="303" y="20" name="ogonek"/>
  <anchor x="244" y="1435" name="top"/>
  <anchor x="-135" y="1402" name="topleft"/>
  <outline>
    <contour>
      <point x="117" y="768" type="curve" smooth="yes"/>
      <point x="117" y="525"/>
      <point x="115" y="283"/>
      <point x="115" y="41" type="curve" smooth="yes"/>
      <point x="115" y="14"/>
      <point x="129" y="0"/>
      <point x="156" y="0" type="curve" smooth="yes"/>
      <point x="329" y="0" type="line" smooth="yes"/>
      <point x="356" y="0"/>
      <point x="370" y="14"/>
      <point x="370" y="41" type="curve" smooth="yes"/>
      <point x="370" y="261"/>
      <point x="368" y="481"/>
      <point x="368" y="701" type="curve" smooth="yes"/>
      <point x="368" y="921"/>
      <point x="370" y="1141"/>
      <point x="370" y="1361" type="curve" smooth="yes"/>
      <point x="370" y="1388"/>
      <point x="355" y="1402"/>
      <point x="329" y="1402" type="curve" smooth="yes"/>
      <point x="156" y="1402" type="line" smooth="yes"/>
      <point x="126" y="1402"/>
      <point x="118" y="1388"/>
      <point x="116" y="1361" type="curve" smooth="yes"/>
      <point x="112" y="1313"/>
      <point x="117" y="1230"/>
      <point x="117" y="1178" type="curve" smooth="yes"/>
      <point x="117" y="1042"/>
      <point x="117" y="905"/>
    </contour>
  </outline>
</glyph>
<glyph name="J" format="2">
  <advance width="547"/>
  <unicode hex="004A"/>
  <anchor x="246" y="0" name="bottom"/>
  <anchor x="370" y="1435" name="top"/>
  <outline>
    <contour>
      <point x="483" y="717" type="curve" smooth="yes"/>
      <point x="483" y="932"/>
      <point x="486" y="1145"/>
      <point x="486" y="1360" type="curve" smooth="yes"/>
      <point x="486" y="1388"/>
      <point x="473" y="1402"/>
      <point x="445" y="1402" type="curve" smooth="yes"/>
      <point x="270" y="1402" type="line" smooth="yes"/>
      <point x="243" y="1402"/>
      <point x="229" y="1388"/>
      <point x="229" y="1361" type="curve" smooth="yes"/>
      <point x="229" y="1146"/>
      <point x="230" y="932"/>
      <point x="230" y="717" type="curve" smooth="yes"/>
      <point x="230" y="289" type="line" smooth="yes"/>
      <point x="230" y="171"/>
      <point x="202" y="38"/>
      <point x="87" y="-20" type="curve" smooth="yes"/>
      <point x="61" y="-33"/>
      <point x="37" y="-38"/>
      <point x="10" y="-45" type="curve" smooth="yes"/>
      <point x="-18" y="-53"/>
      <point x="-25" y="-57"/>
      <point x="-28" y="-87" type="curve" smooth="yes"/>
      <point x="-33" y="-129"/>
      <point x="-31" y="-204"/>
      <point x="-31" y="-249" type="curve" smooth="yes"/>
      <point x="-31" y="-273"/>
      <point x="-23" y="-290"/>
      <point x="4" y="-290" type="curve"/>
      <point x="11" y="-289" type="line"/>
      <point x="325" y="-257"/>
      <point x="485" y="-33"/>
      <point x="485" y="272" type="curve" smooth="yes"/>
      <point x="485" y="420"/>
      <point x="483" y="569"/>
    </contour>
  </outline>
</glyph>
<glyph name="K" format="2">
  <advance width="1221"/>
  <unicode hex="004B"/>
  <anchor x="537" y="0" name="bottom"/>
  <anchor x="625" y="1401" name="top"/>
  <outline>
    <contour>
      <point x="343" y="1401" type="curve" smooth="yes"/>
      <point x="169" y="1401" type="line" smooth="yes"/>
      <point x="140" y="1401"/>
      <point x="129" y="1387"/>
      <point x="129" y="1359" type="curve" smooth="yes"/>
      <point x="129" y="1290"/>
      <point x="135" y="1220"/>
      <point x="137" y="1151" type="curve" smooth="yes"/>
      <point x="141" y="1006"/>
      <point x="143" y="861"/>
      <point x="143" y="716" type="curve" smooth="yes"/>
      <point x="143" y="564"/>
      <point x="142" y="412"/>
      <point x="136" y="260" type="curve" smooth="yes"/>
      <point x="133" y="188"/>
      <point x="127" y="114"/>
      <point x="127" y="42" type="curve" smooth="yes"/>
      <point x="127" y="14"/>
      <point x="138" y="0"/>
      <point x="167" y="0" type="curve" smooth="yes"/>
      <point x="341" y="0" type="line" smooth="yes"/>
      <point x="371" y="0"/>
      <point x="380" y="13"/>
      <point x="383" y="41" type="curve" smooth="yes"/>
      <point x="389" y="98"/>
      <point x="385" y="158"/>
      <point x="386" y="215" type="curve" smooth="yes"/>
      <point x="388" y="335"/>
      <point x="390" y="456"/>
      <point x="390" y="576" type="curve" smooth="yes"/>
      <point x="390" y="582"/>
      <point x="392" y="586"/>
      <point x="397" y="588" type="curve"/>
      <point x="409" y="594"/>
      <point x="432" y="595"/>
      <point x="445" y="596" type="curve"/>
      <point x="449" y="595"/>
      <point x="455" y="593"/>
      <point x="458" y="590" type="curve"/>
      <point x="497" y="546"/>
      <point x="530" y="491"/>
      <point x="565" y="443" type="curve" smooth="yes"/>
      <point x="633" y="350"/>
      <point x="701" y="258"/>
      <point x="770" y="166" type="curve" smooth="yes"/>
      <point x="807" y="117"/>
      <point x="842" y="65"/>
      <point x="883" y="19" type="curve" smooth="yes"/>
      <point x="893" y="8"/>
      <point x="899" y="3"/>
      <point x="915" y="3" type="curve" smooth="yes"/>
      <point x="1109" y="3" type="line" smooth="yes"/>
      <point x="1126" y="3"/>
      <point x="1160" y="3"/>
      <point x="1160" y="28" type="curve" smooth="yes"/>
      <point x="1160" y="43"/>
      <point x="1148" y="58"/>
      <point x="1140" y="69" type="curve" smooth="yes"/>
      <point x="1091" y="136"/>
      <point x="693" y="663"/>
      <point x="692" y="690" type="curve"/>
      <point x="694" y="692"/>
      <point x="696" y="694"/>
      <point x="698" y="696" type="curve"/>
      <point x="742" y="728"/>
      <point x="787" y="756"/>
      <point x="828" y="792" type="curve" smooth="yes"/>
      <point x="997" y="940"/>
      <point x="1101" y="1133"/>
      <point x="1149" y="1351" type="curve" smooth="yes"/>
      <point x="1150" y="1356"/>
      <point x="1151" y="1362"/>
      <point x="1151" y="1367" type="curve" smooth="yes"/>
      <point x="1151" y="1394"/>
      <point x="1135" y="1401"/>
      <point x="1111" y="1401" type="curve" smooth="yes"/>
      <point x="945" y="1401" type="line" smooth="yes"/>
      <point x="917" y="1401"/>
      <point x="911" y="1389"/>
      <point x="904" y="1365" type="curve" smooth="yes"/>
      <point x="889" y="1313"/>
      <point x="881" y="1260"/>
      <point x="861" y="1209" type="curve" smooth="yes"/>
      <point x="791" y="1029"/>
      <point x="666" y="889"/>
      <point x="486" y="815" type="curve"/>
      <point x="475" y="810"/>
      <point x="413" y="787"/>
      <point x="405" y="787" type="curve" smooth="yes"/>
      <point x="393" y="787"/>
      <point x="390" y="790"/>
      <point x="390" y="801" type="curve" smooth="yes"/>
      <point x="390" y="927"/>
      <point x="390" y="1052"/>
      <point x="388" y="1178" type="curve" smooth="yes"/>
      <point x="387" y="1237"/>
      <point x="392" y="1301"/>
      <point x="384" y="1360" type="curve" smooth="yes"/>
      <point x="380" y="1388"/>
      <point x="374" y="1401"/>
    </contour>
  </outline>
</glyph>
<glyph name="L" format="2">
  <advance width="1059"/>
  <unicode hex="004C"/>
  <anchor x="535" y="0" name="bottom"/>
  <anchor x="535" y="701" name="center"/>
  <anchor x="248" y="1435" name="top"/>
  <anchor x="1032" y="1402" name="topright"/>
  <outline>
    <contour>
      <point x="126" y="1360" type="curve" smooth="yes"/>
      <point x="126" y="1147"/>
      <point x="132" y="934"/>
      <point x="132" y="720" type="curve" smooth="yes"/>
      <point x="132" y="567"/>
      <point x="131" y="414"/>
      <point x="129" y="261" type="curve" smooth="yes"/>
      <point x="128" y="188"/>
      <point x="125" y="115"/>
      <point x="125" y="42" type="curve" smooth="yes"/>
      <point x="125" y="14"/>
      <point x="137" y="0"/>
      <point x="166" y="0" type="curve" smooth="yes"/>
      <point x="945" y="0" type="line" smooth="yes"/>
      <point x="973" y="0"/>
      <point x="987" y="14"/>
      <point x="986" y="42" type="curve" smooth="yes"/>
      <point x="983" y="201" type="line" smooth="yes"/>
      <point x="982" y="228"/>
      <point x="968" y="241"/>
      <point x="942" y="241" type="curve" smooth="yes"/>
      <point x="393" y="241" type="line" smooth="yes"/>
      <point x="385" y="241"/>
      <point x="381" y="245"/>
      <point x="381" y="253" type="curve" smooth="yes"/>
      <point x="381" y="384"/>
      <point x="382" y="515"/>
      <point x="382" y="645" type="curve" smooth="yes"/>
      <point x="382" y="884"/>
      <point x="379" y="1122"/>
      <point x="379" y="1361" type="curve" smooth="yes"/>
      <point x="379" y="1389"/>
      <point x="366" y="1402"/>
      <point x="338" y="1402" type="curve" smooth="yes"/>
      <point x="167" y="1402" type="line" smooth="yes"/>
      <point x="138" y="1402"/>
      <point x="126" y="1388"/>
    </contour>
  </outline>
</glyph>
<glyph name="M" format="2">
  <advance width="1618"/>
  <unicode hex="004D"/>
  <anchor x="809" y="0" name="bottom"/>
  <anchor x="809" y="1402" name="top"/>
  <outline>
    <contour>
      <point x="166" y="0" type="curve" smooth="yes"/>
      <point x="330" y="0" type="line" smooth="yes"/>
      <point x="359" y="0"/>
      <point x="368" y="12"/>
      <point x="372" y="40" type="curve" smooth="yes"/>
      <point x="375" y="60"/>
      <point x="373" y="80"/>
      <point x="374" y="100" type="curve" smooth="yes"/>
      <point x="378" y="242" type="line" smooth="yes"/>
      <point x="382" y="383"/>
      <point x="386" y="523"/>
      <point x="386" y="664" type="curve" smooth="yes"/>
      <point x="386" y="669"/>
      <point x="385" y="685"/>
      <point x="393" y="685" type="curve" smooth="yes"/>
      <point x="399" y="685"/>
      <point x="404" y="675"/>
      <point x="407" y="671" type="curve"/>
      <point x="501" y="536"/>
      <point x="591" y="399"/>
      <point x="682" y="262" type="curve" smooth="yes"/>
      <point x="714" y="214"/>
      <point x="744" y="163"/>
      <point x="779" y="118" type="curve"/>
      <point x="789" y="106"/>
      <point x="799" y="93"/>
      <point x="816" y="93" type="curve" smooth="yes"/>
      <point x="827" y="93"/>
      <point x="841" y="112"/>
      <point x="847" y="120" type="curve" smooth="yes"/>
      <point x="885" y="172"/>
      <point x="917" y="231"/>
      <point x="951" y="286" type="curve" smooth="yes"/>
      <point x="1035" y="421"/>
      <point x="1119" y="555"/>
      <point x="1203" y="689" type="curve" smooth="yes"/>
      <point x="1206" y="694"/>
      <point x="1209" y="700"/>
      <point x="1214" y="704" type="curve"/>
      <point x="1222" y="703" type="line"/>
      <point x="1225" y="697"/>
      <point x="1224" y="690"/>
      <point x="1224" y="683" type="curve" smooth="yes"/>
      <point x="1224" y="538"/>
      <point x="1228" y="393"/>
      <point x="1232" y="248" type="curve" smooth="yes"/>
      <point x="1236" y="102" type="line" smooth="yes"/>
      <point x="1237" y="81"/>
      <point x="1235" y="60"/>
      <point x="1238" y="40" type="curve" smooth="yes"/>
      <point x="1242" y="12"/>
      <point x="1251" y="0"/>
      <point x="1280" y="0" type="curve" smooth="yes"/>
      <point x="1452" y="0" type="line" smooth="yes"/>
      <point x="1481" y="0"/>
      <point x="1492" y="14"/>
      <point x="1492" y="42" type="curve" smooth="yes"/>
      <point x="1492" y="115"/>
      <point x="1483" y="190"/>
      <point x="1480" y="263" type="curve" smooth="yes"/>
      <point x="1473" y="417"/>
      <point x="1470" y="570"/>
      <point x="1470" y="724" type="curve" smooth="yes"/>
      <point x="1470" y="919"/>
      <point x="1480" y="1114"/>
      <point x="1486" y="1309" type="curve"/>
      <point x="1486" y="1319" type="line" smooth="yes"/>
      <point x="1486" y="1334"/>
      <point x="1488" y="1383"/>
      <point x="1467" y="1383" type="curve" smooth="yes"/>
      <point x="1466" y="1383"/>
      <point x="1462" y="1381"/>
      <point x="1461" y="1381" type="curve"/>
      <point x="1386" y="1347"/>
      <point x="911" y="602"/>
      <point x="812" y="475" type="curve"/>
      <point x="810" y="473"/>
      <point x="804" y="468"/>
      <point x="801" y="468" type="curve" smooth="yes"/>
      <point x="799" y="468"/>
      <point x="793" y="473"/>
      <point x="792" y="474" type="curve"/>
      <point x="687" y="611"/>
      <point x="241" y="1333"/>
      <point x="157" y="1379" type="curve"/>
      <point x="155" y="1380"/>
      <point x="153" y="1381"/>
      <point x="151" y="1381" type="curve" smooth="yes"/>
      <point x="132" y="1381"/>
      <point x="132" y="1341"/>
      <point x="132" y="1329" type="curve" smooth="yes"/>
      <point x="132" y="1321"/>
      <point x="132" y="1314"/>
      <point x="132" y="1307" type="curve"/>
      <point x="138" y="1112"/>
      <point x="148" y="919"/>
      <point x="148" y="724" type="curve" smooth="yes"/>
      <point x="148" y="570"/>
      <point x="145" y="417"/>
      <point x="138" y="263" type="curve" smooth="yes"/>
      <point x="135" y="190"/>
      <point x="126" y="115"/>
      <point x="126" y="42" type="curve" smooth="yes"/>
      <point x="126" y="14"/>
      <point x="137" y="0"/>
    </contour>
  </outline>
</glyph>
<glyph name="N" format="2">
  <advance width="1470"/>
  <unicode hex="004E"/>
  <anchor x="737" y="0" name="bottom"/>
  <anchor x="702" y="1402" name="top"/>
  <outline>
    <contour>
      <point x="1324" y="711" type="curve" smooth="yes"/>
      <point x="1324" y="857"/>
      <point x="1327" y="1004"/>
      <point x="1332" y="1150" type="curve" smooth="yes"/>
      <point x="1335" y="1220"/>
      <point x="1342" y="1290"/>
      <point x="1342" y="1360" type="curve" smooth="yes"/>
      <point x="1342" y="1388"/>
      <point x="1331" y="1402"/>
      <point x="1302" y="1402" type="curve" smooth="yes"/>
      <point x="1130" y="1402" type="line" smooth="yes"/>
      <point x="1099" y="1402"/>
      <point x="1093" y="1389"/>
      <point x="1089" y="1361" type="curve" smooth="yes"/>
      <point x="1083" y="1316"/>
      <point x="1086" y="1269"/>
      <point x="1086" y="1224" type="curve" smooth="yes"/>
      <point x="1086" y="1118"/>
      <point x="1083" y="1013"/>
      <point x="1082" y="907" type="curve" smooth="yes"/>
      <point x="1081" y="783"/>
      <point x="1083" y="660"/>
      <point x="1083" y="536" type="curve" smooth="yes"/>
      <point x="1083" y="530"/>
      <point x="1082" y="523"/>
      <point x="1076" y="519" type="curve"/>
      <point x="1072" y="520"/>
      <point x="1065" y="524"/>
      <point x="1062" y="527" type="curve"/>
      <point x="951" y="631"/>
      <point x="845" y="742"/>
      <point x="738" y="850" type="curve" smooth="yes"/>
      <point x="544" y="1048"/>
      <point x="349" y="1245"/>
      <point x="144" y="1432" type="curve"/>
      <point x="138" y="1437"/>
      <point x="134" y="1439"/>
      <point x="126" y="1439" type="curve"/>
      <point x="124" y="1434" type="line"/>
      <point x="126" y="1358"/>
      <point x="133" y="1281"/>
      <point x="136" y="1205" type="curve" smooth="yes"/>
      <point x="143" y="1045"/>
      <point x="146" y="886"/>
      <point x="146" y="726" type="curve" smooth="yes"/>
      <point x="146" y="574"/>
      <point x="145" y="422"/>
      <point x="138" y="271" type="curve" smooth="yes"/>
      <point x="134" y="195"/>
      <point x="126" y="118"/>
      <point x="126" y="42" type="curve" smooth="yes"/>
      <point x="126" y="14"/>
      <point x="137" y="0"/>
      <point x="166" y="0" type="curve" smooth="yes"/>
      <point x="343" y="0" type="line" smooth="yes"/>
      <point x="373" y="0"/>
      <point x="380" y="12"/>
      <point x="385" y="40" type="curve" smooth="yes"/>
      <point x="392" y="80"/>
      <point x="388" y="123"/>
      <point x="388" y="163" type="curve" smooth="yes"/>
      <point x="388" y="270"/>
      <point x="392" y="377"/>
      <point x="392" y="484" type="curve" smooth="yes"/>
      <point x="392" y="605"/>
      <point x="391" y="726"/>
      <point x="391" y="847" type="curve" smooth="yes"/>
      <point x="391" y="850"/>
      <point x="392" y="855"/>
      <point x="392" y="858" type="curve"/>
      <point x="396" y="863" type="line"/>
      <point x="398" y="863"/>
      <point x="401" y="862"/>
      <point x="403" y="860" type="curve"/>
      <point x="700" y="590"/>
      <point x="969" y="288"/>
      <point x="1273" y="25" type="curve" smooth="yes"/>
      <point x="1284" y="15"/>
      <point x="1302" y="-1"/>
      <point x="1319" y="-1" type="curve" smooth="yes"/>
      <point x="1340" y="-1"/>
      <point x="1341" y="30"/>
      <point x="1341" y="45" type="curve" smooth="yes"/>
      <point x="1341" y="58" type="line"/>
      <point x="1329" y="275"/>
      <point x="1324" y="493"/>
    </contour>
  </outline>
</glyph>
<glyph name="O" format="2">
  <advance width="1485"/>
  <unicode hex="004F"/>
  <anchor x="742" y="0" name="bottom"/>
  <anchor x="742" y="701" name="center"/>
  <anchor x="1048" y="20" name="ogonek"/>
  <anchor x="742" y="1418" name="top"/>
  <anchor x="12" y="1402" name="topleft"/>
  <anchor x="883" y="1605" name="topright"/>
  <outline>
    <contour>
      <point x="78" y="699" type="curve" smooth="yes"/>
      <point x="78" y="321"/>
      <point x="347" y="-15"/>
      <point x="741" y="-15" type="curve" smooth="yes"/>
      <point x="1127" y="-15"/>
      <point x="1409" y="323"/>
      <point x="1409" y="696" type="curve" smooth="yes"/>
      <point x="1409" y="1069"/>
      <point x="1129" y="1415"/>
      <point x="741" y="1415" type="curve" smooth="yes"/>
      <point x="352" y="1415"/>
      <point x="78" y="1072"/>
    </contour>
    <contour>
      <point x="750" y="226" type="curve" smooth="yes"/>
      <point x="494" y="226"/>
      <point x="335" y="465"/>
      <point x="335" y="702" type="curve" smooth="yes"/>
      <point x="335" y="935"/>
      <point x="489" y="1176"/>
      <point x="742" y="1176" type="curve" smooth="yes"/>
      <point x="999" y="1176"/>
      <point x="1148" y="934"/>
      <point x="1148" y="699" type="curve" smooth="yes"/>
      <point x="1148" y="468"/>
      <point x="1005" y="226"/>
    </contour>
  </outline>
</glyph>
<glyph name="P" format="2">
  <advance width="1278"/>
  <unicode hex="0050"/>
  <anchor x="624" y="0" name="bottom"/>
  <anchor x="624" y="1402" name="top"/>
  <outline>
    <contour>
      <point x="126" y="1360" type="curve" smooth="yes"/>
      <point x="126" y="1286"/>
      <point x="129" y="1212"/>
      <point x="130" y="1138" type="curve" smooth="yes"/>
      <point x="132" y="998"/>
      <point x="133" y="857"/>
      <point x="133" y="717" type="curve" smooth="yes"/>
      <point x="133" y="565"/>
      <point x="133" y="412"/>
      <point x="130" y="260" type="curve" smooth="yes"/>
      <point x="129" y="188"/>
      <point x="125" y="114"/>
      <point x="125" y="42" type="curve" smooth="yes"/>
      <point x="125" y="14"/>
      <point x="137" y="0"/>
      <point x="166" y="0" type="curve" smooth="yes"/>
      <point x="339" y="0" type="line" smooth="yes"/>
      <point x="369" y="0"/>
      <point x="377" y="13"/>
      <point x="380" y="40" type="curve" smooth="yes"/>
      <point x="385" y="82"/>
      <point x="381" y="129"/>
      <point x="381" y="171" type="curve" smooth="yes"/>
      <point x="382" y="265"/>
      <point x="383" y="360"/>
      <point x="383" y="454" type="curve" smooth="yes"/>
      <point x="383" y="462"/>
      <point x="387" y="466"/>
      <point x="395" y="466" type="curve" smooth="yes"/>
      <point x="651" y="466" type="line" smooth="yes"/>
      <point x="883" y="466"/>
      <point x="1123" y="556"/>
      <point x="1199" y="795" type="curve" smooth="yes"/>
      <point x="1213" y="841"/>
      <point x="1222" y="893"/>
      <point x="1222" y="941" type="curve" smooth="yes"/>
      <point x="1222" y="1285"/>
      <point x="913" y="1402"/>
      <point x="617" y="1402" type="curve" smooth="yes"/>
      <point x="167" y="1402" type="line" smooth="yes"/>
      <point x="138" y="1402"/>
      <point x="126" y="1388"/>
    </contour>
    <contour>
      <point x="384" y="708" type="line"/>
      <point x="384" y="859"/>
      <point x="383" y="1010"/>
      <point x="382" y="1161" type="curve"/>
      <point x="661" y="1162" type="line" smooth="yes"/>
      <point x="774" y="1162"/>
      <point x="910" y="1115"/>
      <point x="957" y="1003" type="curve" smooth="yes"/>
      <point x="966" y="982"/>
      <point x="973" y="957"/>
      <point x="973" y="934" type="curve" smooth="yes"/>
      <point x="973" y="911"/>
      <point x="965" y="883"/>
      <point x="956" y="862" type="curve" smooth="yes"/>
      <point x="906" y="748"/>
      <point x="764" y="708"/>
      <point x="650" y="708" type="curve" smooth="yes"/>
    </contour>
  </outline>
</glyph>
<glyph name="Q" format="2">
  <advance width="1485"/>
  <unicode hex="0051"/>
  <anchor x="759" y="0" name="bottom"/>
  <anchor x="759" y="1402" name="top"/>
  <outline>
    <contour>
      <point x="78" y="699" type="curve" smooth="yes"/>
      <point x="78" y="321"/>
      <point x="347" y="-15"/>
      <point x="741" y="-15" type="curve" smooth="yes"/>
      <point x="804" y="-15"/>
      <point x="864" y="-5"/>
      <point x="924" y="12" type="curve"/>
      <point x="925" y="12"/>
      <point x="927" y="13"/>
      <point x="929" y="13" type="curve" smooth="yes"/>
      <point x="941" y="13"/>
      <point x="1004" y="-100"/>
      <point x="1017" y="-117" type="curve"/>
      <point x="1026" y="-130"/>
      <point x="1035" y="-136"/>
      <point x="1051" y="-136" type="curve" smooth="yes"/>
      <point x="1201" y="-136" type="line" smooth="yes"/>
      <point x="1217" y="-136"/>
      <point x="1251" y="-134"/>
      <point x="1251" y="-109" type="curve" smooth="yes"/>
      <point x="1251" y="-76"/>
      <point x="1122" y="89"/>
      <point x="1122" y="107" type="curve" smooth="yes"/>
      <point x="1122" y="111"/>
      <point x="1124" y="114"/>
      <point x="1127" y="116" type="curve"/>
      <point x="1306" y="260"/>
      <point x="1407" y="463"/>
      <point x="1407" y="694" type="curve" smooth="yes"/>
      <point x="1407" y="1067"/>
      <point x="1132" y="1417"/>
      <point x="741" y="1417" type="curve" smooth="yes"/>
      <point x="353" y="1417"/>
      <point x="78" y="1071"/>
    </contour>
    <contour>
      <point x="884" y="478" type="line"/>
      <point x="651" y="471" type="line"/>
      <point x="700" y="390"/>
      <point x="750" y="310"/>
      <point x="800" y="229" type="curve"/>
      <point x="783" y="227"/>
      <point x="767" y="226"/>
      <point x="750" y="226" type="curve" smooth="yes"/>
      <point x="497" y="226"/>
      <point x="337" y="461"/>
      <point x="337" y="696" type="curve" smooth="yes"/>
      <point x="337" y="931"/>
      <point x="483" y="1176"/>
      <point x="742" y="1176" type="curve" smooth="yes"/>
      <point x="993" y="1176"/>
      <point x="1148" y="938"/>
      <point x="1148" y="706" type="curve" smooth="yes"/>
      <point x="1148" y="559"/>
      <point x="1101" y="412"/>
      <point x="987" y="314" type="curve"/>
    </contour>
  </outline>
</glyph>
<glyph name="R" format="2">
  <advance width="1217"/>
  <unicode hex="0052"/>
  <anchor x="613" y="0" name="bottom"/>
  <anchor x="543" y="1435" name="top"/>
  <outline>
    <contour>
      <point x="538" y="1402" type="curve" smooth="yes"/>
      <point x="167" y="1402" type="line" smooth="yes"/>
      <point x="138" y="1402"/>
      <point x="126" y="1388"/>
      <point x="126" y="1360" type="curve" smooth="yes"/>
      <point x="126" y="1291"/>
      <point x="129" y="1222"/>
      <point x="130" y="1153" type="curve" smooth="yes"/>
      <point x="132" y="1008"/>
      <point x="133" y="862"/>
      <point x="133" y="717" type="curve" smooth="yes"/>
      <point x="133" y="565"/>
      <point x="131" y="412"/>
      <point x="129" y="260" type="curve" smooth="yes"/>
      <point x="128" y="187"/>
      <point x="125" y="114"/>
      <point x="125" y="42" type="curve" smooth="yes"/>
      <point x="125" y="14"/>
      <point x="137" y="0"/>
      <point x="166" y="0" type="curve" smooth="yes"/>
      <point x="339" y="0" type="line" smooth="yes"/>
      <point x="370" y="0"/>
      <point x="377" y="13"/>
      <point x="380" y="40" type="curve" smooth="yes"/>
      <point x="385" y="80"/>
      <point x="381" y="137"/>
      <point x="381" y="179" type="curve" smooth="yes"/>
      <point x="382" y="271"/>
      <point x="383" y="364"/>
      <point x="383" y="456" type="curve" smooth="yes"/>
      <point x="383" y="464"/>
      <point x="387" y="468"/>
      <point x="395" y="468" type="curve" smooth="yes"/>
      <point x="574" y="468" type="line" smooth="yes"/>
      <point x="578" y="468"/>
      <point x="582" y="467"/>
      <point x="584" y="463" type="curve"/>
      <point x="658" y="355"/>
      <point x="727" y="243"/>
      <point x="799" y="133" type="curve" smooth="yes"/>
      <point x="824" y="95"/>
      <point x="848" y="54"/>
      <point x="875" y="18" type="curve" smooth="yes"/>
      <point x="884" y="6"/>
      <point x="893" y="0"/>
      <point x="909" y="0" type="curve" smooth="yes"/>
      <point x="1108" y="0" type="line" smooth="yes"/>
      <point x="1124" y="0"/>
      <point x="1157" y="1"/>
      <point x="1157" y="26" type="curve" smooth="yes"/>
      <point x="1157" y="40"/>
      <point x="1149" y="53"/>
      <point x="1142" y="64" type="curve" smooth="yes"/>
      <point x="1112" y="112"/>
      <point x="850" y="512"/>
      <point x="850" y="524" type="curve" smooth="yes"/>
      <point x="850" y="529"/>
      <point x="853" y="532"/>
      <point x="857" y="534" type="curve"/>
      <point x="1003" y="625"/>
      <point x="1067" y="772"/>
      <point x="1067" y="941" type="curve" smooth="yes"/>
      <point x="1067" y="1263"/>
      <point x="835" y="1402"/>
    </contour>
    <contour>
      <point x="383" y="708" type="line"/>
      <point x="383" y="859"/>
      <point x="383" y="1010"/>
      <point x="382" y="1161" type="curve"/>
      <point x="583" y="1161" type="line" smooth="yes"/>
      <point x="725" y="1161"/>
      <point x="808" y="1073"/>
      <point x="808" y="932" type="curve" smooth="yes"/>
      <point x="808" y="799"/>
      <point x="717" y="708"/>
      <point x="584" y="708" type="curve" smooth="yes"/>
    </contour>
  </outline>
</glyph>
<glyph name="S" format="2">
  <advance width="956"/>
  <unicode hex="0053"/>
  <anchor x="437" y="-16" name="bottom"/>
  <anchor x="437" y="1406" name="top"/>
  <outline>
    <contour>
      <point x="824" y="1330" type="curve" smooth="yes"/>
      <point x="824" y="1349"/>
      <point x="814" y="1356"/>
      <point x="798" y="1363" type="curve" smooth="yes"/>
      <point x="726" y="1395"/>
      <point x="610" y="1410"/>
      <point x="531" y="1410" type="curve" smooth="yes"/>
      <point x="293" y="1410"/>
      <point x="81" y="1304"/>
      <point x="81" y="1038" type="curve" smooth="yes"/>
      <point x="81" y="611"/>
      <point x="618" y="727"/>
      <point x="618" y="397" type="curve" smooth="yes"/>
      <point x="618" y="249"/>
      <point x="489" y="205"/>
      <point x="363" y="205" type="curve" smooth="yes"/>
      <point x="294" y="205"/>
      <point x="228" y="220"/>
      <point x="162" y="239" type="curve"/>
      <point x="156" y="241"/>
      <point x="150" y="243"/>
      <point x="143" y="243" type="curve" smooth="yes"/>
      <point x="121" y="243"/>
      <point x="114" y="228"/>
      <point x="108" y="210" type="curve" smooth="yes"/>
      <point x="103" y="195"/>
      <point x="71" y="72"/>
      <point x="71" y="61" type="curve" smooth="yes"/>
      <point x="71" y="41"/>
      <point x="82" y="34"/>
      <point x="99" y="27" type="curve" smooth="yes"/>
      <point x="177" y="-4"/>
      <point x="303" y="-15"/>
      <point x="387" y="-15" type="curve" smooth="yes"/>
      <point x="648" y="-15"/>
      <point x="886" y="91"/>
      <point x="886" y="387" type="curve" smooth="yes"/>
      <point x="886" y="818"/>
      <point x="362" y="730"/>
      <point x="362" y="1032" type="curve" smooth="yes"/>
      <point x="362" y="1149"/>
      <point x="474" y="1188"/>
      <point x="573" y="1188" type="curve" smooth="yes"/>
      <point x="629" y="1188"/>
      <point x="682" y="1176"/>
      <point x="734" y="1159" type="curve"/>
      <point x="742" y="1156"/>
      <point x="749" y="1154"/>
      <point x="757" y="1154" type="curve" smooth="yes"/>
      <point x="780" y="1154"/>
      <point x="786" y="1171"/>
      <point x="792" y="1189" type="curve" smooth="yes"/>
      <point x="797" y="1204"/>
      <point x="824" y="1319"/>
    </contour>
  </outline>
</glyph>
<glyph name="T" format="2">
  <advance width="1051"/>
  <unicode hex="0054"/>
  <anchor x="526" y="0" name="bottom"/>
  <anchor x="526" y="701" name="center"/>
  <anchor x="526" y="1402" name="top"/>
  <outline>
    <contour>
      <point x="61" y="1360" type="curve" smooth="yes"/>
      <point x="61" y="1308"/>
      <point x="60" y="1254"/>
      <point x="64" y="1202" type="curve" smooth="yes"/>
      <point x="66" y="1175"/>
      <point x="76" y="1161"/>
      <point x="105" y="1161" type="curve" smooth="yes"/>
      <point x="381" y="1161" type="line" smooth="yes"/>
      <point x="389" y="1161"/>
      <point x="394" y="1157"/>
      <point x="394" y="1149" type="curve" smooth="yes"/>
      <point x="394" y="1005"/>
      <point x="395" y="861"/>
      <point x="395" y="717" type="curve" smooth="yes"/>
      <point x="395" y="492"/>
      <point x="392" y="266"/>
      <point x="392" y="41" type="curve" smooth="yes"/>
      <point x="392" y="14"/>
      <point x="405" y="0"/>
      <point x="433" y="0" type="curve" smooth="yes"/>
      <point x="606" y="0" type="line" smooth="yes"/>
      <point x="635" y="0"/>
      <point x="646" y="13"/>
      <point x="647" y="41" type="curve" smooth="yes"/>
      <point x="650" y="113"/>
      <point x="646" y="187"/>
      <point x="646" y="259" type="curve" smooth="yes"/>
      <point x="645" y="412"/>
      <point x="645" y="564"/>
      <point x="645" y="717" type="curve" smooth="yes"/>
      <point x="645" y="861"/>
      <point x="646" y="1005"/>
      <point x="646" y="1149" type="curve" smooth="yes"/>
      <point x="646" y="1157"/>
      <point x="650" y="1161"/>
      <point x="658" y="1161" type="curve" smooth="yes"/>
      <point x="947" y="1161" type="line" smooth="yes"/>
      <point x="976" y="1161"/>
      <point x="986" y="1175"/>
      <point x="988" y="1202" type="curve" smooth="yes"/>
      <point x="992" y="1254"/>
      <point x="991" y="1308"/>
      <point x="991" y="1360" type="curve" smooth="yes"/>
      <point x="991" y="1388"/>
      <point x="979" y="1402"/>
      <point x="950" y="1402" type="curve" smooth="yes"/>
      <point x="102" y="1402" type="line" smooth="yes"/>
      <point x="73" y="1402"/>
      <point x="61" y="1388"/>
    </contour>
  </outline>
</glyph>
<glyph name="U" format="2">
  <advance width="1352"/>
  <unicode hex="0055"/>
  <anchor x="677" y="0" name="bottom"/>
  <anchor x="988" y="20" name="ogonek"/>
  <anchor x="677" y="1435" name="top"/>
  <anchor x="1223" y="1485" name="topright"/>
  <outline>
    <contour>
      <point x="366" y="750" type="curve" smooth="yes"/>
      <point x="366" y="888"/>
      <point x="365" y="1027"/>
      <point x="364" y="1166" type="curve" smooth="yes"/>
      <point x="363" y="1313" type="line"/>
      <point x="362" y="1362" type="line"/>
      <point x="359" y="1389"/>
      <point x="350" y="1402"/>
      <point x="321" y="1402" type="curve" smooth="yes"/>
      <point x="148" y="1402" type="line" smooth="yes"/>
      <point x="119" y="1402"/>
      <point x="107" y="1388"/>
      <point x="107" y="1360" type="curve" smooth="yes"/>
      <point x="107" y="1287"/>
      <point x="110" y="1214"/>
      <point x="112" y="1142" type="curve" smooth="yes"/>
      <point x="114" y="1004"/>
      <point x="115" y="867"/>
      <point x="115" y="729" type="curve" smooth="yes"/>
      <point x="115" y="655"/>
      <point x="114" y="580"/>
      <point x="114" y="506" type="curve" smooth="yes"/>
      <point x="114" y="185"/>
      <point x="367" y="-15"/>
      <point x="675" y="-15" type="curve" smooth="yes"/>
      <point x="984" y="-15"/>
      <point x="1236" y="185"/>
      <point x="1238" y="506" type="curve" smooth="yes"/>
      <point x="1238" y="580"/>
      <point x="1237" y="655"/>
      <point x="1237" y="729" type="curve" smooth="yes"/>
      <point x="1237" y="867"/>
      <point x="1238" y="1004"/>
      <point x="1240" y="1142" type="curve" smooth="yes"/>
      <point x="1242" y="1214"/>
      <point x="1245" y="1287"/>
      <point x="1245" y="1360" type="curve" smooth="yes"/>
      <point x="1245" y="1388"/>
      <point x="1233" y="1402"/>
      <point x="1204" y="1402" type="curve" smooth="yes"/>
      <point x="1035" y="1402" type="line" smooth="yes"/>
      <point x="1006" y="1402"/>
      <point x="997" y="1389"/>
      <point x="994" y="1362" type="curve"/>
      <point x="993" y="1313" type="line"/>
      <point x="992" y="1166" type="line" smooth="yes"/>
      <point x="991" y="1027"/>
      <point x="990" y="888"/>
      <point x="990" y="750" type="curve" smooth="yes"/>
      <point x="990" y="670"/>
      <point x="991" y="591"/>
      <point x="991" y="512" type="curve" smooth="yes"/>
      <point x="991" y="328"/>
      <point x="855" y="228"/>
      <point x="680" y="228" type="curve" smooth="yes"/>
      <point x="511" y="228"/>
      <point x="365" y="332"/>
      <point x="365" y="512" type="curve" smooth="yes"/>
      <point x="365" y="591"/>
      <point x="366" y="670"/>
    </contour>
  </outline>
</glyph>
<glyph name="V" format="2">
  <advance width="1268"/>
  <unicode hex="0056"/>
  <anchor x="635" y="0" name="bottom"/>
  <anchor x="635" y="1402" name="top"/>
  <outline>
    <contour>
      <point x="320" y="1402" type="curve" smooth="yes"/>
      <point x="105" y="1402" type="line" smooth="yes"/>
      <point x="86" y="1402"/>
      <point x="61" y="1398"/>
      <point x="61" y="1373" type="curve" smooth="yes"/>
      <point x="61" y="1363"/>
      <point x="64" y="1354"/>
      <point x="68" y="1345" type="curve" smooth="yes"/>
      <point x="179" y="1077"/>
      <point x="288" y="809"/>
      <point x="395" y="540" type="curve" smooth="yes"/>
      <point x="529" y="200" type="line" smooth="yes"/>
      <point x="551" y="143"/>
      <point x="573" y="86"/>
      <point x="597" y="30" type="curve" smooth="yes"/>
      <point x="602" y="18"/>
      <point x="616" y="-17"/>
      <point x="635" y="-17" type="curve" smooth="yes"/>
      <point x="654" y="-17"/>
      <point x="668" y="18"/>
      <point x="673" y="30" type="curve" smooth="yes"/>
      <point x="697" y="86"/>
      <point x="718" y="143"/>
      <point x="740" y="200" type="curve" smooth="yes"/>
      <point x="875" y="540" type="line" smooth="yes"/>
      <point x="981" y="809"/>
      <point x="1091" y="1077"/>
      <point x="1202" y="1345" type="curve" smooth="yes"/>
      <point x="1206" y="1354"/>
      <point x="1208" y="1363"/>
      <point x="1208" y="1373" type="curve" smooth="yes"/>
      <point x="1208" y="1398"/>
      <point x="1183" y="1402"/>
      <point x="1164" y="1402" type="curve" smooth="yes"/>
      <point x="954" y="1402" type="line" smooth="yes"/>
      <point x="933" y="1402"/>
      <point x="923" y="1393"/>
      <point x="915" y="1374" type="curve" smooth="yes"/>
      <point x="905" y="1351"/>
      <point x="897" y="1324"/>
      <point x="889" y="1300" type="curve" smooth="yes"/>
      <point x="839" y="1152" type="line" smooth="yes"/>
      <point x="778" y="971"/>
      <point x="721" y="788"/>
      <point x="658" y="607" type="curve" smooth="yes"/>
      <point x="657" y="604"/>
      <point x="652" y="590"/>
      <point x="646" y="590" type="curve" smooth="yes"/>
      <point x="640" y="590"/>
      <point x="635" y="604"/>
      <point x="634" y="607" type="curve"/>
      <point x="567" y="788"/>
      <point x="506" y="972"/>
      <point x="440" y="1153" type="curve" smooth="yes"/>
      <point x="386" y="1301" type="line" smooth="yes"/>
      <point x="377" y="1325"/>
      <point x="369" y="1352"/>
      <point x="358" y="1375" type="curve"/>
      <point x="350" y="1393"/>
      <point x="341" y="1402"/>
    </contour>
  </outline>
</glyph>
<glyph name="W" format="2">
  <advance width="1827"/>
  <unicode hex="0057"/>
  <anchor x="915" y="0" name="bottom"/>
  <anchor x="915" y="1418" name="top"/>
  <outline>
    <contour>
      <point x="583" y="-17" type="curve" smooth="yes"/>
      <point x="602" y="-17"/>
      <point x="616" y="16"/>
      <point x="622" y="28" type="curve" smooth="yes"/>
      <point x="652" y="88"/>
      <point x="678" y="152"/>
      <point x="705" y="213" type="curve" smooth="yes"/>
      <point x="784" y="390"/>
      <point x="858" y="569"/>
      <point x="938" y="745" type="curve"/>
      <point x="940" y="749"/>
      <point x="944" y="759"/>
      <point x="950" y="759" type="curve" smooth="yes"/>
      <point x="956" y="759"/>
      <point x="960" y="748"/>
      <point x="961" y="744" type="curve"/>
      <point x="1029" y="571"/>
      <point x="1091" y="396"/>
      <point x="1158" y="223" type="curve" smooth="yes"/>
      <point x="1181" y="163"/>
      <point x="1202" y="102"/>
      <point x="1228" y="43" type="curve" smooth="yes"/>
      <point x="1233" y="31"/>
      <point x="1248" y="-9"/>
      <point x="1267" y="-9" type="curve" smooth="yes"/>
      <point x="1287" y="-9"/>
      <point x="1300" y="33"/>
      <point x="1304" y="45" type="curve" smooth="yes"/>
      <point x="1324" y="101"/>
      <point x="1342" y="158"/>
      <point x="1361" y="214" type="curve" smooth="yes"/>
      <point x="1399" y="327"/>
      <point x="1437" y="439"/>
      <point x="1475" y="551" type="curve" smooth="yes"/>
      <point x="1566" y="818"/>
      <point x="1663" y="1082"/>
      <point x="1763" y="1346" type="curve" smooth="yes"/>
      <point x="1766" y="1354"/>
      <point x="1769" y="1363"/>
      <point x="1769" y="1372" type="curve" smooth="yes"/>
      <point x="1769" y="1397"/>
      <point x="1744" y="1402"/>
      <point x="1724" y="1402" type="curve" smooth="yes"/>
      <point x="1542" y="1402" type="line" smooth="yes"/>
      <point x="1520" y="1402"/>
      <point x="1511" y="1392"/>
      <point x="1503" y="1373" type="curve"/>
      <point x="1494" y="1349"/>
      <point x="1487" y="1323"/>
      <point x="1480" y="1298" type="curve" smooth="yes"/>
      <point x="1465" y="1248"/>
      <point x="1450" y="1197"/>
      <point x="1435" y="1147" type="curve" smooth="yes" name=".hr01"/>
      <point x="1381" y="962"/>
      <point x="1333" y="776"/>
      <point x="1279" y="591" type="curve"/>
      <point x="1278" y="588"/>
      <point x="1274" y="572"/>
      <point x="1268" y="572" type="curve" smooth="yes"/>
      <point x="1262" y="572"/>
      <point x="1256" y="587"/>
      <point x="1255" y="590" type="curve"/>
      <point x="1185" y="774"/>
      <point x="1121" y="961"/>
      <point x="1055" y="1147" type="curve" smooth="yes"/>
      <point x="1001" y="1299" type="line" smooth="yes"/>
      <point x="992" y="1324"/>
      <point x="985" y="1351"/>
      <point x="974" y="1375" type="curve" smooth="yes"/>
      <point x="966" y="1393"/>
      <point x="956" y="1402"/>
      <point x="935" y="1402" type="curve" smooth="yes"/>
      <point x="772" y="1402" type="line" smooth="yes"/>
      <point x="752" y="1402"/>
      <point x="728" y="1397"/>
      <point x="728" y="1372" type="curve" smooth="yes"/>
      <point x="728" y="1351"/>
      <point x="814" y="1137"/>
      <point x="828" y="1099" type="curve"/>
      <point x="828" y="1090" type="line"/>
      <point x="763" y="912"/>
      <point x="701" y="733"/>
      <point x="632" y="557" type="curve"/>
      <point x="631" y="554"/>
      <point x="626" y="540"/>
      <point x="620" y="540" type="curve" smooth="yes"/>
      <point x="614" y="540"/>
      <point x="609" y="555"/>
      <point x="608" y="558" type="curve" smooth="yes"/>
      <point x="546" y="751"/>
      <point x="491" y="945"/>
      <point x="429" y="1138" type="curve" smooth="yes"/>
      <point x="412" y="1191"/>
      <point x="394" y="1243"/>
      <point x="377" y="1295" type="curve" smooth="yes"/>
      <point x="369" y="1321"/>
      <point x="361" y="1349"/>
      <point x="351" y="1374" type="curve" smooth="yes"/>
      <point x="343" y="1393"/>
      <point x="333" y="1402"/>
      <point x="312" y="1402" type="curve" smooth="yes"/>
      <point x="104" y="1402" type="line" smooth="yes"/>
      <point x="84" y="1402"/>
      <point x="60" y="1397"/>
      <point x="60" y="1372" type="curve" smooth="yes"/>
      <point x="60" y="1363"/>
      <point x="63" y="1354"/>
      <point x="66" y="1345" type="curve"/>
      <point x="170" y="1079"/>
      <point x="271" y="813"/>
      <point x="367" y="543" type="curve" smooth="yes"/>
      <point x="407" y="430"/>
      <point x="447" y="316"/>
      <point x="487" y="202" type="curve" smooth="yes"/>
      <point x="507" y="145"/>
      <point x="525" y="88"/>
      <point x="546" y="32" type="curve"/>
      <point x="551" y="20"/>
      <point x="564" y="-17"/>
    </contour>
  </outline>
</glyph>
<glyph name="X" format="2">
  <advance width="1174"/>
  <unicode hex="0058"/>
  <anchor x="589" y="0" name="bottom"/>
  <anchor x="589" y="1402" name="top"/>
  <outline>
    <contour>
      <point x="38" y="27" type="curve" smooth="yes"/>
      <point x="38" y="2"/>
      <point x="66" y="0"/>
      <point x="85" y="0" type="curve" smooth="yes"/>
      <point x="304" y="0" type="line" smooth="yes"/>
      <point x="324" y="0"/>
      <point x="331" y="7"/>
      <point x="341" y="23" type="curve" smooth="yes"/>
      <point x="375" y="75"/>
      <point x="538" y="469"/>
      <point x="556" y="476" type="curve"/>
      <point x="559" y="475"/>
      <point x="564" y="472"/>
      <point x="566" y="469" type="curve"/>
      <point x="567" y="467"/>
      <point x="568" y="465"/>
      <point x="569" y="463" type="curve"/>
      <point x="627" y="358"/>
      <point x="686" y="254"/>
      <point x="745" y="150" type="curve" smooth="yes"/>
      <point x="769" y="107"/>
      <point x="791" y="59"/>
      <point x="821" y="20" type="curve" smooth="yes"/>
      <point x="832" y="6"/>
      <point x="839" y="0"/>
      <point x="857" y="0" type="curve" smooth="yes"/>
      <point x="1089" y="0" type="line" smooth="yes"/>
      <point x="1108" y="0"/>
      <point x="1137" y="2"/>
      <point x="1137" y="27" type="curve" smooth="yes"/>
      <point x="1137" y="40"/>
      <point x="1129" y="51"/>
      <point x="1123" y="62" type="curve" smooth="yes"/>
      <point x="1082" y="133"/>
      <point x="752" y="682"/>
      <point x="752" y="709" type="curve" smooth="yes"/>
      <point x="752" y="734"/>
      <point x="1071" y="1271"/>
      <point x="1111" y="1340" type="curve" smooth="yes"/>
      <point x="1117" y="1351"/>
      <point x="1124" y="1362"/>
      <point x="1124" y="1375" type="curve" smooth="yes"/>
      <point x="1124" y="1400"/>
      <point x="1096" y="1402"/>
      <point x="1077" y="1402" type="curve" smooth="yes"/>
      <point x="866" y="1402" type="line" smooth="yes"/>
      <point x="847" y="1402"/>
      <point x="839" y="1394"/>
      <point x="829" y="1379" type="curve" smooth="yes"/>
      <point x="796" y="1330"/>
      <point x="637" y="952"/>
      <point x="622" y="947" type="curve"/>
      <point x="599" y="955"/>
      <point x="409" y="1330"/>
      <point x="368" y="1382" type="curve" smooth="yes"/>
      <point x="358" y="1395"/>
      <point x="349" y="1402"/>
      <point x="332" y="1402" type="curve" smooth="yes"/>
      <point x="104" y="1402" type="line" smooth="yes"/>
      <point x="85" y="1402"/>
      <point x="57" y="1400"/>
      <point x="57" y="1375" type="curve" smooth="yes"/>
      <point x="57" y="1362"/>
      <point x="64" y="1351"/>
      <point x="70" y="1340" type="curve" smooth="yes"/>
      <point x="110" y="1271"/>
      <point x="425" y="745"/>
      <point x="425" y="719" type="curve" smooth="yes"/>
      <point x="425" y="694"/>
      <point x="93" y="132"/>
      <point x="52" y="62" type="curve"/>
      <point x="46" y="51"/>
      <point x="38" y="40"/>
    </contour>
  </outline>
</glyph>
<glyph name="Y" format="2">
  <advance width="1202"/>
  <unicode hex="0059"/>
  <anchor x="601" y="0" name="bottom"/>
  <anchor x="637" y="1434" name="top"/>
  <anchor x="7" y="1402" name="topleft"/>
  <outline>
    <contour>
      <point x="469" y="41" type="curve" smooth="yes"/>
      <point x="469" y="14"/>
      <point x="483" y="0"/>
      <point x="510" y="0" type="curve" smooth="yes"/>
      <point x="683" y="0" type="line" smooth="yes"/>
      <point x="710" y="0"/>
      <point x="724" y="14"/>
      <point x="724" y="41" type="curve" smooth="yes"/>
      <point x="724" y="176"/>
      <point x="721" y="311"/>
      <point x="721" y="446" type="curve" smooth="yes"/>
      <point x="721" y="478"/>
      <point x="1115" y="1260"/>
      <point x="1155" y="1342" type="curve" smooth="yes"/>
      <point x="1160" y="1352"/>
      <point x="1164" y="1363"/>
      <point x="1164" y="1374" type="curve" smooth="yes"/>
      <point x="1164" y="1399"/>
      <point x="1138" y="1402"/>
      <point x="1119" y="1402" type="curve" smooth="yes"/>
      <point x="898" y="1402" type="line" smooth="yes"/>
      <point x="880" y="1402"/>
      <point x="869" y="1392"/>
      <point x="860" y="1377" type="curve" smooth="yes"/>
      <point x="833" y="1334"/>
      <point x="808" y="1252"/>
      <point x="787" y="1202" type="curve" smooth="yes"/>
      <point x="747" y="1106"/>
      <point x="710" y="1009"/>
      <point x="671" y="913" type="curve" smooth="yes"/>
      <point x="653" y="868"/>
      <point x="636" y="820"/>
      <point x="615" y="776" type="curve"/>
      <point x="613" y="771"/>
      <point x="609" y="765"/>
      <point x="604" y="763" type="curve"/>
      <point x="599" y="765"/>
      <point x="595" y="770"/>
      <point x="593" y="775" type="curve"/>
      <point x="530" y="915"/>
      <point x="476" y="1060"/>
      <point x="417" y="1202" type="curve" smooth="yes"/>
      <point x="393" y="1259"/>
      <point x="374" y="1324"/>
      <point x="342" y="1377" type="curve" smooth="yes"/>
      <point x="332" y="1394"/>
      <point x="325" y="1402"/>
      <point x="304" y="1402" type="curve" smooth="yes"/>
      <point x="82" y="1402" type="line" smooth="yes"/>
      <point x="63" y="1402"/>
      <point x="38" y="1399"/>
      <point x="38" y="1374" type="curve" smooth="yes"/>
      <point x="38" y="1363"/>
      <point x="42" y="1353"/>
      <point x="47" y="1343" type="curve" smooth="yes"/>
      <point x="151" y="1132"/>
      <point x="254" y="922"/>
      <point x="353" y="709" type="curve" smooth="yes"/>
      <point x="391" y="627"/>
      <point x="441" y="536"/>
      <point x="471" y="452" type="curve" smooth="yes"/>
      <point x="473" y="446"/>
      <point x="473" y="380"/>
      <point x="473" y="368" type="curve" smooth="yes"/>
      <point x="473" y="259"/>
      <point x="469" y="150"/>
    </contour>
  </outline>
</glyph>
<glyph name="Z" format="2">
  <advance width="1034"/>
  <unicode hex="005A"/>
  <anchor x="519" y="0" name="bottom"/>
  <anchor x="519" y="1402" name="top"/>
  <outline>
    <contour>
      <point x="52" y="0" type="curve" smooth="yes"/>
      <point x="998" y="0" type="line" smooth="yes"/>
      <point x="1027" y="0"/>
      <point x="1038" y="14"/>
      <point x="1038" y="42" type="curve" smooth="yes"/>
      <point x="1038" y="94"/>
      <point x="1039" y="151"/>
      <point x="1031" y="202" type="curve" smooth="yes"/>
      <point x="1027" y="228"/>
      <point x="1019" y="242"/>
      <point x="990" y="242" type="curve" smooth="yes"/>
      <point x="448" y="242" type="line" smooth="yes"/>
      <point x="441" y="242"/>
      <point x="429" y="241"/>
      <point x="432" y="252" type="curve"/>
      <point x="617" y="619"/>
      <point x="812" y="980"/>
      <point x="1008" y="1341" type="curve" smooth="yes"/>
      <point x="1014" y="1352"/>
      <point x="1019" y="1363"/>
      <point x="1019" y="1375" type="curve" smooth="yes"/>
      <point x="1019" y="1400"/>
      <point x="991" y="1402"/>
      <point x="973" y="1402" type="curve" smooth="yes"/>
      <point x="94" y="1402" type="line" smooth="yes"/>
      <point x="69" y="1402"/>
      <point x="54" y="1391"/>
      <point x="54" y="1365" type="curve" smooth="yes"/>
      <point x="54" y="1311"/>
      <point x="52" y="1253"/>
      <point x="59" y="1200" type="curve" smooth="yes"/>
      <point x="63" y="1174"/>
      <point x="71" y="1160"/>
      <point x="100" y="1160" type="curve" smooth="yes"/>
      <point x="595" y="1160" type="line" smooth="yes"/>
      <point x="604" y="1160"/>
      <point x="608" y="1159"/>
      <point x="608" y="1150" type="curve" smooth="yes"/>
      <point x="608" y="1149"/>
      <point x="606" y="1145"/>
      <point x="606" y="1144" type="curve"/>
      <point x="560" y="1048"/>
      <point x="509" y="954"/>
      <point x="458" y="861" type="curve" smooth="yes"/>
      <point x="311" y="594"/>
      <point x="150" y="332"/>
      <point x="16" y="58" type="curve"/>
      <point x="11" y="49"/>
      <point x="7" y="38"/>
      <point x="7" y="28" type="curve" smooth="yes"/>
      <point x="7" y="3"/>
      <point x="33" y="0"/>
    </contour>
  </outline>
</glyph>
<glyph name="bracketleft" format="2">
  <advance width="735"/>
  <unicode hex="005B"/>
  <outline>
    <contour>
      <point x="133" y="730" type="curve" smooth="yes"/>
      <point x="133" y="502"/>
      <point x="131" y="274"/>
      <point x="126" y="46" type="curve" smooth="yes"/>
      <point x="123" y="-63"/>
      <point x="116" y="-172"/>
      <point x="116" y="-281" type="curve" smooth="yes"/>
      <point x="116" y="-310"/>
      <point x="128" y="-323"/>
      <point x="157" y="-323" type="curve" smooth="yes"/>
      <point x="645" y="-323" type="line" smooth="yes"/>
      <point x="670" y="-323"/>
      <point x="686" y="-313"/>
      <point x="686" y="-286" type="curve" smooth="yes"/>
      <point x="686" y="-235"/>
      <point x="687" y="-182"/>
      <point x="680" y="-132" type="curve" smooth="yes"/>
      <point x="676" y="-105"/>
      <point x="668" y="-91"/>
      <point x="638" y="-91" type="curve" smooth="yes"/>
      <point x="395" y="-91" type="line" smooth="yes"/>
      <point x="386" y="-91"/>
      <point x="380" y="-90"/>
      <point x="380" y="-79" type="curve" smooth="yes"/>
      <point x="380" y="1356" type="line" smooth="yes"/>
      <point x="380" y="1363"/>
      <point x="385" y="1369"/>
      <point x="392" y="1369" type="curve" smooth="yes"/>
      <point x="634" y="1369" type="line" smooth="yes"/>
      <point x="663" y="1369"/>
      <point x="672" y="1382"/>
      <point x="676" y="1409" type="curve" smooth="yes"/>
      <point x="683" y="1456"/>
      <point x="680" y="1509"/>
      <point x="680" y="1557" type="curve" smooth="yes"/>
      <point x="680" y="1585"/>
      <point x="668" y="1599"/>
      <point x="639" y="1599" type="curve" smooth="yes"/>
      <point x="162" y="1599" type="line" smooth="yes"/>
      <point x="137" y="1599"/>
      <point x="122" y="1588"/>
      <point x="122" y="1562" type="curve" smooth="yes"/>
      <point x="122" y="1285"/>
      <point x="133" y="1007"/>
    </contour>
  </outline>
</glyph>
<glyph name="backslash" format="2">
  <advance width="586"/>
  <unicode hex="005C"/>
  <outline>
    <contour>
      <point x="136" y="1578" type="curve" smooth="yes"/>
      <point x="-21" y="1578" type="line" smooth="yes"/>
      <point x="-41" y="1578"/>
      <point x="-64" y="1572"/>
      <point x="-64" y="1547" type="curve" smooth="yes"/>
      <point x="-64" y="1539"/>
      <point x="-62" y="1531"/>
      <point x="-60" y="1524" type="curve"/>
      <point x="-30" y="1429"/>
      <point x="1" y="1334"/>
      <point x="30" y="1238" type="curve" smooth="yes"/>
      <point x="102" y="1005"/>
      <point x="170" y="770"/>
      <point x="237" y="535" type="curve" smooth="yes"/>
      <point x="270" y="419"/>
      <point x="304" y="304"/>
      <point x="337" y="188" type="curve" smooth="yes"/>
      <point x="355" y="125"/>
      <point x="369" y="49"/>
      <point x="395" y="-10" type="curve" smooth="yes"/>
      <point x="403" y="-29"/>
      <point x="412" y="-39"/>
      <point x="434" y="-39" type="curve" smooth="yes"/>
      <point x="590" y="-39" type="line" smooth="yes"/>
      <point x="610" y="-39"/>
      <point x="632" y="-33"/>
      <point x="632" y="-8" type="curve" smooth="yes"/>
      <point x="632" y="-1"/>
      <point x="630" y="7"/>
      <point x="628" y="14" type="curve" smooth="yes"/>
      <point x="490" y="457"/>
      <point x="364" y="904"/>
      <point x="235" y="1350" type="curve" smooth="yes"/>
      <point x="216" y="1415"/>
      <point x="202" y="1487"/>
      <point x="175" y="1549" type="curve" smooth="yes"/>
      <point x="167" y="1568"/>
      <point x="158" y="1578"/>
    </contour>
  </outline>
</glyph>
<glyph name="bracketright" format="2">
  <advance width="735"/>
  <unicode hex="005D"/>
  <outline>
    <contour>
      <point x="619" y="-281" type="curve" smooth="yes"/>
      <point x="619" y="-171"/>
      <point x="612" y="-60"/>
      <point x="609" y="50" type="curve" smooth="yes"/>
      <point x="603" y="280"/>
      <point x="603" y="510"/>
      <point x="603" y="740" type="curve" smooth="yes"/>
      <point x="603" y="1012"/>
      <point x="614" y="1285"/>
      <point x="614" y="1557" type="curve" smooth="yes"/>
      <point x="614" y="1585"/>
      <point x="602" y="1599"/>
      <point x="573" y="1599" type="curve" smooth="yes"/>
      <point x="96" y="1599" type="line" smooth="yes"/>
      <point x="67" y="1599"/>
      <point x="55" y="1585"/>
      <point x="55" y="1557" type="curve" smooth="yes"/>
      <point x="55" y="1509"/>
      <point x="54" y="1458"/>
      <point x="60" y="1410" type="curve" smooth="yes"/>
      <point x="64" y="1383"/>
      <point x="71" y="1370"/>
      <point x="101" y="1370" type="curve" smooth="yes"/>
      <point x="346" y="1370" type="line" smooth="yes"/>
      <point x="351" y="1370"/>
      <point x="358" y="1366"/>
      <point x="358" y="1360" type="curve" smooth="yes"/>
      <point x="358" y="-81" type="line" smooth="yes"/>
      <point x="358" y="-90"/>
      <point x="349" y="-90"/>
      <point x="343" y="-90" type="curve" smooth="yes"/>
      <point x="97" y="-90" type="line" smooth="yes"/>
      <point x="67" y="-90"/>
      <point x="59" y="-104"/>
      <point x="55" y="-131" type="curve" smooth="yes"/>
      <point x="48" y="-179"/>
      <point x="49" y="-232"/>
      <point x="49" y="-281" type="curve" smooth="yes"/>
      <point x="49" y="-310"/>
      <point x="61" y="-323"/>
      <point x="90" y="-323" type="curve" smooth="yes"/>
      <point x="578" y="-323" type="line" smooth="yes"/>
      <point x="607" y="-323"/>
      <point x="619" y="-310"/>
    </contour>
  </outline>
</glyph>
<glyph name="asciicircum" format="2">
  <advance width="956"/>
  <unicode hex="005E"/>
  <outline>
    <contour>
      <point x="655" y="1025" type="curve" smooth="yes"/>
      <point x="719" y="1025" type="line" smooth="yes"/>
      <point x="733" y="1025"/>
      <point x="765" y="1026"/>
      <point x="765" y="1046" type="curve" smooth="yes"/>
      <point x="765" y="1060"/>
      <point x="754" y="1073"/>
      <point x="746" y="1083" type="curve" smooth="yes"/>
      <point x="668" y="1181"/>
      <point x="589" y="1281"/>
      <point x="506" y="1375" type="curve" smooth="yes"/>
      <point x="498" y="1384"/>
      <point x="488" y="1394"/>
      <point x="475" y="1394" type="curve" smooth="yes"/>
      <point x="462" y="1394"/>
      <point x="452" y="1384"/>
      <point x="444" y="1375" type="curve" smooth="yes"/>
      <point x="362" y="1281"/>
      <point x="283" y="1181"/>
      <point x="204" y="1084" type="curve" smooth="yes"/>
      <point x="196" y="1074"/>
      <point x="185" y="1061"/>
      <point x="185" y="1047" type="curve" smooth="yes"/>
      <point x="185" y="1026"/>
      <point x="218" y="1025"/>
      <point x="232" y="1025" type="curve" smooth="yes"/>
      <point x="296" y="1025" type="line" smooth="yes"/>
      <point x="334" y="1025"/>
      <point x="449" y="1161"/>
      <point x="475" y="1161" type="curve" smooth="yes"/>
      <point x="500" y="1161"/>
      <point x="616" y="1025"/>
    </contour>
  </outline>
</glyph>
<glyph name="underscore" format="2">
  <advance width="891"/>
  <unicode hex="005F"/>
  <outline>
    <contour>
      <point x="105" y="37" type="curve" smooth="yes"/>
      <point x="105" y="11"/>
      <point x="122" y="0"/>
      <point x="146" y="0" type="curve" smooth="yes"/>
      <point x="746" y="0" type="line" smooth="yes"/>
      <point x="770" y="0"/>
      <point x="787" y="11"/>
      <point x="787" y="37" type="curve" smooth="yes"/>
      <point x="787" y="83"/>
      <point x="786" y="129"/>
      <point x="786" y="175" type="curve" smooth="yes"/>
      <point x="786" y="202"/>
      <point x="771" y="215"/>
      <point x="745" y="215" type="curve" smooth="yes"/>
      <point x="147" y="215" type="line" smooth="yes"/>
      <point x="121" y="215"/>
      <point x="106" y="202"/>
      <point x="106" y="175" type="curve" smooth="yes"/>
      <point x="106" y="129"/>
      <point x="105" y="83"/>
    </contour>
  </outline>
</glyph>
<glyph name="grave" format="2">
  <advance width="715"/>
  <unicode hex="0060"/>
  <outline>
    <contour>
      <point x="439" y="1025" type="curve" smooth="yes"/>
      <point x="503" y="1025" type="line" smooth="yes"/>
      <point x="518" y="1025"/>
      <point x="551" y="1026"/>
      <point x="551" y="1048" type="curve" smooth="yes"/>
      <point x="551" y="1062"/>
      <point x="540" y="1077"/>
      <point x="532" y="1087" type="curve" smooth="yes"/>
      <point x="477" y="1157"/>
      <point x="421" y="1229"/>
      <point x="362" y="1295" type="curve" smooth="yes"/>
      <point x="353" y="1305"/>
      <point x="344" y="1310"/>
      <point x="331" y="1310" type="curve" smooth="yes"/>
      <point x="194" y="1310" type="line" smooth="yes"/>
      <point x="180" y="1310"/>
      <point x="129" y="1310"/>
      <point x="129" y="1287" type="curve" smooth="yes"/>
      <point x="129" y="1270"/>
      <point x="156" y="1247"/>
      <point x="168" y="1237" type="curve" smooth="yes"/>
      <point x="249" y="1170"/>
      <point x="330" y="1099"/>
      <point x="413" y="1035" type="curve" smooth="yes"/>
      <point x="421" y="1029"/>
      <point x="429" y="1025"/>
    </contour>
  </outline>
</glyph>
<glyph name="a" format="2">
  <advance width="1135"/>
  <unicode hex="0061"/>
  <anchor x="583" y="0" name="bottom"/>
  <anchor x="1201" y="22" name="ogonek"/>
  <anchor x="616" y="942" name="top"/>
  <outline>
    <contour>
      <point x="454" y="-19" type="curve" smooth="yes"/>
      <point x="580" y="-19"/>
      <point x="682" y="33"/>
      <point x="778" y="111" type="curve"/>
      <point x="782" y="114"/>
      <point x="787" y="118"/>
      <point x="792" y="119" type="curve"/>
      <point x="803" y="112"/>
      <point x="798" y="72"/>
      <point x="798" y="62" type="curve" smooth="yes"/>
      <point x="798" y="31"/>
      <point x="804" y="0"/>
      <point x="842" y="0" type="curve" smooth="yes"/>
      <point x="999" y="0" type="line" smooth="yes"/>
      <point x="1028" y="0"/>
      <point x="1039" y="14"/>
      <point x="1039" y="42" type="curve" smooth="yes"/>
      <point x="1039" y="112"/>
      <point x="1033" y="182"/>
      <point x="1031" y="252" type="curve" smooth="yes"/>
      <point x="1025" y="456"/>
      <point x="1025" y="660"/>
      <point x="1025" y="864" type="curve" smooth="yes"/>
      <point x="1025" y="890"/>
      <point x="1011" y="905"/>
      <point x="985" y="905" type="curve" smooth="yes"/>
      <point x="846" y="905" type="line" smooth="yes"/>
      <point x="782" y="905"/>
      <point x="814" y="805"/>
      <point x="784" y="806" type="curve"/>
      <point x="694" y="881"/>
      <point x="611" y="930"/>
      <point x="490" y="930" type="curve" smooth="yes"/>
      <point x="211" y="930"/>
      <point x="66" y="684"/>
      <point x="66" y="430" type="curve" smooth="yes"/>
      <point x="66" y="189"/>
      <point x="192" y="-19"/>
    </contour>
    <contour>
      <point x="555" y="193" type="curve" smooth="yes"/>
      <point x="405" y="193"/>
      <point x="302" y="321"/>
      <point x="302" y="465" type="curve" smooth="yes"/>
      <point x="302" y="604"/>
      <point x="400" y="734"/>
      <point x="547" y="734" type="curve" smooth="yes"/>
      <point x="647" y="734"/>
      <point x="771" y="670"/>
      <point x="793" y="565" type="curve" smooth="yes"/>
      <point x="798" y="543"/>
      <point x="793" y="518"/>
      <point x="793" y="496" type="curve" smooth="yes"/>
      <point x="793" y="451"/>
      <point x="795" y="405"/>
      <point x="795" y="360" type="curve" smooth="yes"/>
      <point x="795" y="354"/>
      <point x="781" y="325"/>
      <point x="778" y="318" type="curve"/>
      <point x="735" y="231"/>
      <point x="648" y="193"/>
    </contour>
  </outline>
</glyph>
<glyph name="b" format="2">
  <advance width="1135"/>
  <unicode hex="0062"/>
  <anchor x="557" y="0" name="bottom"/>
  <anchor x="557" y="905" name="top"/>
  <outline>
    <contour>
      <point x="646" y="930" type="curve" smooth="yes"/>
      <point x="541" y="930"/>
      <point x="446" y="897"/>
      <point x="361" y="837" type="curve"/>
      <point x="357" y="834"/>
      <point x="353" y="831"/>
      <point x="348" y="831" type="curve" smooth="yes"/>
      <point x="341" y="831"/>
      <point x="340" y="842"/>
      <point x="340" y="847" type="curve" smooth="yes"/>
      <point x="340" y="1002"/>
      <point x="336" y="1156"/>
      <point x="336" y="1311" type="curve" smooth="yes"/>
      <point x="336" y="1340"/>
      <point x="337" y="1371"/>
      <point x="333" y="1400" type="curve" smooth="yes"/>
      <point x="329" y="1429"/>
      <point x="322" y="1441"/>
      <point x="291" y="1441" type="curve" smooth="yes"/>
      <point x="136" y="1441" type="line" smooth="yes"/>
      <point x="107" y="1441"/>
      <point x="96" y="1427"/>
      <point x="96" y="1399" type="curve" smooth="yes"/>
      <point x="96" y="1326"/>
      <point x="102" y="1252"/>
      <point x="104" y="1179" type="curve" smooth="yes"/>
      <point x="109" y="1026"/>
      <point x="112" y="874"/>
      <point x="112" y="721" type="curve" smooth="yes"/>
      <point x="112" y="568"/>
      <point x="109" y="415"/>
      <point x="104" y="262" type="curve" smooth="yes"/>
      <point x="102" y="189"/>
      <point x="96" y="115"/>
      <point x="96" y="42" type="curve" smooth="yes"/>
      <point x="96" y="14"/>
      <point x="107" y="0"/>
      <point x="136" y="0" type="curve" smooth="yes"/>
      <point x="295" y="0" type="line" smooth="yes"/>
      <point x="342" y="0"/>
      <point x="336" y="44"/>
      <point x="336" y="77" type="curve" smooth="yes"/>
      <point x="336" y="83"/>
      <point x="338" y="91"/>
      <point x="343" y="95" type="curve"/>
      <point x="349" y="93"/>
      <point x="354" y="90"/>
      <point x="358" y="86" type="curve"/>
      <point x="439" y="17"/>
      <point x="525" y="-19"/>
      <point x="633" y="-19" type="curve" smooth="yes"/>
      <point x="901" y="-19"/>
      <point x="1069" y="183"/>
      <point x="1069" y="443" type="curve" smooth="yes"/>
      <point x="1069" y="704"/>
      <point x="929" y="930"/>
    </contour>
    <contour>
      <point x="589" y="201" type="curve" smooth="yes"/>
      <point x="474" y="201"/>
      <point x="381" y="255"/>
      <point x="340" y="365" type="curve"/>
      <point x="341" y="395"/>
      <point x="339" y="562"/>
      <point x="342" y="573" type="curve" smooth="yes"/>
      <point x="371" y="680"/>
      <point x="485" y="740"/>
      <point x="589" y="740" type="curve" smooth="yes"/>
      <point x="738" y="740"/>
      <point x="834" y="608"/>
      <point x="834" y="468" type="curve" smooth="yes"/>
      <point x="834" y="327"/>
      <point x="737" y="201"/>
    </contour>
  </outline>
</glyph>
<glyph name="c" format="2">
  <advance width="823"/>
  <unicode hex="0063"/>
  <anchor x="389" y="0" name="bottom"/>
  <anchor x="440" y="925" name="top"/>
  <outline>
    <contour>
      <point x="687" y="230" type="curve" smooth="yes"/>
      <point x="678" y="230"/>
      <point x="670" y="227"/>
      <point x="662" y="224" type="curve" smooth="yes"/>
      <point x="615" y="206"/>
      <point x="570" y="193"/>
      <point x="519" y="193" type="curve" smooth="yes"/>
      <point x="363" y="193"/>
      <point x="291" y="306"/>
      <point x="291" y="451" type="curve" smooth="yes"/>
      <point x="291" y="602"/>
      <point x="368" y="716"/>
      <point x="529" y="716" type="curve" smooth="yes"/>
      <point x="575" y="716"/>
      <point x="619" y="705"/>
      <point x="663" y="690" type="curve"/>
      <point x="670" y="687"/>
      <point x="677" y="685"/>
      <point x="685" y="685" type="curve" smooth="yes"/>
      <point x="702" y="685"/>
      <point x="714" y="698"/>
      <point x="720" y="713" type="curve" smooth="yes"/>
      <point x="766" y="829" type="line"/>
      <point x="769" y="835"/>
      <point x="771" y="842"/>
      <point x="771" y="849" type="curve" smooth="yes"/>
      <point x="771" y="865"/>
      <point x="761" y="872"/>
      <point x="748" y="879" type="curve" smooth="yes"/>
      <point x="683" y="915"/>
      <point x="587" y="931"/>
      <point x="513" y="931" type="curve" smooth="yes"/>
      <point x="224" y="931"/>
      <point x="54" y="718"/>
      <point x="54" y="440" type="curve" smooth="yes"/>
      <point x="54" y="162"/>
      <point x="219" y="-18"/>
      <point x="501" y="-18" type="curve" smooth="yes"/>
      <point x="548" y="-18"/>
      <point x="770" y="5"/>
      <point x="770" y="65" type="curve" smooth="yes"/>
      <point x="770" y="77"/>
      <point x="729" y="184"/>
      <point x="721" y="201" type="curve" smooth="yes"/>
      <point x="714" y="216"/>
      <point x="705" y="230"/>
    </contour>
  </outline>
</glyph>
<glyph name="d" format="2">
  <advance width="1139"/>
  <unicode hex="0064"/>
  <anchor x="583" y="0" name="bottom"/>
  <anchor x="920" y="1348" name="center"/>
  <anchor x="583" y="905" name="top"/>
  <anchor x="1162" y="905" name="topright"/>
  <outline>
    <contour>
      <point x="476" y="-19" type="curve" smooth="yes"/>
      <point x="592" y="-19"/>
      <point x="692" y="21"/>
      <point x="782" y="93" type="curve"/>
      <point x="786" y="96"/>
      <point x="790" y="100"/>
      <point x="795" y="100" type="curve" smooth="yes"/>
      <point x="806" y="100"/>
      <point x="803" y="65"/>
      <point x="803" y="59" type="curve" smooth="yes"/>
      <point x="803" y="28"/>
      <point x="807" y="0"/>
      <point x="845" y="0" type="curve" smooth="yes"/>
      <point x="1003" y="0" type="line" smooth="yes"/>
      <point x="1032" y="0"/>
      <point x="1043" y="14"/>
      <point x="1043" y="42" type="curve" smooth="yes"/>
      <point x="1043" y="115"/>
      <point x="1037" y="189"/>
      <point x="1035" y="262" type="curve" smooth="yes"/>
      <point x="1031" y="415"/>
      <point x="1029" y="568"/>
      <point x="1029" y="721" type="curve" smooth="yes"/>
      <point x="1029" y="874"/>
      <point x="1031" y="1026"/>
      <point x="1035" y="1179" type="curve" smooth="yes"/>
      <point x="1037" y="1252"/>
      <point x="1043" y="1326"/>
      <point x="1043" y="1399" type="curve" smooth="yes"/>
      <point x="1043" y="1427"/>
      <point x="1032" y="1441"/>
      <point x="1003" y="1441" type="curve" smooth="yes"/>
      <point x="847" y="1441" type="line" smooth="yes"/>
      <point x="816" y="1441"/>
      <point x="809" y="1428"/>
      <point x="806" y="1400" type="curve" smooth="yes"/>
      <point x="800" y="1341"/>
      <point x="803" y="1280"/>
      <point x="802" y="1221" type="curve" smooth="yes"/>
      <point x="800" y="1096"/>
      <point x="798" y="972"/>
      <point x="798" y="847" type="curve" smooth="yes"/>
      <point x="798" y="840"/>
      <point x="796" y="833"/>
      <point x="790" y="829" type="curve"/>
      <point x="785" y="831"/>
      <point x="780" y="834"/>
      <point x="776" y="837" type="curve" smooth="yes"/>
      <point x="695" y="899"/>
      <point x="607" y="930"/>
      <point x="504" y="930" type="curve" smooth="yes"/>
      <point x="213" y="930"/>
      <point x="66" y="714"/>
      <point x="66" y="441" type="curve" smooth="yes"/>
      <point x="66" y="190"/>
      <point x="208" y="-19"/>
    </contour>
    <contour>
      <point x="549" y="201" type="curve" smooth="yes"/>
      <point x="405" y="201"/>
      <point x="303" y="328"/>
      <point x="303" y="466" type="curve" smooth="yes"/>
      <point x="303" y="610"/>
      <point x="397" y="740"/>
      <point x="549" y="740" type="curve" smooth="yes"/>
      <point x="652" y="740"/>
      <point x="771" y="680"/>
      <point x="797" y="572" type="curve" smooth="yes"/>
      <point x="800" y="560"/>
      <point x="799" y="394"/>
      <point x="799" y="368" type="curve" smooth="yes"/>
      <point x="799" y="362"/>
      <point x="781" y="325"/>
      <point x="776" y="318" type="curve"/>
      <point x="727" y="235"/>
      <point x="643" y="201"/>
    </contour>
  </outline>
</glyph>
<glyph name="e" format="2">
  <advance width="987"/>
  <unicode hex="0065"/>
  <anchor x="530" y="0" name="bottom"/>
  <anchor x="940" y="22" name="ogonek"/>
  <anchor x="550" y="946" name="top"/>
  <outline>
    <contour>
      <point x="541" y="-24" type="curve" smooth="yes"/>
      <point x="655" y="-24"/>
      <point x="806" y="10"/>
      <point x="901" y="75" type="curve"/>
      <point x="912" y="83"/>
      <point x="921" y="91"/>
      <point x="921" y="106" type="curve" smooth="yes"/>
      <point x="921" y="120"/>
      <point x="881" y="203"/>
      <point x="873" y="218" type="curve"/>
      <point x="866" y="232"/>
      <point x="857" y="246"/>
      <point x="839" y="246" type="curve" smooth="yes"/>
      <point x="829" y="246"/>
      <point x="820" y="241"/>
      <point x="811" y="236" type="curve" smooth="yes"/>
      <point x="740" y="196"/>
      <point x="670" y="166"/>
      <point x="586" y="166" type="curve" smooth="yes"/>
      <point x="479" y="166"/>
      <point x="379" y="212"/>
      <point x="326" y="308" type="curve"/>
      <point x="325" y="310"/>
      <point x="324" y="313"/>
      <point x="324" y="315" type="curve" smooth="yes"/>
      <point x="324" y="320"/>
      <point x="328" y="323"/>
      <point x="332" y="325" type="curve"/>
      <point x="470" y="381"/>
      <point x="613" y="429"/>
      <point x="753" y="481" type="curve" smooth="yes"/>
      <point x="801" y="499"/>
      <point x="853" y="514"/>
      <point x="899" y="535" type="curve" smooth="yes"/>
      <point x="915" y="542"/>
      <point x="926" y="550"/>
      <point x="926" y="570" type="curve" smooth="yes"/>
      <point x="926" y="573"/>
      <point x="926" y="577"/>
      <point x="925" y="580" type="curve"/>
      <point x="878" y="795"/>
      <point x="750" y="935"/>
      <point x="520" y="935" type="curve" smooth="yes"/>
      <point x="240" y="935"/>
      <point x="58" y="727"/>
      <point x="58" y="453" type="curve" smooth="yes"/>
      <point x="58" y="159"/>
      <point x="249" y="-24"/>
    </contour>
    <contour>
      <point x="290" y="463" type="curve"/>
      <point x="289" y="599"/>
      <point x="361" y="740"/>
      <point x="514" y="740" type="curve" smooth="yes"/>
      <point x="600" y="740"/>
      <point x="659" y="676"/>
      <point x="693" y="603" type="curve"/>
      <point x="559" y="556"/>
      <point x="425" y="509"/>
    </contour>
  </outline>
</glyph>
<glyph name="f" format="2">
  <advance width="602"/>
  <unicode hex="0066"/>
  <anchor x="310" y="0" name="bottom"/>
  <anchor x="310" y="905" name="top"/>
  <outline>
    <contour>
      <point x="174" y="0" type="curve" smooth="yes"/>
      <point x="332" y="0" type="line" smooth="yes"/>
      <point x="360" y="0"/>
      <point x="372" y="14"/>
      <point x="373" y="41" type="curve" smooth="yes"/>
      <point x="375" y="111"/>
      <point x="372" y="182"/>
      <point x="372" y="253" type="curve" smooth="yes"/>
      <point x="371" y="401"/>
      <point x="371" y="549"/>
      <point x="371" y="697" type="curve" smooth="yes"/>
      <point x="371" y="703" type="line" smooth="yes"/>
      <point x="371" y="712"/>
      <point x="379" y="712"/>
      <point x="385" y="712" type="curve" smooth="yes"/>
      <point x="513" y="712" type="line" smooth="yes"/>
      <point x="542" y="712"/>
      <point x="553" y="725"/>
      <point x="553" y="753" type="curve" smooth="yes"/>
      <point x="554" y="867" type="line" smooth="yes"/>
      <point x="555" y="957"/>
      <point x="371" y="871"/>
      <point x="371" y="923" type="curve" smooth="yes"/>
      <point x="371" y="1004"/>
      <point x="348" y="1219"/>
      <point x="479" y="1219" type="curve" smooth="yes"/>
      <point x="497" y="1219"/>
      <point x="515" y="1214"/>
      <point x="533" y="1214" type="curve" smooth="yes"/>
      <point x="553" y="1214"/>
      <point x="564" y="1227"/>
      <point x="570" y="1244" type="curve" smooth="yes"/>
      <point x="576" y="1261"/>
      <point x="609" y="1384"/>
      <point x="609" y="1395" type="curve" smooth="yes"/>
      <point x="609" y="1439"/>
      <point x="495" y="1437"/>
      <point x="464" y="1437" type="curve" smooth="yes"/>
      <point x="224" y="1437"/>
      <point x="137" y="1251"/>
      <point x="137" y="1037" type="curve" smooth="yes"/>
      <point x="137" y="998"/>
      <point x="138" y="959"/>
      <point x="139" y="920" type="curve" smooth="yes"/>
      <point x="139" y="910"/>
      <point x="132" y="908"/>
      <point x="124" y="908" type="curve" smooth="yes"/>
      <point x="58" y="908" type="line" smooth="yes"/>
      <point x="32" y="908"/>
      <point x="18" y="893"/>
      <point x="18" y="867" type="curve" smooth="yes"/>
      <point x="18" y="753" type="line" smooth="yes"/>
      <point x="18" y="698"/>
      <point x="72" y="711"/>
      <point x="108" y="711" type="curve" smooth="yes"/>
      <point x="119" y="711"/>
      <point x="133" y="711"/>
      <point x="139" y="700" type="curve"/>
      <point x="139" y="480"/>
      <point x="133" y="261"/>
      <point x="133" y="41" type="curve" smooth="yes"/>
      <point x="133" y="14"/>
      <point x="147" y="0"/>
    </contour>
  </outline>
</glyph>
<glyph name="g" format="2">
  <advance width="1065"/>
  <unicode hex="0067"/>
  <anchor x="541" y="0" name="bottom"/>
  <anchor x="541" y="942" name="top"/>
  <outline>
    <contour>
      <point x="509" y="-353" type="curve" smooth="yes"/>
      <point x="745" y="-353"/>
      <point x="969" y="-201"/>
      <point x="969" y="52" type="curve" smooth="yes"/>
      <point x="969" y="256"/>
      <point x="955" y="461"/>
      <point x="955" y="665" type="curve" smooth="yes"/>
      <point x="955" y="731"/>
      <point x="957" y="798"/>
      <point x="957" y="864" type="curve" smooth="yes"/>
      <point x="957" y="889"/>
      <point x="941" y="905"/>
      <point x="916" y="905" type="curve" smooth="yes"/>
      <point x="771" y="905" type="line" smooth="yes"/>
      <point x="730" y="905"/>
      <point x="742" y="864"/>
      <point x="727" y="841" type="curve"/>
      <point x="719" y="839" type="line"/>
      <point x="711" y="845" type="line" smooth="yes"/>
      <point x="635" y="905"/>
      <point x="553" y="930"/>
      <point x="457" y="930" type="curve" smooth="yes"/>
      <point x="201" y="930"/>
      <point x="65" y="656"/>
      <point x="65" y="431" type="curve" smooth="yes"/>
      <point x="65" y="202"/>
      <point x="213" y="-18"/>
      <point x="459" y="-18" type="curve" smooth="yes"/>
      <point x="556" y="-18"/>
      <point x="644" y="18"/>
      <point x="711" y="89" type="curve"/>
      <point x="714" y="92"/>
      <point x="716" y="95"/>
      <point x="719" y="97" type="curve"/>
      <point x="726" y="97" type="line"/>
      <point x="729" y="91"/>
      <point x="730" y="84"/>
      <point x="730" y="77" type="curve" smooth="yes"/>
      <point x="730" y="68"/>
      <point x="729" y="59"/>
      <point x="729" y="50" type="curve" smooth="yes"/>
      <point x="729" y="-85"/>
      <point x="590" y="-120"/>
      <point x="480" y="-120" type="curve" smooth="yes"/>
      <point x="401" y="-120"/>
      <point x="332" y="-94"/>
      <point x="264" y="-55" type="curve"/>
      <point x="260" y="-53"/>
      <point x="246" y="-45"/>
      <point x="241" y="-45" type="curve" smooth="yes"/>
      <point x="208" y="-45"/>
      <point x="128" y="-144"/>
      <point x="128" y="-174" type="curve" smooth="yes"/>
      <point x="128" y="-182"/>
      <point x="134" y="-189"/>
      <point x="139" y="-195" type="curve"/>
      <point x="235" y="-303"/>
      <point x="366" y="-353"/>
    </contour>
    <contour>
      <point x="524" y="193" type="curve" smooth="yes"/>
      <point x="379" y="193"/>
      <point x="300" y="339"/>
      <point x="300" y="469" type="curve" smooth="yes"/>
      <point x="300" y="598"/>
      <point x="367" y="734"/>
      <point x="512" y="734" type="curve" smooth="yes"/>
      <point x="595" y="734"/>
      <point x="667" y="687"/>
      <point x="705" y="614" type="curve"/>
      <point x="709" y="607"/>
      <point x="725" y="572"/>
      <point x="725" y="565" type="curve" smooth="yes"/>
      <point x="725" y="359" type="line" smooth="yes"/>
      <point x="725" y="353"/>
      <point x="707" y="317"/>
      <point x="704" y="310" type="curve"/>
      <point x="666" y="241"/>
      <point x="606" y="193"/>
    </contour>
  </outline>
</glyph>
<glyph name="h" format="2">
  <advance width="1065"/>
  <unicode hex="0068"/>
  <anchor x="534" y="0" name="bottom"/>
  <anchor x="238" y="1301" name="center"/>
  <anchor x="210" y="1648" name="top"/>
  <outline>
    <contour>
      <point x="136" y="0" type="curve" smooth="yes"/>
      <point x="293" y="0" type="line" smooth="yes"/>
      <point x="322" y="0"/>
      <point x="333" y="13"/>
      <point x="335" y="41" type="curve" smooth="yes"/>
      <point x="338" y="80"/>
      <point x="336" y="120"/>
      <point x="337" y="159" type="curve" smooth="yes"/>
      <point x="338" y="237"/>
      <point x="340" y="316"/>
      <point x="340" y="394" type="curve" smooth="yes"/>
      <point x="340" y="534"/>
      <point x="414" y="722"/>
      <point x="579" y="722" type="curve" smooth="yes"/>
      <point x="670" y="722"/>
      <point x="725" y="672"/>
      <point x="725" y="579" type="curve" smooth="yes"/>
      <point x="725" y="428"/>
      <point x="728" y="276"/>
      <point x="728" y="125" type="curve" smooth="yes"/>
      <point x="728" y="97"/>
      <point x="728" y="69"/>
      <point x="731" y="41" type="curve" smooth="yes"/>
      <point x="734" y="12"/>
      <point x="740" y="0"/>
      <point x="772" y="0" type="curve" smooth="yes"/>
      <point x="929" y="0" type="line" smooth="yes"/>
      <point x="958" y="0"/>
      <point x="969" y="14"/>
      <point x="969" y="42" type="curve" smooth="yes"/>
      <point x="969" y="249"/>
      <point x="955" y="456"/>
      <point x="955" y="663" type="curve" smooth="yes"/>
      <point x="955" y="828"/>
      <point x="817" y="929"/>
      <point x="661" y="929" type="curve" smooth="yes"/>
      <point x="544" y="929"/>
      <point x="438" y="887"/>
      <point x="360" y="799" type="curve"/>
      <point x="356" y="794"/>
      <point x="349" y="785"/>
      <point x="341" y="787" type="curve"/>
      <point x="336" y="792"/>
      <point x="337" y="800"/>
      <point x="337" y="807" type="curve" smooth="yes"/>
      <point x="337" y="995"/>
      <point x="331" y="1183"/>
      <point x="331" y="1372" type="curve" smooth="yes"/>
      <point x="331" y="1406"/>
      <point x="332" y="1441"/>
      <point x="288" y="1441" type="curve" smooth="yes"/>
      <point x="136" y="1441" type="line" smooth="yes"/>
      <point x="107" y="1441"/>
      <point x="96" y="1427"/>
      <point x="96" y="1399" type="curve" smooth="yes"/>
      <point x="96" y="1326"/>
      <point x="102" y="1252"/>
      <point x="104" y="1179" type="curve" smooth="yes"/>
      <point x="108" y="1026"/>
      <point x="111" y="874"/>
      <point x="111" y="721" type="curve" smooth="yes"/>
      <point x="111" y="568"/>
      <point x="108" y="415"/>
      <point x="104" y="262" type="curve" smooth="yes"/>
      <point x="102" y="189"/>
      <point x="96" y="115"/>
      <point x="96" y="42" type="curve" smooth="yes"/>
      <point x="96" y="14"/>
      <point x="107" y="0"/>
    </contour>
  </outline>
</glyph>
<glyph name="i" format="2">
  <advance width="451"/>
  <unicode hex="0069"/>
  <anchor x="205" y="0" name="bottom"/>
  <anchor x="537" y="22" name="ogonek"/>
  <anchor x="229" y="1379" name="top"/>
  <outline>
    <contour>
      <point x="105" y="41" type="curve" smooth="yes"/>
      <point x="105" y="14"/>
      <point x="119" y="0"/>
      <point x="146" y="0" type="curve" smooth="yes"/>
      <point x="304" y="0" type="line" smooth="yes"/>
      <point x="331" y="0"/>
      <point x="345" y="14"/>
      <point x="345" y="41" type="curve" smooth="yes"/>
      <point x="345" y="218"/>
      <point x="342" y="395"/>
      <point x="342" y="572" type="curve" smooth="yes"/>
      <point x="341" y="784" type="line" smooth="yes"/>
      <point x="341" y="810"/>
      <point x="343" y="839"/>
      <point x="341" y="864" type="curve" smooth="yes"/>
      <point x="339" y="890"/>
      <point x="330" y="905"/>
      <point x="301" y="905" type="curve" smooth="yes"/>
      <point x="149" y="905" type="line" smooth="yes"/>
      <point x="123" y="905"/>
      <point x="109" y="890"/>
      <point x="109" y="864" type="curve" smooth="yes"/>
      <point x="109" y="643" type="line" smooth="yes"/>
      <point x="109" y="442"/>
      <point x="105" y="242"/>
    </contour>
    <contour>
      <point x="93" y="1243" type="curve" smooth="yes"/>
      <point x="93" y="1169"/>
      <point x="160" y="1106"/>
      <point x="233" y="1106" type="curve" smooth="yes"/>
      <point x="304" y="1106"/>
      <point x="369" y="1169"/>
      <point x="369" y="1241" type="curve" smooth="yes"/>
      <point x="369" y="1316"/>
      <point x="304" y="1379"/>
      <point x="230" y="1379" type="curve" smooth="yes"/>
      <point x="156" y="1379"/>
      <point x="93" y="1318"/>
    </contour>
  </outline>
</glyph>
<glyph name="j" format="2">
  <advance width="453"/>
  <unicode hex="006A"/>
  <anchor x="237" y="0" name="bottom"/>
  <anchor x="236" y="1365" name="top"/>
  <outline>
    <contour>
      <point x="357" y="-8" type="curve" smooth="yes"/>
      <point x="357" y="283"/>
      <point x="355" y="575"/>
      <point x="355" y="866" type="curve" smooth="yes"/>
      <point x="355" y="893"/>
      <point x="341" y="907"/>
      <point x="314" y="907" type="curve" smooth="yes"/>
      <point x="160" y="907" type="line" smooth="yes"/>
      <point x="133" y="907"/>
      <point x="119" y="893"/>
      <point x="119" y="866" type="curve" smooth="yes"/>
      <point x="119" y="580"/>
      <point x="117" y="294"/>
      <point x="117" y="7" type="curve" smooth="yes"/>
      <point x="117" y="-89"/>
      <point x="94" y="-169"/>
      <point x="35" y="-246" type="curve" smooth="yes"/>
      <point x="28" y="-255"/>
      <point x="21" y="-265"/>
      <point x="21" y="-277" type="curve" smooth="yes"/>
      <point x="21" y="-302"/>
      <point x="107" y="-392"/>
      <point x="126" y="-415" type="curve"/>
      <point x="133" y="-424"/>
      <point x="143" y="-431"/>
      <point x="155" y="-431" type="curve" smooth="yes"/>
      <point x="163" y="-431"/>
      <point x="170" y="-428"/>
      <point x="177" y="-424" type="curve"/>
      <point x="322" y="-332"/>
      <point x="357" y="-168"/>
    </contour>
    <contour>
      <point x="110" y="1256" type="curve" smooth="yes"/>
      <point x="110" y="1184"/>
      <point x="166" y="1117"/>
      <point x="240" y="1117" type="curve" smooth="yes"/>
      <point x="310" y="1117"/>
      <point x="369" y="1182"/>
      <point x="369" y="1251" type="curve" smooth="yes"/>
      <point x="369" y="1319"/>
      <point x="311" y="1390"/>
      <point x="240" y="1390" type="curve" smooth="yes"/>
      <point x="167" y="1390"/>
      <point x="110" y="1327"/>
    </contour>
  </outline>
</glyph>
<glyph name="k" format="2">
  <advance width="1120"/>
  <unicode hex="006B"/>
  <anchor x="540" y="0" name="bottom"/>
  <anchor x="540" y="905" name="top"/>
  <outline>
    <contour>
      <point x="136" y="0" type="curve" smooth="yes"/>
      <point x="293" y="0" type="line" smooth="yes"/>
      <point x="322" y="0"/>
      <point x="333" y="13"/>
      <point x="335" y="41" type="curve" smooth="yes"/>
      <point x="337" y="72"/>
      <point x="336" y="104"/>
      <point x="337" y="135" type="curve" smooth="yes"/>
      <point x="338" y="184"/>
      <point x="340" y="233"/>
      <point x="340" y="282" type="curve" smooth="yes"/>
      <point x="340" y="288" type="line" smooth="yes"/>
      <point x="340" y="294"/>
      <point x="344" y="297"/>
      <point x="349" y="299" type="curve" smooth="yes"/>
      <point x="406" y="321"/>
      <point x="465" y="335"/>
      <point x="522" y="357" type="curve"/>
      <point x="526" y="357"/>
      <point x="533" y="354"/>
      <point x="536" y="351" type="curve" smooth="yes"/>
      <point x="562" y="326"/>
      <point x="585" y="293"/>
      <point x="608" y="265" type="curve" smooth="yes"/>
      <point x="652" y="211"/>
      <point x="696" y="156"/>
      <point x="741" y="102" type="curve" smooth="yes"/>
      <point x="765" y="73"/>
      <point x="788" y="42"/>
      <point x="815" y="15" type="curve" smooth="yes"/>
      <point x="825" y="5"/>
      <point x="831" y="0"/>
      <point x="846" y="0" type="curve" smooth="yes"/>
      <point x="1018" y="0" type="line" smooth="yes"/>
      <point x="1036" y="0"/>
      <point x="1069" y="0"/>
      <point x="1069" y="26" type="curve" smooth="yes"/>
      <point x="1069" y="41"/>
      <point x="1057" y="55"/>
      <point x="1049" y="66" type="curve" smooth="yes"/>
      <point x="950" y="197"/>
      <point x="845" y="322"/>
      <point x="752" y="458" type="curve"/>
      <point x="751" y="465" type="line"/>
      <point x="753" y="467"/>
      <point x="755" y="469"/>
      <point x="757" y="471" type="curve"/>
      <point x="783" y="491"/>
      <point x="812" y="508"/>
      <point x="838" y="529" type="curve" smooth="yes"/>
      <point x="943" y="611"/>
      <point x="1036" y="725"/>
      <point x="1064" y="858" type="curve" smooth="yes"/>
      <point x="1065" y="863"/>
      <point x="1066" y="870"/>
      <point x="1066" y="876" type="curve" smooth="yes"/>
      <point x="1066" y="899"/>
      <point x="1046" y="907"/>
      <point x="1026" y="907" type="curve" smooth="yes"/>
      <point x="849" y="907" type="line" smooth="yes"/>
      <point x="822" y="907"/>
      <point x="815" y="894"/>
      <point x="808" y="871" type="curve" smooth="yes"/>
      <point x="798" y="838"/>
      <point x="787" y="807"/>
      <point x="770" y="776" type="curve" smooth="yes"/>
      <point x="684" y="625"/>
      <point x="512" y="553"/>
      <point x="352" y="510" type="curve"/>
      <point x="346" y="511"/>
      <point x="342" y="516"/>
      <point x="342" y="522" type="curve" smooth="yes"/>
      <point x="342" y="677" type="line" smooth="yes"/>
      <point x="342" y="840"/>
      <point x="341" y="1003"/>
      <point x="339" y="1166" type="curve" smooth="yes"/>
      <point x="338" y="1244"/>
      <point x="341" y="1323"/>
      <point x="334" y="1400" type="curve" smooth="yes"/>
      <point x="332" y="1428"/>
      <point x="323" y="1441"/>
      <point x="293" y="1441" type="curve" smooth="yes"/>
      <point x="136" y="1441" type="line" smooth="yes"/>
      <point x="107" y="1441"/>
      <point x="96" y="1427"/>
      <point x="96" y="1399" type="curve" smooth="yes"/>
      <point x="96" y="1326"/>
      <point x="102" y="1252"/>
      <point x="104" y="1179" type="curve" smooth="yes"/>
      <point x="108" y="1026"/>
      <point x="111" y="874"/>
      <point x="111" y="721" type="curve" smooth="yes"/>
      <point x="111" y="568"/>
      <point x="108" y="415"/>
      <point x="104" y="262" type="curve" smooth="yes"/>
      <point x="102" y="189"/>
      <point x="96" y="115"/>
      <point x="96" y="42" type="curve" smooth="yes"/>
      <point x="96" y="14"/>
      <point x="107" y="0"/>
    </contour>
  </outline>
</glyph>
<glyph name="l" format="2">
  <advance width="451"/>
  <unicode hex="006C"/>
  <anchor x="227" y="0" name="bottom"/>
  <anchor x="227" y="454" name="center"/>
  <anchor x="232" y="1685" name="top"/>
  <anchor x="490" y="905" name="topright"/>
  <outline>
    <contour>
      <point x="106" y="1400" type="curve" smooth="yes"/>
      <point x="106" y="1174"/>
      <point x="108" y="947"/>
      <point x="108" y="721" type="curve" smooth="yes"/>
      <point x="108" y="494"/>
      <point x="106" y="267"/>
      <point x="106" y="41" type="curve" smooth="yes"/>
      <point x="106" y="14"/>
      <point x="120" y="0"/>
      <point x="147" y="0" type="curve" smooth="yes"/>
      <point x="305" y="0" type="line" smooth="yes"/>
      <point x="332" y="0"/>
      <point x="346" y="14"/>
      <point x="346" y="41" type="curve" smooth="yes"/>
      <point x="346" y="267"/>
      <point x="344" y="494"/>
      <point x="344" y="721" type="curve" smooth="yes"/>
      <point x="344" y="947"/>
      <point x="346" y="1174"/>
      <point x="346" y="1400" type="curve" smooth="yes"/>
      <point x="346" y="1427"/>
      <point x="332" y="1441"/>
      <point x="305" y="1441" type="curve" smooth="yes"/>
      <point x="147" y="1441" type="line" smooth="yes"/>
      <point x="120" y="1441"/>
      <point x="106" y="1427"/>
    </contour>
  </outline>
</glyph>
<glyph name="m" format="2">
  <advance width="1718"/>
  <unicode hex="006D"/>
  <anchor x="861" y="0" name="bottom"/>
  <anchor x="861" y="907" name="top"/>
  <outline>
    <contour>
      <point x="148" y="907" type="line" smooth="yes"/>
      <point x="119" y="907"/>
      <point x="109" y="893"/>
      <point x="107" y="866" type="curve" smooth="yes"/>
      <point x="103" y="812"/>
      <point x="108" y="742"/>
      <point x="108" y="687" type="curve" smooth="yes"/>
      <point x="108" y="541"/>
      <point x="106" y="396"/>
      <point x="102" y="250" type="curve" smooth="yes"/>
      <point x="101" y="181"/>
      <point x="96" y="112"/>
      <point x="96" y="43" type="curve" smooth="yes"/>
      <point x="96" y="14"/>
      <point x="107" y="0" name=".hr01"/>
      <point x="137" y="0" type="curve" smooth="yes"/>
      <point x="294" y="0" type="line" smooth="yes"/>
      <point x="323" y="0"/>
      <point x="332" y="13"/>
      <point x="335" y="40" type="curve" smooth="yes"/>
      <point x="339" y="75"/>
      <point x="337" y="112"/>
      <point x="337" y="147" type="curve" smooth="yes"/>
      <point x="339" y="229"/>
      <point x="340" y="310"/>
      <point x="342" y="392" type="curve" smooth="yes"/>
      <point x="345" y="542"/>
      <point x="435" y="720"/>
      <point x="605" y="720" type="curve" smooth="yes"/>
      <point x="700" y="720"/>
      <point x="741" y="660"/>
      <point x="742" y="571" type="curve" smooth="yes"/>
      <point x="744" y="394"/>
      <point x="740" y="218"/>
      <point x="740" y="41" type="curve" smooth="yes"/>
      <point x="740" y="14"/>
      <point x="754" y="0"/>
      <point x="781" y="0" type="curve" smooth="yes"/>
      <point x="939" y="0" type="line" smooth="yes"/>
      <point x="966" y="0"/>
      <point x="980" y="14"/>
      <point x="980" y="41" type="curve" smooth="yes"/>
      <point x="980" y="159"/>
      <point x="978" y="276"/>
      <point x="978" y="394" type="curve" smooth="yes"/>
      <point x="978" y="540"/>
      <point x="1072" y="720"/>
      <point x="1238" y="720" type="curve" smooth="yes"/>
      <point x="1334" y="720"/>
      <point x="1377" y="664"/>
      <point x="1377" y="571" type="curve" smooth="yes"/>
      <point x="1377" y="451"/>
      <point x="1379" y="331"/>
      <point x="1381" y="211" type="curve" smooth="yes"/>
      <point x="1383" y="155"/>
      <point x="1380" y="96"/>
      <point x="1385" y="40" type="curve" smooth="yes"/>
      <point x="1388" y="13"/>
      <point x="1397" y="0"/>
      <point x="1426" y="0" type="curve" smooth="yes"/>
      <point x="1582" y="0" type="line" smooth="yes"/>
      <point x="1610" y="0"/>
      <point x="1623" y="14"/>
      <point x="1623" y="42" type="curve" smooth="yes"/>
      <point x="1623" y="109"/>
      <point x="1618" y="176"/>
      <point x="1616" y="243" type="curve" smooth="yes"/>
      <point x="1613" y="383"/>
      <point x="1610" y="524"/>
      <point x="1610" y="664" type="curve" smooth="yes"/>
      <point x="1610" y="838"/>
      <point x="1474" y="930"/>
      <point x="1311" y="930" type="curve" smooth="yes"/>
      <point x="1188" y="930"/>
      <point x="1076" y="877"/>
      <point x="993" y="787" type="curve"/>
      <point x="990" y="784"/>
      <point x="986" y="778"/>
      <point x="981" y="778" type="curve" smooth="yes"/>
      <point x="974" y="778"/>
      <point x="972" y="787"/>
      <point x="970" y="791" type="curve"/>
      <point x="921" y="898"/>
      <point x="805" y="931"/>
      <point x="696" y="931" type="curve" smooth="yes"/>
      <point x="561" y="931"/>
      <point x="446" y="890"/>
      <point x="358" y="785" type="curve"/>
      <point x="355" y="781"/>
      <point x="349" y="773"/>
      <point x="343" y="773" type="curve" smooth="yes"/>
      <point x="331" y="773"/>
      <point x="327" y="854"/>
      <point x="324" y="871" type="curve" smooth="yes"/>
      <point x="320" y="895"/>
      <point x="309" y="907"/>
      <point x="284" y="907" type="curve" smooth="yes"/>
    </contour>
  </outline>
</glyph>
<glyph name="n" format="2">
  <advance width="1071"/>
  <unicode hex="006E"/>
  <anchor x="537" y="0" name="bottom"/>
  <anchor x="537" y="925" name="top"/>
  <outline>
    <contour>
      <point x="278" y="907" type="curve" smooth="yes"/>
      <point x="143" y="907" type="line" smooth="yes"/>
      <point x="116" y="907"/>
      <point x="102" y="893"/>
      <point x="102" y="866" type="curve" smooth="yes"/>
      <point x="102" y="732" type="line" smooth="yes"/>
      <point x="102" y="576"/>
      <point x="101" y="420"/>
      <point x="99" y="264" type="curve" smooth="yes"/>
      <point x="98" y="190"/>
      <point x="95" y="116"/>
      <point x="95" y="42" type="curve" smooth="yes"/>
      <point x="95" y="14"/>
      <point x="107" y="0"/>
      <point x="136" y="0" type="curve" smooth="yes"/>
      <point x="293" y="0" type="line" smooth="yes"/>
      <point x="321" y="0"/>
      <point x="334" y="13"/>
      <point x="334" y="41" type="curve" smooth="yes"/>
      <point x="335" y="158"/>
      <point x="337" y="275"/>
      <point x="337" y="392" type="curve" smooth="yes"/>
      <point x="337" y="538"/>
      <point x="414" y="721"/>
      <point x="584" y="721" type="curve" smooth="yes"/>
      <point x="675" y="721"/>
      <point x="734" y="674"/>
      <point x="734" y="579" type="curve" smooth="yes"/>
      <point x="734" y="457"/>
      <point x="734" y="336"/>
      <point x="735" y="214" type="curve" smooth="yes"/>
      <point x="736" y="157"/>
      <point x="733" y="98"/>
      <point x="737" y="41" type="curve" smooth="yes"/>
      <point x="739" y="13"/>
      <point x="748" y="0"/>
      <point x="778" y="0" type="curve" smooth="yes"/>
      <point x="935" y="0" type="line" smooth="yes"/>
      <point x="964" y="0"/>
      <point x="976" y="14"/>
      <point x="976" y="42" type="curve" smooth="yes"/>
      <point x="976" y="249"/>
      <point x="969" y="457"/>
      <point x="969" y="664" type="curve" smooth="yes"/>
      <point x="969" y="828"/>
      <point x="836" y="930"/>
      <point x="680" y="930" type="curve" smooth="yes"/>
      <point x="553" y="930"/>
      <point x="433" y="887"/>
      <point x="353" y="785" type="curve" smooth="yes"/>
      <point x="350" y="781"/>
      <point x="343" y="770"/>
      <point x="337" y="770" type="curve" smooth="yes"/>
      <point x="330" y="770"/>
      <point x="328" y="788"/>
      <point x="328" y="791" type="curve"/>
      <point x="325" y="818"/>
      <point x="323" y="844"/>
      <point x="319" y="871" type="curve" smooth="yes"/>
      <point x="316" y="895"/>
      <point x="303" y="907"/>
    </contour>
  </outline>
</glyph>
<glyph name="o" format="2">
  <advance width="1047"/>
  <unicode hex="006F"/>
  <anchor x="525" y="0" name="bottom"/>
  <anchor x="525" y="454" name="center"/>
  <anchor x="962" y="22" name="ogonek"/>
  <anchor x="525" y="942" name="top"/>
  <anchor x="829" y="905" name="topright"/>
  <outline>
    <contour>
      <point x="57" y="449" type="curve" smooth="yes"/>
      <point x="57" y="167"/>
      <point x="246" y="-19"/>
      <point x="527" y="-19" type="curve" smooth="yes"/>
      <point x="806" y="-19"/>
      <point x="990" y="175"/>
      <point x="990" y="451" type="curve" smooth="yes"/>
      <point x="990" y="724"/>
      <point x="811" y="931"/>
      <point x="532" y="931" type="curve" smooth="yes"/>
      <point x="252" y="931"/>
      <point x="57" y="727"/>
    </contour>
    <contour>
      <point x="527" y="731" type="curve" smooth="yes"/>
      <point x="678" y="731"/>
      <point x="751" y="592"/>
      <point x="751" y="457" type="curve" smooth="yes"/>
      <point x="751" y="322"/>
      <point x="670" y="192"/>
      <point x="523" y="192" type="curve" smooth="yes"/>
      <point x="381" y="192"/>
      <point x="296" y="324"/>
      <point x="296" y="455" type="curve" smooth="yes"/>
      <point x="296" y="592"/>
      <point x="376" y="731"/>
    </contour>
  </outline>
</glyph>
